<svg width="416" height="77" viewBox="0 0 416 77" fill="none" xmlns="http://www.w3.org/2000/svg">
<path d="M397.97 77H387.966C387.632 77 387.41 76.8075 387.41 76.5187V0.48125C387.41 0.192498 387.632 0 387.966 0H396.747C397.08 0 397.414 0.192498 397.414 0.48125L402.416 37.5375H402.972V0.48125C402.972 0.192498 403.194 0 403.527 0H414.643C414.976 0 415.198 0.192498 415.198 0.48125V76.5187C415.198 76.8075 414.976 77 414.643 77H405.862C405.528 77 405.195 76.8075 405.195 76.5187L399.081 35.6125H398.525V76.5187C398.525 76.8075 398.303 77 397.97 77Z" fill="white"/>
<path d="M376.267 0C385.159 0 385.159 4.81249 385.159 15.4V61.6C385.159 72.1875 385.159 77 376.267 77H369.597C360.705 77 360.705 72.1875 360.705 61.6V15.4C360.705 4.81249 360.705 0 369.597 0H376.267ZM374.043 68.3375V8.6625H371.82V68.3375H374.043Z" fill="white"/>
<path d="M357.911 77H347.907C347.574 77 347.352 76.8075 347.352 76.5187V0.48125C347.352 0.192498 347.574 0 347.907 0H357.911C358.245 0 358.467 0.192498 358.467 0.48125V76.5187C358.467 76.8075 358.245 77 357.911 77Z" fill="white"/>
<path d="M324.571 0H344.579C344.912 0 345.135 0.192498 345.135 0.48125V7.21875C345.135 7.50749 344.912 7.7 344.579 7.7H340.133V76.5187C340.133 76.8075 339.911 77 339.577 77H329.573C329.24 77 329.018 76.8075 329.018 76.5187V7.7H324.571C324.238 7.7 324.016 7.50749 324.016 7.21875V0.48125C324.016 0.192498 324.238 0 324.571 0Z" fill="white"/>
<path d="M322.383 0.48125L323.939 76.5187C323.939 76.9037 323.717 77 323.383 77H313.38C313.046 77 312.824 76.9037 312.824 76.5187L312.602 55.3438H310.267L310.045 76.5187C310.045 76.9037 309.823 77 309.489 77H299.485C299.152 77 298.93 76.9037 298.93 76.5187L300.486 0.48125C300.486 0.0962488 300.708 0 301.042 0H321.827C322.161 0 322.383 0.0962488 322.383 0.48125ZM310.601 8.6625L310.267 47.6437H312.602L312.268 8.6625H310.601Z" fill="white"/>
<path d="M286.12 29.9337V8.6625H283.897V28.3938C283.897 29.4525 283.897 30.5112 286.12 32.2437L291.677 37.0562C296.679 41.3875 297.235 41.4837 297.235 49.28V61.6C297.235 72.1875 297.235 77 288.343 77H281.673C272.781 77 272.781 72.1875 272.781 61.6V46.1037C272.781 45.815 273.004 45.6225 273.337 45.6225H283.341C283.674 45.6225 283.897 45.815 283.897 46.1037V68.3375H286.12V47.6437C286.12 46.585 286.231 45.2375 283.897 43.7937L279.45 40.425C273.559 35.9012 272.781 34.0725 272.781 26.2763V15.4C272.781 4.81249 272.781 0 281.673 0H288.343C297.235 0 297.235 4.81249 297.235 15.4V29.9337C297.235 30.2225 297.013 30.415 296.679 30.415H286.675C286.342 30.415 286.12 30.2225 286.12 29.9337Z" fill="white"/>
<path d="M253.382 77H243.378C243.045 77 242.822 76.8075 242.822 76.5187V0.48125C242.822 0.192498 243.045 0 243.378 0H252.159C252.493 0 252.826 0.192498 252.826 0.48125L257.828 37.5375H258.384V0.48125C258.384 0.192498 258.606 0 258.939 0H270.055C270.388 0 270.611 0.192498 270.611 0.48125V76.5187C270.611 76.8075 270.388 77 270.055 77H261.274C260.94 77 260.607 76.8075 260.607 76.5187L254.493 35.6125H253.938V76.5187C253.938 76.8075 253.715 77 253.382 77Z" fill="white"/>
<path d="M238.967 42.35H233.965V69.3H240.078C240.412 69.3 240.634 69.4925 240.634 69.7812V76.5187C240.634 76.8075 240.412 77 240.078 77H223.405C223.072 77 222.85 76.8075 222.85 76.5187V0.48125C222.85 0.192498 223.072 0 223.405 0H240.078C240.412 0 240.634 0.192498 240.634 0.48125V7.21875C240.634 7.50749 240.412 7.7 240.078 7.7H233.965V34.65H238.967C239.3 34.65 239.523 34.8425 239.523 35.1312V41.8687C239.523 42.1575 239.3 42.35 238.967 42.35Z" fill="white"/>
<path d="M209.483 29.9337V8.6625H207.26V28.3938C207.26 29.4525 207.26 30.5112 209.483 32.2437L215.041 37.0562C220.042 41.3875 220.598 41.4837 220.598 49.28V61.6C220.598 72.1875 220.598 77 211.706 77H205.037C196.145 77 196.145 72.1875 196.145 61.6V46.1037C196.145 45.815 196.367 45.6225 196.7 45.6225H206.704C207.038 45.6225 207.26 45.815 207.26 46.1037V68.3375H209.483V47.6437C209.483 46.585 209.594 45.2375 207.26 43.7937L202.814 40.425C196.923 35.9012 196.145 34.0725 196.145 26.2763V15.4C196.145 4.81249 196.145 0 205.037 0H211.706C220.598 0 220.598 4.81249 220.598 15.4V29.9337C220.598 30.2225 220.376 30.415 220.042 30.415H210.039C209.705 30.415 209.483 30.2225 209.483 29.9337Z" fill="white"/>
<path d="M180.559 0.48125V69.3H185.561C185.894 69.3 186.116 69.4925 186.116 69.7812V76.5187C186.116 76.8075 185.894 77 185.561 77H169.999C169.666 77 169.443 76.8075 169.443 76.5187V0.48125C169.443 0.192498 169.666 0 169.999 0H180.003C180.336 0 180.559 0.192498 180.559 0.48125Z" fill="white"/>
<path d="M166.18 0.48125L167.736 76.5187C167.736 76.9037 167.514 77 167.18 77H157.176C156.843 77 156.621 76.9037 156.621 76.5187L156.398 55.3438H154.064L153.842 76.5187C153.842 76.9037 153.62 77 153.286 77H143.282C142.949 77 142.727 76.9037 142.727 76.5187L144.283 0.48125C144.283 0.0962488 144.505 0 144.838 0H165.624C165.958 0 166.18 0.0962488 166.18 0.48125ZM154.398 8.6625L154.064 47.6437H156.398L156.065 8.6625H154.398Z" fill="white"/>
<path d="M129.918 34.9388V8.6625H127.695V68.3375H129.918V37.8262C129.918 37.5375 130.141 37.345 130.474 37.345H140.478C140.811 37.345 141.034 37.5375 141.034 37.8262V61.6C141.034 72.1875 141.034 77 132.142 77H125.472C116.58 77 116.58 72.1875 116.58 61.6V15.4C116.58 4.81249 116.58 0 125.472 0H132.142C141.034 0 141.034 4.81249 141.034 15.4V34.9388C141.034 35.2275 140.811 35.42 140.478 35.42H130.474C130.141 35.42 129.918 35.2275 129.918 34.9388Z" fill="white"/>
<path d="M113.79 77H103.786C103.453 77 103.23 76.8075 103.23 76.5187V0.48125C103.23 0.192498 103.453 0 103.786 0H113.79C114.123 0 114.346 0.192498 114.346 0.48125V76.5187C114.346 76.8075 114.123 77 113.79 77Z" fill="white"/>
<path d="M92.0868 0C100.979 0 100.979 4.81249 100.979 15.4V29.9337C100.979 40.5212 100.979 45.3337 92.0868 45.3337H87.6407V76.5187C87.6407 76.8075 87.4184 77 87.0849 77H77.0812C76.7477 77 76.5254 76.8075 76.5254 76.5187V0.48125C76.5254 0.192498 76.7477 0 77.0812 0H92.0868ZM89.8638 36.6712V8.6625H87.6407V36.6712H89.8638Z" fill="white"/>
<path d="M65.3857 0C74.2779 0 74.2779 4.81249 74.2779 15.4V61.6C74.2779 72.1875 74.2779 77 65.3857 77H58.7165C49.8242 77 49.8242 72.1875 49.8242 61.6V15.4C49.8242 4.81249 49.8242 0 58.7165 0H65.3857ZM63.1626 68.3375V8.6625H60.9395V68.3375H63.1626Z" fill="white"/>
<path d="M49.1254 76.4225C49.3477 76.7112 49.1254 77 48.792 77H38.5659C38.3436 77 38.0101 76.8075 37.899 76.615C36.454 74.69 36.454 71.3213 36.454 69.4925L36.6763 40.425H34.4532V76.5187C34.4532 76.8075 34.2309 77 33.8974 77H23.8937C23.5602 77 23.3379 76.8075 23.3379 76.5187V0.48125C23.3379 0.192498 23.5602 0 23.8937 0H38.8993C47.7916 0 47.7916 4.81249 47.7916 15.4V29.1637C47.7916 34.3612 44.3458 35.9012 42.5674 36.0938V37.0562C44.2347 37.2487 47.7916 38.7887 47.7916 43.9862V69.4925C47.7916 71.1288 47.7916 74.4975 49.1254 76.4225ZM34.4532 32.725H36.6763V8.6625H34.4532V32.725Z" fill="white"/>
<path d="M0.555766 0H20.5633C20.8968 0 21.1191 0.192498 21.1191 0.48125V7.21875C21.1191 7.50749 20.8968 7.7 20.5633 7.7H16.1172V76.5187C16.1172 76.8075 15.8949 77 15.5614 77H5.55766C5.2242 77 5.00189 76.8075 5.00189 76.5187V7.7H0.555766C0.222306 7.7 0 7.50749 0 7.21875V0.48125C0 0.192498 0.222306 0 0.555766 0Z" fill="white"/>
</svg>
