<svg width="350" height="144" viewBox="0 0 350 144" fill="none" xmlns="http://www.w3.org/2000/svg">
<path d="M12.6505 1.826V3.334H7.60652V20H5.78652V3.334H0.716523V1.826H12.6505ZM17.3443 8.326C17.743 7.442 18.3497 6.75733 19.1643 6.272C19.9963 5.78667 21.0103 5.544 22.2063 5.544V7.442H21.7123C20.395 7.442 19.3377 7.79733 18.5403 8.508C17.743 9.21867 17.3443 10.406 17.3443 12.07V20H15.5243V5.804H17.3443V8.326ZM24.1123 12.876C24.1123 11.42 24.3983 10.146 24.9703 9.054C25.5596 7.94467 26.3656 7.09533 27.3883 6.506C28.4283 5.89933 29.5983 5.596 30.8983 5.596C32.2503 5.596 33.4116 5.908 34.3823 6.532C35.3703 7.156 36.0809 7.95333 36.5143 8.924V5.804H38.3343V20H36.5143V16.854C36.0636 17.8247 35.3443 18.6307 34.3563 19.272C33.3856 19.896 32.2243 20.208 30.8723 20.208C29.5896 20.208 28.4283 19.9047 27.3883 19.298C26.3656 18.6913 25.5596 17.8333 24.9703 16.724C24.3983 15.6147 24.1123 14.332 24.1123 12.876ZM36.5143 12.902C36.5143 11.758 36.2803 10.7527 35.8123 9.886C35.3443 9.01933 34.7029 8.352 33.8883 7.884C33.0909 7.416 32.2069 7.182 31.2363 7.182C30.2309 7.182 29.3296 7.40733 28.5323 7.858C27.7349 8.30867 27.1023 8.96733 26.6343 9.834C26.1836 10.6833 25.9583 11.6973 25.9583 12.876C25.9583 14.0373 26.1836 15.06 26.6343 15.944C27.1023 16.8107 27.7349 17.478 28.5323 17.946C29.3296 18.3967 30.2309 18.622 31.2363 18.622C32.2069 18.622 33.0909 18.388 33.8883 17.92C34.7029 17.452 35.3443 16.7847 35.8123 15.918C36.2803 15.0513 36.5143 14.046 36.5143 12.902ZM49.1452 5.544C50.8438 5.544 52.2305 6.07267 53.3052 7.13C54.3798 8.17 54.9172 9.68667 54.9172 11.68V20H53.1232V11.888C53.1232 10.3453 52.7332 9.16667 51.9532 8.352C51.1905 7.53733 50.1418 7.13 48.8072 7.13C47.4378 7.13 46.3458 7.56333 45.5312 8.43C44.7165 9.29667 44.3092 10.5707 44.3092 12.252V20H42.4892V5.804H44.3092V8.222C44.7598 7.35533 45.4098 6.69667 46.2592 6.246C47.1085 5.778 48.0705 5.544 49.1452 5.544ZM63.8303 20.208C62.201 20.208 60.8663 19.8353 59.8263 19.09C58.8036 18.3273 58.2316 17.296 58.1103 15.996H59.9823C60.069 16.7933 60.4416 17.4433 61.1003 17.946C61.7763 18.4313 62.6776 18.674 63.8043 18.674C64.7923 18.674 65.5636 18.44 66.1183 17.972C66.6903 17.504 66.9763 16.9233 66.9763 16.23C66.9763 15.7447 66.8203 15.346 66.5083 15.034C66.1963 14.722 65.7976 14.4793 65.3123 14.306C64.8443 14.1153 64.203 13.916 63.3883 13.708C62.331 13.4307 61.473 13.1533 60.8143 12.876C60.1556 12.5987 59.5923 12.1913 59.1243 11.654C58.6736 11.0993 58.4483 10.3627 58.4483 9.444C58.4483 8.75067 58.6563 8.10933 59.0723 7.52C59.4883 6.93067 60.0776 6.46267 60.8403 6.116C61.603 5.76933 62.4696 5.596 63.4403 5.596C64.9656 5.596 66.1963 5.986 67.1323 6.766C68.0683 7.52867 68.571 8.586 68.6403 9.938H66.8203C66.7683 9.106 66.439 8.43867 65.8323 7.936C65.243 7.416 64.4283 7.156 63.3883 7.156C62.4696 7.156 61.7243 7.37267 61.1523 7.806C60.5803 8.23933 60.2943 8.77667 60.2943 9.418C60.2943 9.97267 60.459 10.432 60.7883 10.796C61.135 11.1427 61.5596 11.42 62.0623 11.628C62.565 11.8187 63.241 12.0353 64.0903 12.278C65.113 12.5553 65.9276 12.824 66.5343 13.084C67.141 13.344 67.661 13.7253 68.0943 14.228C68.5276 14.7307 68.753 15.398 68.7703 16.23C68.7703 16.9927 68.5623 17.6773 68.1463 18.284C67.7303 18.8733 67.1496 19.3413 66.4043 19.688C65.659 20.0347 64.801 20.208 63.8303 20.208ZM71.3642 12.902C71.3642 11.4287 71.6589 10.146 72.2482 9.054C72.8375 7.94467 73.6522 7.09533 74.6922 6.506C75.7322 5.89933 76.9195 5.596 78.2542 5.596C80.0049 5.596 81.4435 6.02933 82.5702 6.896C83.7142 7.76267 84.4509 8.94133 84.7802 10.432H82.8302C82.5875 9.40933 82.0589 8.612 81.2442 8.04C80.4469 7.45067 79.4502 7.156 78.2542 7.156C77.3009 7.156 76.4429 7.37267 75.6802 7.806C74.9175 8.23933 74.3109 8.88933 73.8602 9.756C73.4269 10.6053 73.2102 11.654 73.2102 12.902C73.2102 14.15 73.4269 15.2073 73.8602 16.074C74.3109 16.9407 74.9175 17.5907 75.6802 18.024C76.4429 18.4573 77.3009 18.674 78.2542 18.674C79.4502 18.674 80.4469 18.388 81.2442 17.816C82.0589 17.2267 82.5875 16.412 82.8302 15.372H84.7802C84.4509 16.828 83.7142 17.998 82.5702 18.882C81.4262 19.766 79.9875 20.208 78.2542 20.208C76.9195 20.208 75.7322 19.9133 74.6922 19.324C73.6522 18.7173 72.8375 17.868 72.2482 16.776C71.6589 15.6667 71.3642 14.3753 71.3642 12.902ZM100.986 12.174C100.986 12.798 100.968 13.2747 100.934 13.604H89.1555C89.2075 14.6787 89.4675 15.5973 89.9355 16.36C90.4035 17.1227 91.0189 17.7033 91.7815 18.102C92.5442 18.4833 93.3762 18.674 94.2775 18.674C95.4562 18.674 96.4442 18.388 97.2415 17.816C98.0562 17.244 98.5935 16.4727 98.8535 15.502H100.778C100.431 16.8887 99.6855 18.024 98.5415 18.908C97.4149 19.7747 95.9935 20.208 94.2775 20.208C92.9429 20.208 91.7469 19.9133 90.6895 19.324C89.6322 18.7173 88.8002 17.868 88.1935 16.776C87.6042 15.6667 87.3095 14.3753 87.3095 12.902C87.3095 11.4287 87.6042 10.1373 88.1935 9.028C88.7829 7.91867 89.6062 7.06933 90.6635 6.48C91.7209 5.89067 92.9255 5.596 94.2775 5.596C95.6295 5.596 96.8082 5.89067 97.8135 6.48C98.8362 7.06933 99.6162 7.86667 100.154 8.872C100.708 9.86 100.986 10.9607 100.986 12.174ZM99.1395 12.122C99.1569 11.0647 98.9402 10.1633 98.4895 9.418C98.0562 8.67267 97.4582 8.10933 96.6955 7.728C95.9329 7.34667 95.1009 7.156 94.1995 7.156C92.8475 7.156 91.6949 7.58933 90.7415 8.456C89.7882 9.32267 89.2595 10.5447 89.1555 12.122H99.1395ZM110.971 5.544C112.67 5.544 114.057 6.07267 115.131 7.13C116.206 8.17 116.743 9.68667 116.743 11.68V20H114.949V11.888C114.949 10.3453 114.559 9.16667 113.779 8.352C113.017 7.53733 111.968 7.13 110.633 7.13C109.264 7.13 108.172 7.56333 107.357 8.43C106.543 9.29667 106.135 10.5707 106.135 12.252V20H104.315V5.804H106.135V8.222C106.586 7.35533 107.236 6.69667 108.085 6.246C108.935 5.778 109.897 5.544 110.971 5.544ZM119.936 12.876C119.936 11.42 120.231 10.146 120.82 9.054C121.41 7.94467 122.216 7.09533 123.238 6.506C124.278 5.89933 125.448 5.596 126.748 5.596C127.996 5.596 129.123 5.89933 130.128 6.506C131.134 7.11267 131.87 7.90133 132.338 8.872V0.76H134.158V20H132.338V16.828C131.905 17.816 131.194 18.6307 130.206 19.272C129.218 19.896 128.057 20.208 126.722 20.208C125.422 20.208 124.252 19.9047 123.212 19.298C122.19 18.6913 121.384 17.8333 120.794 16.724C120.222 15.6147 119.936 14.332 119.936 12.876ZM132.338 12.902C132.338 11.758 132.104 10.7527 131.636 9.886C131.168 9.01933 130.527 8.352 129.712 7.884C128.915 7.416 128.031 7.182 127.06 7.182C126.055 7.182 125.154 7.40733 124.356 7.858C123.559 8.30867 122.926 8.96733 122.458 9.834C122.008 10.6833 121.782 11.6973 121.782 12.876C121.782 14.0373 122.008 15.06 122.458 15.944C122.926 16.8107 123.559 17.478 124.356 17.946C125.154 18.3967 126.055 18.622 127.06 18.622C128.031 18.622 128.915 18.388 129.712 17.92C130.527 17.452 131.168 16.7847 131.636 15.918C132.104 15.0513 132.338 14.046 132.338 12.902ZM139.223 3.126C138.859 3.126 138.547 2.996 138.287 2.736C138.027 2.476 137.897 2.15533 137.897 1.774C137.897 1.39267 138.027 1.08067 138.287 0.837999C138.547 0.577999 138.859 0.447999 139.223 0.447999C139.587 0.447999 139.899 0.577999 140.159 0.837999C140.419 1.08067 140.549 1.39267 140.549 1.774C140.549 2.15533 140.419 2.476 140.159 2.736C139.899 2.996 139.587 3.126 139.223 3.126ZM140.133 5.804V20H138.313V5.804H140.133ZM150.911 5.544C152.609 5.544 153.996 6.07267 155.071 7.13C156.145 8.17 156.683 9.68667 156.683 11.68V20H154.889V11.888C154.889 10.3453 154.499 9.16667 153.719 8.352C152.956 7.53733 151.907 7.13 150.573 7.13C149.203 7.13 148.111 7.56333 147.297 8.43C146.482 9.29667 146.075 10.5707 146.075 12.252V20H144.255V5.804H146.075V8.222C146.525 7.35533 147.175 6.69667 148.025 6.246C148.874 5.778 149.836 5.544 150.911 5.544ZM166.662 5.596C167.997 5.596 169.158 5.908 170.146 6.532C171.134 7.156 171.845 7.94467 172.278 8.898V5.804H174.098V20.364C174.098 21.664 173.812 22.8167 173.24 23.822C172.685 24.8273 171.905 25.5987 170.9 26.136C169.895 26.6907 168.751 26.968 167.468 26.968C165.648 26.968 164.131 26.5347 162.918 25.668C161.722 24.8013 160.977 23.6227 160.682 22.132H162.476C162.788 23.12 163.377 23.9087 164.244 24.498C165.128 25.0873 166.203 25.382 167.468 25.382C168.387 25.382 169.21 25.1827 169.938 24.784C170.666 24.4027 171.238 23.8307 171.654 23.068C172.07 22.3053 172.278 21.404 172.278 20.364V16.854C171.827 17.8247 171.108 18.6307 170.12 19.272C169.149 19.896 167.997 20.208 166.662 20.208C165.362 20.208 164.192 19.9047 163.152 19.298C162.129 18.6913 161.323 17.8333 160.734 16.724C160.162 15.6147 159.876 14.332 159.876 12.876C159.876 11.42 160.162 10.146 160.734 9.054C161.323 7.94467 162.129 7.09533 163.152 6.506C164.192 5.89933 165.362 5.596 166.662 5.596ZM172.278 12.902C172.278 11.758 172.044 10.7527 171.576 9.886C171.108 9.01933 170.467 8.352 169.652 7.884C168.855 7.416 167.971 7.182 167 7.182C165.995 7.182 165.093 7.40733 164.296 7.858C163.499 8.30867 162.866 8.96733 162.398 9.834C161.947 10.6833 161.722 11.6973 161.722 12.876C161.722 14.0373 161.947 15.06 162.398 15.944C162.866 16.8107 163.499 17.478 164.296 17.946C165.093 18.3967 165.995 18.622 167 18.622C167.971 18.622 168.855 18.388 169.652 17.92C170.467 17.452 171.108 16.7847 171.576 15.918C172.044 15.0513 172.278 14.046 172.278 12.902ZM184.556 12.902C184.556 11.4287 184.85 10.146 185.44 9.054C186.029 7.94467 186.844 7.09533 187.884 6.506C188.924 5.89933 190.111 5.596 191.446 5.596C193.196 5.596 194.635 6.02933 195.762 6.896C196.906 7.76267 197.642 8.94133 197.972 10.432H196.022C195.779 9.40933 195.25 8.612 194.436 8.04C193.638 7.45067 192.642 7.156 191.446 7.156C190.492 7.156 189.634 7.37267 188.872 7.806C188.109 8.23933 187.502 8.88933 187.052 9.756C186.618 10.6053 186.402 11.654 186.402 12.902C186.402 14.15 186.618 15.2073 187.052 16.074C187.502 16.9407 188.109 17.5907 188.872 18.024C189.634 18.4573 190.492 18.674 191.446 18.674C192.642 18.674 193.638 18.388 194.436 17.816C195.25 17.2267 195.779 16.412 196.022 15.372H197.972C197.642 16.828 196.906 17.998 195.762 18.882C194.618 19.766 193.179 20.208 191.446 20.208C190.111 20.208 188.924 19.9133 187.884 19.324C186.844 18.7173 186.029 17.868 185.44 16.776C184.85 15.6667 184.556 14.3753 184.556 12.902ZM207.547 20.208C206.212 20.208 205.008 19.9133 203.933 19.324C202.876 18.7173 202.035 17.868 201.411 16.776C200.804 15.6667 200.501 14.3753 200.501 12.902C200.501 11.4287 200.813 10.146 201.437 9.054C202.061 7.94467 202.91 7.09533 203.985 6.506C205.06 5.89933 206.264 5.596 207.599 5.596C208.934 5.596 210.138 5.89933 211.213 6.506C212.305 7.09533 213.154 7.94467 213.761 9.054C214.385 10.146 214.697 11.4287 214.697 12.902C214.697 14.358 214.385 15.6407 213.761 16.75C213.137 17.8593 212.279 18.7173 211.187 19.324C210.095 19.9133 208.882 20.208 207.547 20.208ZM207.547 18.622C208.483 18.622 209.35 18.414 210.147 17.998C210.944 17.5647 211.586 16.9233 212.071 16.074C212.574 15.2073 212.825 14.15 212.825 12.902C212.825 11.654 212.582 10.6053 212.097 9.756C211.612 8.88933 210.97 8.248 210.173 7.832C209.376 7.39867 208.509 7.182 207.573 7.182C206.637 7.182 205.77 7.39867 204.973 7.832C204.176 8.248 203.534 8.88933 203.049 9.756C202.581 10.6053 202.347 11.654 202.347 12.902C202.347 14.15 202.581 15.2073 203.049 16.074C203.534 16.9233 204.167 17.5647 204.947 17.998C205.744 18.414 206.611 18.622 207.547 18.622ZM224.671 5.544C226.369 5.544 227.756 6.07267 228.831 7.13C229.905 8.17 230.443 9.68667 230.443 11.68V20H228.649V11.888C228.649 10.3453 228.259 9.16667 227.479 8.352C226.716 7.53733 225.667 7.13 224.333 7.13C222.963 7.13 221.871 7.56333 221.057 8.43C220.242 9.29667 219.835 10.5707 219.835 12.252V20H218.015V5.804H219.835V8.222C220.285 7.35533 220.935 6.69667 221.785 6.246C222.634 5.778 223.596 5.544 224.671 5.544ZM239.512 18.232L244.296 5.804H246.22L240.526 20H238.472L232.778 5.804H234.728L239.512 18.232ZM261.53 12.174C261.53 12.798 261.513 13.2747 261.478 13.604H249.7C249.752 14.6787 250.012 15.5973 250.48 16.36C250.948 17.1227 251.564 17.7033 252.326 18.102C253.089 18.4833 253.921 18.674 254.822 18.674C256.001 18.674 256.989 18.388 257.786 17.816C258.601 17.244 259.138 16.4727 259.398 15.502H261.322C260.976 16.8887 260.23 18.024 259.086 18.908C257.96 19.7747 256.538 20.208 254.822 20.208C253.488 20.208 252.292 19.9133 251.234 19.324C250.177 18.7173 249.345 17.868 248.738 16.776C248.149 15.6667 247.854 14.3753 247.854 12.902C247.854 11.4287 248.149 10.1373 248.738 9.028C249.328 7.91867 250.151 7.06933 251.208 6.48C252.266 5.89067 253.47 5.596 254.822 5.596C256.174 5.596 257.353 5.89067 258.358 6.48C259.381 7.06933 260.161 7.86667 260.698 8.872C261.253 9.86 261.53 10.9607 261.53 12.174ZM259.684 12.122C259.702 11.0647 259.485 10.1633 259.034 9.418C258.601 8.67267 258.003 8.10933 257.24 7.728C256.478 7.34667 255.646 7.156 254.744 7.156C253.392 7.156 252.24 7.58933 251.286 8.456C250.333 9.32267 249.804 10.5447 249.7 12.122H259.684ZM271.516 5.544C273.215 5.544 274.602 6.07267 275.676 7.13C276.751 8.17 277.288 9.68667 277.288 11.68V20H275.494V11.888C275.494 10.3453 275.104 9.16667 274.324 8.352C273.562 7.53733 272.513 7.13 271.178 7.13C269.809 7.13 268.717 7.56333 267.902 8.43C267.088 9.29667 266.68 10.5707 266.68 12.252V20H264.86V5.804H266.68V8.222C267.131 7.35533 267.781 6.69667 268.63 6.246C269.48 5.778 270.442 5.544 271.516 5.544ZM283.679 7.338V16.152C283.679 17.0187 283.844 17.6167 284.173 17.946C284.503 18.2753 285.083 18.44 285.915 18.44H287.579V20H285.629C284.347 20 283.393 19.7053 282.769 19.116C282.145 18.5093 281.833 17.5213 281.833 16.152V7.338H279.857V5.804H281.833V2.242H283.679V5.804H287.579V7.338H283.679ZM291.491 3.126C291.127 3.126 290.815 2.996 290.555 2.736C290.295 2.476 290.165 2.15533 290.165 1.774C290.165 1.39267 290.295 1.08067 290.555 0.837999C290.815 0.577999 291.127 0.447999 291.491 0.447999C291.855 0.447999 292.167 0.577999 292.427 0.837999C292.687 1.08067 292.817 1.39267 292.817 1.774C292.817 2.15533 292.687 2.476 292.427 2.736C292.167 2.996 291.855 3.126 291.491 3.126ZM292.401 5.804V20H290.581V5.804H292.401ZM302.736 20.208C301.402 20.208 300.197 19.9133 299.122 19.324C298.065 18.7173 297.224 17.868 296.6 16.776C295.994 15.6667 295.69 14.3753 295.69 12.902C295.69 11.4287 296.002 10.146 296.626 9.054C297.25 7.94467 298.1 7.09533 299.174 6.506C300.249 5.89933 301.454 5.596 302.788 5.596C304.123 5.596 305.328 5.89933 306.402 6.506C307.494 7.09533 308.344 7.94467 308.95 9.054C309.574 10.146 309.886 11.4287 309.886 12.902C309.886 14.358 309.574 15.6407 308.95 16.75C308.326 17.8593 307.468 18.7173 306.376 19.324C305.284 19.9133 304.071 20.208 302.736 20.208ZM302.736 18.622C303.672 18.622 304.539 18.414 305.336 17.998C306.134 17.5647 306.775 16.9233 307.26 16.074C307.763 15.2073 308.014 14.15 308.014 12.902C308.014 11.654 307.772 10.6053 307.286 9.756C306.801 8.88933 306.16 8.248 305.362 7.832C304.565 7.39867 303.698 7.182 302.762 7.182C301.826 7.182 300.96 7.39867 300.162 7.832C299.365 8.248 298.724 8.88933 298.238 9.756C297.77 10.6053 297.536 11.654 297.536 12.902C297.536 14.15 297.77 15.2073 298.238 16.074C298.724 16.9233 299.356 17.5647 300.136 17.998C300.934 18.414 301.8 18.622 302.736 18.622ZM319.86 5.544C321.559 5.544 322.945 6.07267 324.02 7.13C325.095 8.17 325.632 9.68667 325.632 11.68V20H323.838V11.888C323.838 10.3453 323.448 9.16667 322.668 8.352C321.905 7.53733 320.857 7.13 319.522 7.13C318.153 7.13 317.061 7.56333 316.246 8.43C315.431 9.29667 315.024 10.5707 315.024 12.252V20H313.204V5.804H315.024V8.222C315.475 7.35533 316.125 6.69667 316.974 6.246C317.823 5.778 318.785 5.544 319.86 5.544ZM328.825 12.876C328.825 11.42 329.111 10.146 329.683 9.054C330.272 7.94467 331.078 7.09533 332.101 6.506C333.141 5.89933 334.311 5.596 335.611 5.596C336.963 5.596 338.124 5.908 339.095 6.532C340.083 7.156 340.794 7.95333 341.227 8.924V5.804H343.047V20H341.227V16.854C340.776 17.8247 340.057 18.6307 339.069 19.272C338.098 19.896 336.937 20.208 335.585 20.208C334.302 20.208 333.141 19.9047 332.101 19.298C331.078 18.6913 330.272 17.8333 329.683 16.724C329.111 15.6147 328.825 14.332 328.825 12.876ZM341.227 12.902C341.227 11.758 340.993 10.7527 340.525 9.886C340.057 9.01933 339.416 8.352 338.601 7.884C337.804 7.416 336.92 7.182 335.949 7.182C334.944 7.182 334.042 7.40733 333.245 7.858C332.448 8.30867 331.815 8.96733 331.347 9.834C330.896 10.6833 330.671 11.6973 330.671 12.876C330.671 14.0373 330.896 15.06 331.347 15.944C331.815 16.8107 332.448 17.478 333.245 17.946C334.042 18.3967 334.944 18.622 335.949 18.622C336.92 18.622 337.804 18.388 338.601 17.92C339.416 17.452 340.057 16.7847 340.525 15.918C340.993 15.0513 341.227 14.046 341.227 12.902ZM349.022 0.76V20H347.202V0.76H349.022ZM16.7979 46.338H13.4959V59H11.6759V46.338H9.69993V44.804H11.6759V43.816C11.6759 42.2733 12.0659 41.138 12.8459 40.41C13.6433 39.682 14.9259 39.318 16.6939 39.318V40.878C15.5153 40.878 14.6833 41.1033 14.1979 41.554C13.7299 42.0047 13.4959 42.7587 13.4959 43.816V44.804H16.7979V46.338ZM18.831 51.876C18.831 50.42 19.117 49.146 19.689 48.054C20.2783 46.9447 21.0843 46.0953 22.107 45.506C23.147 44.8993 24.317 44.596 25.617 44.596C26.969 44.596 28.1303 44.908 29.101 45.532C30.089 46.156 30.7997 46.9533 31.233 47.924V44.804H33.053V59H31.233V55.854C30.7823 56.8247 30.063 57.6307 29.075 58.272C28.1043 58.896 26.943 59.208 25.591 59.208C24.3083 59.208 23.147 58.9047 22.107 58.298C21.0843 57.6913 20.2783 56.8333 19.689 55.724C19.117 54.6147 18.831 53.332 18.831 51.876ZM31.233 51.902C31.233 50.758 30.999 49.7527 30.531 48.886C30.063 48.0193 29.4217 47.352 28.607 46.884C27.8097 46.416 26.9257 46.182 25.955 46.182C24.9497 46.182 24.0483 46.4073 23.251 46.858C22.4537 47.3087 21.821 47.9673 21.353 48.834C20.9023 49.6833 20.677 50.6973 20.677 51.876C20.677 53.0373 20.9023 54.06 21.353 54.944C21.821 55.8107 22.4537 56.478 23.251 56.946C24.0483 57.3967 24.9497 57.622 25.955 57.622C26.9257 57.622 27.8097 57.388 28.607 56.92C29.4217 56.452 30.063 55.7847 30.531 54.918C30.999 54.0513 31.233 53.046 31.233 51.902ZM42.0959 59.208C40.4666 59.208 39.1319 58.8353 38.0919 58.09C37.0693 57.3273 36.4973 56.296 36.3759 54.996H38.2479C38.3346 55.7933 38.7073 56.4433 39.3659 56.946C40.0419 57.4313 40.9433 57.674 42.0699 57.674C43.0579 57.674 43.8293 57.44 44.3839 56.972C44.9559 56.504 45.2419 55.9233 45.2419 55.23C45.2419 54.7447 45.0859 54.346 44.7739 54.034C44.4619 53.722 44.0633 53.4793 43.5779 53.306C43.1099 53.1153 42.4686 52.916 41.6539 52.708C40.5966 52.4307 39.7386 52.1533 39.0799 51.876C38.4213 51.5987 37.8579 51.1913 37.3899 50.654C36.9393 50.0993 36.7139 49.3627 36.7139 48.444C36.7139 47.7507 36.9219 47.1093 37.3379 46.52C37.7539 45.9307 38.3433 45.4627 39.1059 45.116C39.8686 44.7693 40.7353 44.596 41.7059 44.596C43.2313 44.596 44.4619 44.986 45.3979 45.766C46.3339 46.5287 46.8366 47.586 46.9059 48.938H45.0859C45.0339 48.106 44.7046 47.4387 44.0979 46.936C43.5086 46.416 42.6939 46.156 41.6539 46.156C40.7353 46.156 39.9899 46.3727 39.4179 46.806C38.8459 47.2393 38.5599 47.7767 38.5599 48.418C38.5599 48.9727 38.7246 49.432 39.0539 49.796C39.4006 50.1427 39.8253 50.42 40.3279 50.628C40.8306 50.8187 41.5066 51.0353 42.3559 51.278C43.3786 51.5553 44.1933 51.824 44.7999 52.084C45.4066 52.344 45.9266 52.7253 46.3599 53.228C46.7933 53.7307 47.0186 54.398 47.0359 55.23C47.0359 55.9927 46.8279 56.6773 46.4119 57.284C45.9959 57.8733 45.4153 58.3413 44.6699 58.688C43.9246 59.0347 43.0666 59.208 42.0959 59.208ZM57.2218 44.544C58.2965 44.544 59.2585 44.7693 60.1078 45.22C60.9745 45.6707 61.6505 46.364 62.1358 47.3C62.6385 48.2187 62.8898 49.3453 62.8898 50.68V59H61.0958V50.888C61.0958 49.3453 60.7058 48.1667 59.9258 47.352C59.1632 46.5373 58.1145 46.13 56.7798 46.13C55.4105 46.13 54.3185 46.5633 53.5038 47.43C52.6892 48.2967 52.2818 49.5707 52.2818 51.252V59H50.4618V39.76H52.2818V47.222C52.7325 46.3727 53.3912 45.714 54.2578 45.246C55.1418 44.778 56.1298 44.544 57.2218 44.544ZM67.825 42.126C67.461 42.126 67.149 41.996 66.889 41.736C66.629 41.476 66.499 41.1553 66.499 40.774C66.499 40.3927 66.629 40.0807 66.889 39.838C67.149 39.578 67.461 39.448 67.825 39.448C68.189 39.448 68.501 39.578 68.761 39.838C69.021 40.0807 69.151 40.3927 69.151 40.774C69.151 41.1553 69.021 41.476 68.761 41.736C68.501 41.996 68.189 42.126 67.825 42.126ZM68.735 44.804V59H66.915V44.804H68.735ZM79.0704 59.208C77.7357 59.208 76.531 58.9133 75.4564 58.324C74.399 57.7173 73.5584 56.868 72.9344 55.776C72.3277 54.6667 72.0244 53.3753 72.0244 51.902C72.0244 50.4287 72.3364 49.146 72.9604 48.054C73.5844 46.9447 74.4337 46.0953 75.5084 45.506C76.583 44.8993 77.7877 44.596 79.1224 44.596C80.457 44.596 81.6617 44.8993 82.7364 45.506C83.8284 46.0953 84.6777 46.9447 85.2844 48.054C85.9084 49.146 86.2204 50.4287 86.2204 51.902C86.2204 53.358 85.9084 54.6407 85.2844 55.75C84.6604 56.8593 83.8024 57.7173 82.7104 58.324C81.6184 58.9133 80.405 59.208 79.0704 59.208ZM79.0704 57.622C80.0064 57.622 80.873 57.414 81.6704 56.998C82.4677 56.5647 83.109 55.9233 83.5944 55.074C84.097 54.2073 84.3484 53.15 84.3484 51.902C84.3484 50.654 84.1057 49.6053 83.6204 48.756C83.135 47.8893 82.4937 47.248 81.6964 46.832C80.899 46.3987 80.0324 46.182 79.0964 46.182C78.1604 46.182 77.2937 46.3987 76.4964 46.832C75.699 47.248 75.0577 47.8893 74.5724 48.756C74.1044 49.6053 73.8704 50.654 73.8704 51.902C73.8704 53.15 74.1044 54.2073 74.5724 55.074C75.0577 55.9233 75.6904 56.5647 76.4704 56.998C77.2677 57.414 78.1344 57.622 79.0704 57.622ZM96.194 44.544C97.8927 44.544 99.2793 45.0727 100.354 46.13C101.429 47.17 101.966 48.6867 101.966 50.68V59H100.172V50.888C100.172 49.3453 99.782 48.1667 99.002 47.352C98.2393 46.5373 97.1907 46.13 95.856 46.13C94.4867 46.13 93.3947 46.5633 92.58 47.43C91.7653 48.2967 91.358 49.5707 91.358 51.252V59H89.538V44.804H91.358V47.222C91.8087 46.3553 92.4587 45.6967 93.308 45.246C94.1573 44.778 95.1193 44.544 96.194 44.544ZM119.782 44.544C121.481 44.544 122.867 45.0727 123.942 46.13C125.017 47.17 125.554 48.6867 125.554 50.68V59H123.76V50.888C123.76 49.3453 123.37 48.1667 122.59 47.352C121.827 46.5373 120.779 46.13 119.444 46.13C118.075 46.13 116.983 46.5633 116.168 47.43C115.353 48.2967 114.946 49.5707 114.946 51.252V59H113.126V44.804H114.946V47.222C115.397 46.3553 116.047 45.6967 116.896 45.246C117.745 44.778 118.707 44.544 119.782 44.544ZM135.793 59.208C134.458 59.208 133.254 58.9133 132.179 58.324C131.122 57.7173 130.281 56.868 129.657 55.776C129.05 54.6667 128.747 53.3753 128.747 51.902C128.747 50.4287 129.059 49.146 129.683 48.054C130.307 46.9447 131.156 46.0953 132.231 45.506C133.306 44.8993 134.51 44.596 135.845 44.596C137.18 44.596 138.384 44.8993 139.459 45.506C140.551 46.0953 141.4 46.9447 142.007 48.054C142.631 49.146 142.943 50.4287 142.943 51.902C142.943 53.358 142.631 54.6407 142.007 55.75C141.383 56.8593 140.525 57.7173 139.433 58.324C138.341 58.9133 137.128 59.208 135.793 59.208ZM135.793 57.622C136.729 57.622 137.596 57.414 138.393 56.998C139.19 56.5647 139.832 55.9233 140.317 55.074C140.82 54.2073 141.071 53.15 141.071 51.902C141.071 50.654 140.828 49.6053 140.343 48.756C139.858 47.8893 139.216 47.248 138.419 46.832C137.622 46.3987 136.755 46.182 135.819 46.182C134.883 46.182 134.016 46.3987 133.219 46.832C132.422 47.248 131.78 47.8893 131.295 48.756C130.827 49.6053 130.593 50.654 130.593 51.902C130.593 53.15 130.827 54.2073 131.295 55.074C131.78 55.9233 132.413 56.5647 133.193 56.998C133.99 57.414 134.857 57.622 135.793 57.622ZM148.081 47.326C148.479 46.442 149.086 45.7573 149.901 45.272C150.733 44.7867 151.747 44.544 152.943 44.544V46.442H152.449C151.131 46.442 150.074 46.7973 149.277 47.508C148.479 48.2187 148.081 49.406 148.081 51.07V59H146.261V44.804H148.081V47.326ZM172.581 44.544C174.245 44.544 175.597 45.0727 176.637 46.13C177.694 47.17 178.223 48.6867 178.223 50.68V59H176.429V50.888C176.429 49.3453 176.056 48.1667 175.311 47.352C174.565 46.5373 173.551 46.13 172.269 46.13C170.934 46.13 169.868 46.572 169.071 47.456C168.273 48.34 167.875 49.6227 167.875 51.304V59H166.081V50.888C166.081 49.3453 165.708 48.1667 164.963 47.352C164.217 46.5373 163.195 46.13 161.895 46.13C160.56 46.13 159.494 46.572 158.697 47.456C157.899 48.34 157.501 49.6227 157.501 51.304V59H155.681V44.804H157.501V47.248C157.951 46.364 158.593 45.6967 159.425 45.246C160.257 44.778 161.184 44.544 162.207 44.544C163.437 44.544 164.512 44.8387 165.431 45.428C166.367 46.0173 167.043 46.884 167.459 48.028C167.84 46.9013 168.49 46.0433 169.409 45.454C170.345 44.8473 171.402 44.544 172.581 44.544ZM187.153 59.208C185.523 59.208 184.189 58.8353 183.149 58.09C182.126 57.3273 181.554 56.296 181.433 54.996H183.305C183.391 55.7933 183.764 56.4433 184.423 56.946C185.099 57.4313 186 57.674 187.127 57.674C188.115 57.674 188.886 57.44 189.441 56.972C190.013 56.504 190.299 55.9233 190.299 55.23C190.299 54.7447 190.143 54.346 189.831 54.034C189.519 53.722 189.12 53.4793 188.635 53.306C188.167 53.1153 187.525 52.916 186.711 52.708C185.653 52.4307 184.795 52.1533 184.137 51.876C183.478 51.5987 182.915 51.1913 182.447 50.654C181.996 50.0993 181.771 49.3627 181.771 48.444C181.771 47.7507 181.979 47.1093 182.395 46.52C182.811 45.9307 183.4 45.4627 184.163 45.116C184.925 44.7693 185.792 44.596 186.763 44.596C188.288 44.596 189.519 44.986 190.455 45.766C191.391 46.5287 191.893 47.586 191.963 48.938H190.143C190.091 48.106 189.761 47.4387 189.155 46.936C188.565 46.416 187.751 46.156 186.711 46.156C185.792 46.156 185.047 46.3727 184.475 46.806C183.903 47.2393 183.617 47.7767 183.617 48.418C183.617 48.9727 183.781 49.432 184.111 49.796C184.457 50.1427 184.882 50.42 185.385 50.628C185.887 50.8187 186.563 51.0353 187.413 51.278C188.435 51.5553 189.25 51.824 189.857 52.084C190.463 52.344 190.983 52.7253 191.417 53.228C191.85 53.7307 192.075 54.398 192.093 55.23C192.093 55.9927 191.885 56.6773 191.469 57.284C191.053 57.8733 190.472 58.3413 189.727 58.688C188.981 59.0347 188.123 59.208 187.153 59.208ZM203.563 42.126C203.199 42.126 202.887 41.996 202.627 41.736C202.367 41.476 202.237 41.1553 202.237 40.774C202.237 40.3927 202.367 40.0807 202.627 39.838C202.887 39.578 203.199 39.448 203.563 39.448C203.927 39.448 204.239 39.578 204.499 39.838C204.759 40.0807 204.889 40.3927 204.889 40.774C204.889 41.1553 204.759 41.476 204.499 41.736C204.239 41.996 203.927 42.126 203.563 42.126ZM204.473 44.804V59H202.653V44.804H204.473ZM215.251 44.544C216.949 44.544 218.336 45.0727 219.411 46.13C220.485 47.17 221.023 48.6867 221.023 50.68V59H219.229V50.888C219.229 49.3453 218.839 48.1667 218.059 47.352C217.296 46.5373 216.247 46.13 214.913 46.13C213.543 46.13 212.451 46.5633 211.637 47.43C210.822 48.2967 210.415 49.5707 210.415 51.252V59H208.595V44.804H210.415V47.222C210.865 46.3553 211.515 45.6967 212.365 45.246C213.214 44.778 214.176 44.544 215.251 44.544ZM227.414 46.338V55.152C227.414 56.0187 227.578 56.6167 227.908 56.946C228.237 57.2753 228.818 57.44 229.65 57.44H231.314V59H229.364C228.081 59 227.128 58.7053 226.504 58.116C225.88 57.5093 225.568 56.5213 225.568 55.152V46.338H223.592V44.804H225.568V41.242H227.414V44.804H231.314V46.338H227.414ZM240.529 59.208C239.195 59.208 237.99 58.9133 236.915 58.324C235.858 57.7173 235.017 56.868 234.393 55.776C233.787 54.6667 233.483 53.3753 233.483 51.902C233.483 50.4287 233.795 49.146 234.419 48.054C235.043 46.9447 235.893 46.0953 236.967 45.506C238.042 44.8993 239.247 44.596 240.581 44.596C241.916 44.596 243.121 44.8993 244.195 45.506C245.287 46.0953 246.137 46.9447 246.743 48.054C247.367 49.146 247.679 50.4287 247.679 51.902C247.679 53.358 247.367 54.6407 246.743 55.75C246.119 56.8593 245.261 57.7173 244.169 58.324C243.077 58.9133 241.864 59.208 240.529 59.208ZM240.529 57.622C241.465 57.622 242.332 57.414 243.129 56.998C243.927 56.5647 244.568 55.9233 245.053 55.074C245.556 54.2073 245.807 53.15 245.807 51.902C245.807 50.654 245.565 49.6053 245.079 48.756C244.594 47.8893 243.953 47.248 243.155 46.832C242.358 46.3987 241.491 46.182 240.555 46.182C239.619 46.182 238.753 46.3987 237.955 46.832C237.158 47.248 236.517 47.8893 236.031 48.756C235.563 49.6053 235.329 50.654 235.329 51.902C235.329 53.15 235.563 54.2073 236.031 55.074C236.517 55.9233 237.149 56.5647 237.929 56.998C238.727 57.414 239.593 57.622 240.529 57.622ZM257.3 51.876C257.3 50.42 257.586 49.146 258.158 48.054C258.747 46.9447 259.553 46.0953 260.576 45.506C261.616 44.8993 262.786 44.596 264.086 44.596C265.438 44.596 266.599 44.908 267.57 45.532C268.558 46.156 269.268 46.9533 269.702 47.924V44.804H271.522V59H269.702V55.854C269.251 56.8247 268.532 57.6307 267.544 58.272C266.573 58.896 265.412 59.208 264.06 59.208C262.777 59.208 261.616 58.9047 260.576 58.298C259.553 57.6913 258.747 56.8333 258.158 55.724C257.586 54.6147 257.3 53.332 257.3 51.876ZM269.702 51.902C269.702 50.758 269.468 49.7527 269 48.886C268.532 48.0193 267.89 47.352 267.076 46.884C266.278 46.416 265.394 46.182 264.424 46.182C263.418 46.182 262.517 46.4073 261.72 46.858C260.922 47.3087 260.29 47.9673 259.822 48.834C259.371 49.6833 259.146 50.6973 259.146 51.876C259.146 53.0373 259.371 54.06 259.822 54.944C260.29 55.8107 260.922 56.478 261.72 56.946C262.517 57.3967 263.418 57.622 264.424 57.622C265.394 57.622 266.278 57.388 267.076 56.92C267.89 56.452 268.532 55.7847 269 54.918C269.468 54.0513 269.702 53.046 269.702 51.902ZM288.401 46.338H285.099V59H283.279V46.338H281.303V44.804H283.279V43.816C283.279 42.2733 283.669 41.138 284.449 40.41C285.247 39.682 286.529 39.318 288.297 39.318V40.878C287.119 40.878 286.287 41.1033 285.801 41.554C285.333 42.0047 285.099 42.7587 285.099 43.816V44.804H288.401V46.338ZM297.481 59.208C296.146 59.208 294.941 58.9133 293.867 58.324C292.809 57.7173 291.969 56.868 291.345 55.776C290.738 54.6667 290.435 53.3753 290.435 51.902C290.435 50.4287 290.747 49.146 291.371 48.054C291.995 46.9447 292.844 46.0953 293.919 45.506C294.993 44.8993 296.198 44.596 297.533 44.596C298.867 44.596 300.072 44.8993 301.147 45.506C302.239 46.0953 303.088 46.9447 303.695 48.054C304.319 49.146 304.631 50.4287 304.631 51.902C304.631 53.358 304.319 54.6407 303.695 55.75C303.071 56.8593 302.213 57.7173 301.121 58.324C300.029 58.9133 298.815 59.208 297.481 59.208ZM297.481 57.622C298.417 57.622 299.283 57.414 300.081 56.998C300.878 56.5647 301.519 55.9233 302.005 55.074C302.507 54.2073 302.759 53.15 302.759 51.902C302.759 50.654 302.516 49.6053 302.031 48.756C301.545 47.8893 300.904 47.248 300.107 46.832C299.309 46.3987 298.443 46.182 297.507 46.182C296.571 46.182 295.704 46.3987 294.907 46.832C294.109 47.248 293.468 47.8893 292.983 48.756C292.515 49.6053 292.281 50.654 292.281 51.902C292.281 53.15 292.515 54.2073 292.983 55.074C293.468 55.9233 294.101 56.5647 294.881 56.998C295.678 57.414 296.545 57.622 297.481 57.622ZM309.768 47.326C310.167 46.442 310.773 45.7573 311.588 45.272C312.42 44.7867 313.434 44.544 314.63 44.544V46.442H314.136C312.819 46.442 311.761 46.7973 310.964 47.508C310.167 48.2187 309.768 49.406 309.768 51.07V59H307.948V44.804H309.768V47.326ZM334.268 44.544C335.932 44.544 337.284 45.0727 338.324 46.13C339.381 47.17 339.91 48.6867 339.91 50.68V59H338.116V50.888C338.116 49.3453 337.743 48.1667 336.998 47.352C336.253 46.5373 335.239 46.13 333.956 46.13C332.621 46.13 331.555 46.572 330.758 47.456C329.961 48.34 329.562 49.6227 329.562 51.304V59H327.768V50.888C327.768 49.3453 327.395 48.1667 326.65 47.352C325.905 46.5373 324.882 46.13 323.582 46.13C322.247 46.13 321.181 46.572 320.384 47.456C319.587 48.34 319.188 49.6227 319.188 51.304V59H317.368V44.804H319.188V47.248C319.639 46.364 320.28 45.6967 321.112 45.246C321.944 44.778 322.871 44.544 323.894 44.544C325.125 44.544 326.199 44.8387 327.118 45.428C328.054 46.0173 328.73 46.884 329.146 48.028C329.527 46.9013 330.177 46.0433 331.096 45.454C332.032 44.8473 333.089 44.544 334.268 44.544ZM39.7911 98.208C38.4564 98.208 37.2517 97.9133 36.1771 97.324C35.1197 96.7173 34.2791 95.868 33.6551 94.776C33.0484 93.6667 32.7451 92.3753 32.7451 90.902C32.7451 89.4287 33.0571 88.146 33.6811 87.054C34.3051 85.9447 35.1544 85.0953 36.2291 84.506C37.3037 83.8993 38.5084 83.596 39.8431 83.596C41.1777 83.596 42.3824 83.8993 43.4571 84.506C44.5491 85.0953 45.3984 85.9447 46.0051 87.054C46.6291 88.146 46.9411 89.4287 46.9411 90.902C46.9411 92.358 46.6291 93.6407 46.0051 94.75C45.3811 95.8593 44.5231 96.7173 43.4311 97.324C42.3391 97.9133 41.1257 98.208 39.7911 98.208ZM39.7911 96.622C40.7271 96.622 41.5937 96.414 42.3911 95.998C43.1884 95.5647 43.8297 94.9233 44.3151 94.074C44.8177 93.2073 45.0691 92.15 45.0691 90.902C45.0691 89.654 44.8264 88.6053 44.3411 87.756C43.8557 86.8893 43.2144 86.248 42.4171 85.832C41.6197 85.3987 40.7531 85.182 39.8171 85.182C38.8811 85.182 38.0144 85.3987 37.2171 85.832C36.4197 86.248 35.7784 86.8893 35.2931 87.756C34.8251 88.6053 34.5911 89.654 34.5911 90.902C34.5911 92.15 34.8251 93.2073 35.2931 94.074C35.7784 94.9233 36.4111 95.5647 37.1911 95.998C37.9884 96.414 38.8551 96.622 39.7911 96.622ZM55.8487 85.338H52.5467V98H50.7267V85.338H48.7507V83.804H50.7267V82.816C50.7267 81.2733 51.1167 80.138 51.8967 79.41C52.694 78.682 53.9767 78.318 55.7447 78.318V79.878C54.566 79.878 53.734 80.1033 53.2487 80.554C52.7807 81.0047 52.5467 81.7587 52.5467 82.816V83.804H55.8487V85.338ZM117.142 85.338V94.152C117.142 95.0187 117.307 95.6167 117.636 95.946C117.966 96.2753 118.546 96.44 119.378 96.44H121.042V98H119.092C117.81 98 116.856 97.7053 116.232 97.116C115.608 96.5093 115.296 95.5213 115.296 94.152V85.338H113.32V83.804H115.296V80.242H117.142V83.804H121.042V85.338H117.142ZM130.804 83.544C131.879 83.544 132.841 83.7693 133.69 84.22C134.557 84.6707 135.233 85.364 135.718 86.3C136.221 87.2187 136.472 88.3453 136.472 89.68V98H134.678V89.888C134.678 88.3453 134.288 87.1667 133.508 86.352C132.745 85.5373 131.697 85.13 130.362 85.13C128.993 85.13 127.901 85.5633 127.086 86.43C126.271 87.2967 125.864 88.5707 125.864 90.252V98H124.044V78.76H125.864V86.222C126.315 85.3727 126.973 84.714 127.84 84.246C128.724 83.778 129.712 83.544 130.804 83.544ZM139.665 90.876C139.665 89.42 139.951 88.146 140.523 87.054C141.112 85.9447 141.918 85.0953 142.941 84.506C143.981 83.8993 145.151 83.596 146.451 83.596C147.803 83.596 148.964 83.908 149.935 84.532C150.923 85.156 151.634 85.9533 152.067 86.924V83.804H153.887V98H152.067V94.854C151.616 95.8247 150.897 96.6307 149.909 97.272C148.938 97.896 147.777 98.208 146.425 98.208C145.142 98.208 143.981 97.9047 142.941 97.298C141.918 96.6913 141.112 95.8333 140.523 94.724C139.951 93.6147 139.665 92.332 139.665 90.876ZM152.067 90.902C152.067 89.758 151.833 88.7527 151.365 87.886C150.897 87.0193 150.256 86.352 149.441 85.884C148.644 85.416 147.76 85.182 146.789 85.182C145.784 85.182 144.882 85.4073 144.085 85.858C143.288 86.3087 142.655 86.9673 142.187 87.834C141.736 88.6833 141.511 89.6973 141.511 90.876C141.511 92.0373 141.736 93.06 142.187 93.944C142.655 94.8107 143.288 95.478 144.085 95.946C144.882 96.3967 145.784 96.622 146.789 96.622C147.76 96.622 148.644 96.388 149.441 95.92C150.256 95.452 150.897 94.7847 151.365 93.918C151.833 93.0513 152.067 92.046 152.067 90.902ZM160.408 85.338V94.152C160.408 95.0187 160.573 95.6167 160.902 95.946C161.231 96.2753 161.812 96.44 162.644 96.44H164.308V98H162.358C161.075 98 160.122 97.7053 159.498 97.116C158.874 96.5093 158.562 95.5213 158.562 94.152V85.338H156.586V83.804H158.562V80.242H160.408V83.804H164.308V85.338H160.408ZM176.238 86.924C176.689 85.9707 177.4 85.182 178.37 84.558C179.358 83.9167 180.528 83.596 181.88 83.596C183.163 83.596 184.316 83.8993 185.338 84.506C186.378 85.0953 187.184 85.9447 187.756 87.054C188.346 88.146 188.64 89.42 188.64 90.876C188.64 92.332 188.346 93.6147 187.756 94.724C187.184 95.8333 186.378 96.6913 185.338 97.298C184.316 97.9047 183.163 98.208 181.88 98.208C180.546 98.208 179.384 97.896 178.396 97.272C177.408 96.6307 176.689 95.8333 176.238 94.88V104.708H174.444V83.804H176.238V86.924ZM186.794 90.876C186.794 89.6973 186.56 88.6833 186.092 87.834C185.642 86.9673 185.018 86.3087 184.22 85.858C183.423 85.4073 182.522 85.182 181.516 85.182C180.546 85.182 179.653 85.416 178.838 85.884C178.041 86.352 177.408 87.0193 176.94 87.886C176.472 88.7527 176.238 89.758 176.238 90.902C176.238 92.046 176.472 93.0513 176.94 93.918C177.408 94.7847 178.041 95.452 178.838 95.92C179.653 96.388 180.546 96.622 181.516 96.622C182.522 96.622 183.423 96.3967 184.22 95.946C185.018 95.478 185.642 94.8107 186.092 93.944C186.56 93.06 186.794 92.0373 186.794 90.876ZM204.833 90.174C204.833 90.798 204.816 91.2747 204.781 91.604H193.003C193.055 92.6787 193.315 93.5973 193.783 94.36C194.251 95.1227 194.867 95.7033 195.629 96.102C196.392 96.4833 197.224 96.674 198.125 96.674C199.304 96.674 200.292 96.388 201.089 95.816C201.904 95.244 202.441 94.4727 202.701 93.502H204.625C204.279 94.8887 203.533 96.024 202.389 96.908C201.263 97.7747 199.841 98.208 198.125 98.208C196.791 98.208 195.595 97.9133 194.537 97.324C193.48 96.7173 192.648 95.868 192.041 94.776C191.452 93.6667 191.157 92.3753 191.157 90.902C191.157 89.4287 191.452 88.1373 192.041 87.028C192.631 85.9187 193.454 85.0693 194.511 84.48C195.569 83.8907 196.773 83.596 198.125 83.596C199.477 83.596 200.656 83.8907 201.661 84.48C202.684 85.0693 203.464 85.8667 204.001 86.872C204.556 87.86 204.833 88.9607 204.833 90.174ZM202.987 90.122C203.005 89.0647 202.788 88.1633 202.337 87.418C201.904 86.6727 201.306 86.1093 200.543 85.728C199.781 85.3467 198.949 85.156 198.047 85.156C196.695 85.156 195.543 85.5893 194.589 86.456C193.636 87.3227 193.107 88.5447 193.003 90.122H202.987ZM214.377 98.208C213.042 98.208 211.838 97.9133 210.763 97.324C209.706 96.7173 208.865 95.868 208.241 94.776C207.634 93.6667 207.331 92.3753 207.331 90.902C207.331 89.4287 207.643 88.146 208.267 87.054C208.891 85.9447 209.74 85.0953 210.815 84.506C211.89 83.8993 213.094 83.596 214.429 83.596C215.764 83.596 216.968 83.8993 218.043 84.506C219.135 85.0953 219.984 85.9447 220.591 87.054C221.215 88.146 221.527 89.4287 221.527 90.902C221.527 92.358 221.215 93.6407 220.591 94.75C219.967 95.8593 219.109 96.7173 218.017 97.324C216.925 97.9133 215.712 98.208 214.377 98.208ZM214.377 96.622C215.313 96.622 216.18 96.414 216.977 95.998C217.774 95.5647 218.416 94.9233 218.901 94.074C219.404 93.2073 219.655 92.15 219.655 90.902C219.655 89.654 219.412 88.6053 218.927 87.756C218.442 86.8893 217.8 86.248 217.003 85.832C216.206 85.3987 215.339 85.182 214.403 85.182C213.467 85.182 212.6 85.3987 211.803 85.832C211.006 86.248 210.364 86.8893 209.879 87.756C209.411 88.6053 209.177 89.654 209.177 90.902C209.177 92.15 209.411 93.2073 209.879 94.074C210.364 94.9233 210.997 95.5647 211.777 95.998C212.574 96.414 213.441 96.622 214.377 96.622ZM226.639 86.924C227.089 85.9707 227.8 85.182 228.771 84.558C229.759 83.9167 230.929 83.596 232.281 83.596C233.563 83.596 234.716 83.8993 235.739 84.506C236.779 85.0953 237.585 85.9447 238.157 87.054C238.746 88.146 239.041 89.42 239.041 90.876C239.041 92.332 238.746 93.6147 238.157 94.724C237.585 95.8333 236.779 96.6913 235.739 97.298C234.716 97.9047 233.563 98.208 232.281 98.208C230.946 98.208 229.785 97.896 228.797 97.272C227.809 96.6307 227.089 95.8333 226.639 94.88V104.708H224.845V83.804H226.639V86.924ZM237.195 90.876C237.195 89.6973 236.961 88.6833 236.493 87.834C236.042 86.9673 235.418 86.3087 234.621 85.858C233.823 85.4073 232.922 85.182 231.917 85.182C230.946 85.182 230.053 85.416 229.239 85.884C228.441 86.352 227.809 87.0193 227.341 87.886C226.873 88.7527 226.639 89.758 226.639 90.902C226.639 92.046 226.873 93.0513 227.341 93.918C227.809 94.7847 228.441 95.452 229.239 95.92C230.053 96.388 230.946 96.622 231.917 96.622C232.922 96.622 233.823 96.3967 234.621 95.946C235.418 95.478 236.042 94.8107 236.493 93.944C236.961 93.06 237.195 92.0373 237.195 90.876ZM244.21 78.76V98H242.39V78.76H244.21ZM261.175 90.174C261.175 90.798 261.158 91.2747 261.123 91.604H249.345C249.397 92.6787 249.657 93.5973 250.125 94.36C250.593 95.1227 251.208 95.7033 251.971 96.102C252.734 96.4833 253.566 96.674 254.467 96.674C255.646 96.674 256.634 96.388 257.431 95.816C258.246 95.244 258.783 94.4727 259.043 93.502H260.967C260.62 94.8887 259.875 96.024 258.731 96.908C257.604 97.7747 256.183 98.208 254.467 98.208C253.132 98.208 251.936 97.9133 250.879 97.324C249.822 96.7173 248.99 95.868 248.383 94.776C247.794 93.6667 247.499 92.3753 247.499 90.902C247.499 89.4287 247.794 88.1373 248.383 87.028C248.972 85.9187 249.796 85.0693 250.853 84.48C251.91 83.8907 253.115 83.596 254.467 83.596C255.819 83.596 256.998 83.8907 258.003 84.48C259.026 85.0693 259.806 85.8667 260.343 86.872C260.898 87.86 261.175 88.9607 261.175 90.174ZM259.329 90.122C259.346 89.0647 259.13 88.1633 258.679 87.418C258.246 86.6727 257.648 86.1093 256.885 85.728C256.122 85.3467 255.29 85.156 254.389 85.156C253.037 85.156 251.884 85.5893 250.931 86.456C249.978 87.3227 249.449 88.5447 249.345 90.122H259.329ZM270.808 90.902C270.808 89.4287 271.102 88.146 271.692 87.054C272.281 85.9447 273.096 85.0953 274.136 84.506C275.176 83.8993 276.363 83.596 277.698 83.596C279.448 83.596 280.887 84.0293 282.014 84.896C283.158 85.7627 283.894 86.9413 284.224 88.432H282.274C282.031 87.4093 281.502 86.612 280.688 86.04C279.89 85.4507 278.894 85.156 277.698 85.156C276.744 85.156 275.886 85.3727 275.124 85.806C274.361 86.2393 273.754 86.8893 273.304 87.756C272.87 88.6053 272.654 89.654 272.654 90.902C272.654 92.15 272.87 93.2073 273.304 94.074C273.754 94.9407 274.361 95.5907 275.124 96.024C275.886 96.4573 276.744 96.674 277.698 96.674C278.894 96.674 279.89 96.388 280.688 95.816C281.502 95.2267 282.031 94.412 282.274 93.372H284.224C283.894 94.828 283.158 95.998 282.014 96.882C280.87 97.766 279.431 98.208 277.698 98.208C276.363 98.208 275.176 97.9133 274.136 97.324C273.096 96.7173 272.281 95.868 271.692 94.776C271.102 93.6667 270.808 92.3753 270.808 90.902ZM286.753 90.876C286.753 89.42 287.039 88.146 287.611 87.054C288.2 85.9447 289.006 85.0953 290.029 84.506C291.069 83.8993 292.239 83.596 293.539 83.596C294.891 83.596 296.052 83.908 297.023 84.532C298.011 85.156 298.722 85.9533 299.155 86.924V83.804H300.975V98H299.155V94.854C298.704 95.8247 297.985 96.6307 296.997 97.272C296.026 97.896 294.865 98.208 293.513 98.208C292.23 98.208 291.069 97.9047 290.029 97.298C289.006 96.6913 288.2 95.8333 287.611 94.724C287.039 93.6147 286.753 92.332 286.753 90.876ZM299.155 90.902C299.155 89.758 298.921 88.7527 298.453 87.886C297.985 87.0193 297.344 86.352 296.529 85.884C295.732 85.416 294.848 85.182 293.877 85.182C292.872 85.182 291.97 85.4073 291.173 85.858C290.376 86.3087 289.743 86.9673 289.275 87.834C288.824 88.6833 288.599 89.6973 288.599 90.876C288.599 92.0373 288.824 93.06 289.275 93.944C289.743 94.8107 290.376 95.478 291.173 95.946C291.97 96.3967 292.872 96.622 293.877 96.622C294.848 96.622 295.732 96.388 296.529 95.92C297.344 95.452 297.985 94.7847 298.453 93.918C298.921 93.0513 299.155 92.046 299.155 90.902ZM311.786 83.544C313.484 83.544 314.871 84.0727 315.946 85.13C317.02 86.17 317.558 87.6867 317.558 89.68V98H315.764V89.888C315.764 88.3453 315.374 87.1667 314.594 86.352C313.831 85.5373 312.782 85.13 311.448 85.13C310.078 85.13 308.986 85.5633 308.172 86.43C307.357 87.2967 306.95 88.5707 306.95 90.252V98H305.13V83.804H306.95V86.222C307.4 85.3553 308.05 84.6967 308.9 84.246C309.749 83.778 310.711 83.544 311.786 83.544ZM97.2512 122.804L92.8052 137H90.9852L87.0592 125.092L83.1332 137H81.2872L76.8412 122.804H78.6872L82.2232 135.154L86.2012 122.804H88.0212L91.9472 135.18L95.4572 122.804H97.2512ZM112.576 129.174C112.576 129.798 112.559 130.275 112.524 130.604H100.746C100.798 131.679 101.058 132.597 101.526 133.36C101.994 134.123 102.61 134.703 103.372 135.102C104.135 135.483 104.967 135.674 105.868 135.674C107.047 135.674 108.035 135.388 108.832 134.816C109.647 134.244 110.184 133.473 110.444 132.502H112.368C112.022 133.889 111.276 135.024 110.132 135.908C109.006 136.775 107.584 137.208 105.868 137.208C104.534 137.208 103.338 136.913 102.28 136.324C101.223 135.717 100.391 134.868 99.7843 133.776C99.195 132.667 98.9003 131.375 98.9003 129.902C98.9003 128.429 99.195 127.137 99.7843 126.028C100.374 124.919 101.197 124.069 102.254 123.48C103.312 122.891 104.516 122.596 105.868 122.596C107.22 122.596 108.399 122.891 109.404 123.48C110.427 124.069 111.207 124.867 111.744 125.872C112.299 126.86 112.576 127.961 112.576 129.174ZM110.73 129.122C110.748 128.065 110.531 127.163 110.08 126.418C109.647 125.673 109.049 125.109 108.286 124.728C107.524 124.347 106.692 124.156 105.79 124.156C104.438 124.156 103.286 124.589 102.332 125.456C101.379 126.323 100.85 127.545 100.746 129.122H110.73ZM115.074 129.876C115.074 128.42 115.36 127.146 115.932 126.054C116.522 124.945 117.328 124.095 118.35 123.506C119.39 122.899 120.56 122.596 121.86 122.596C123.212 122.596 124.374 122.908 125.344 123.532C126.332 124.156 127.043 124.953 127.476 125.924V122.804H129.296V137H127.476V133.854C127.026 134.825 126.306 135.631 125.318 136.272C124.348 136.896 123.186 137.208 121.834 137.208C120.552 137.208 119.39 136.905 118.35 136.298C117.328 135.691 116.522 134.833 115.932 133.724C115.36 132.615 115.074 131.332 115.074 129.876ZM127.476 129.902C127.476 128.758 127.242 127.753 126.774 126.886C126.306 126.019 125.665 125.352 124.85 124.884C124.053 124.416 123.169 124.182 122.198 124.182C121.193 124.182 120.292 124.407 119.494 124.858C118.697 125.309 118.064 125.967 117.596 126.834C117.146 127.683 116.92 128.697 116.92 129.876C116.92 131.037 117.146 132.06 117.596 132.944C118.064 133.811 118.697 134.478 119.494 134.946C120.292 135.397 121.193 135.622 122.198 135.622C123.169 135.622 124.053 135.388 124.85 134.92C125.665 134.452 126.306 133.785 126.774 132.918C127.242 132.051 127.476 131.046 127.476 129.902ZM135.271 125.326C135.67 124.442 136.276 123.757 137.091 123.272C137.923 122.787 138.937 122.544 140.133 122.544V124.442H139.639C138.322 124.442 137.264 124.797 136.467 125.508C135.67 126.219 135.271 127.406 135.271 129.07V137H133.451V122.804H135.271V125.326ZM168.726 122.804L164.28 137H162.46L158.534 125.092L154.608 137H152.762L148.316 122.804H150.162L153.698 135.154L157.676 122.804H159.496L163.422 135.18L166.932 122.804H168.726ZM172.117 120.126C171.753 120.126 171.441 119.996 171.181 119.736C170.921 119.476 170.791 119.155 170.791 118.774C170.791 118.393 170.921 118.081 171.181 117.838C171.441 117.578 171.753 117.448 172.117 117.448C172.481 117.448 172.793 117.578 173.053 117.838C173.313 118.081 173.443 118.393 173.443 118.774C173.443 119.155 173.313 119.476 173.053 119.736C172.793 119.996 172.481 120.126 172.117 120.126ZM173.027 122.804V137H171.207V122.804H173.027ZM179.514 124.338V133.152C179.514 134.019 179.679 134.617 180.008 134.946C180.338 135.275 180.918 135.44 181.75 135.44H183.414V137H181.464C180.182 137 179.228 136.705 178.604 136.116C177.98 135.509 177.668 134.521 177.668 133.152V124.338H175.692V122.804H177.668V119.242H179.514V122.804H183.414V124.338H179.514ZM193.176 122.544C194.251 122.544 195.213 122.769 196.062 123.22C196.929 123.671 197.605 124.364 198.09 125.3C198.593 126.219 198.844 127.345 198.844 128.68V137H197.05V128.888C197.05 127.345 196.66 126.167 195.88 125.352C195.117 124.537 194.069 124.13 192.734 124.13C191.365 124.13 190.273 124.563 189.458 125.43C188.643 126.297 188.236 127.571 188.236 129.252V137H186.416V117.76H188.236V125.222C188.687 124.373 189.345 123.714 190.212 123.246C191.096 122.778 192.084 122.544 193.176 122.544ZM211.798 125.924C212.248 124.971 212.959 124.182 213.93 123.558C214.918 122.917 216.088 122.596 217.44 122.596C218.722 122.596 219.875 122.899 220.898 123.506C221.938 124.095 222.744 124.945 223.316 126.054C223.905 127.146 224.2 128.42 224.2 129.876C224.2 131.332 223.905 132.615 223.316 133.724C222.744 134.833 221.938 135.691 220.898 136.298C219.875 136.905 218.722 137.208 217.44 137.208C216.105 137.208 214.944 136.896 213.956 136.272C212.968 135.631 212.248 134.833 211.798 133.88V143.708H210.004V122.804H211.798V125.924ZM222.354 129.876C222.354 128.697 222.12 127.683 221.652 126.834C221.201 125.967 220.577 125.309 219.78 124.858C218.982 124.407 218.081 124.182 217.076 124.182C216.105 124.182 215.212 124.416 214.398 124.884C213.6 125.352 212.968 126.019 212.5 126.886C212.032 127.753 211.798 128.758 211.798 129.902C211.798 131.046 212.032 132.051 212.5 132.918C212.968 133.785 213.6 134.452 214.398 134.92C215.212 135.388 216.105 135.622 217.076 135.622C218.081 135.622 218.982 135.397 219.78 134.946C220.577 134.478 221.201 133.811 221.652 132.944C222.12 132.06 222.354 131.037 222.354 129.876ZM229.369 125.326C229.767 124.442 230.374 123.757 231.189 123.272C232.021 122.787 233.035 122.544 234.231 122.544V124.442H233.737C232.419 124.442 231.362 124.797 230.565 125.508C229.767 126.219 229.369 127.406 229.369 129.07V137H227.549V122.804H229.369V125.326ZM237.879 120.126C237.515 120.126 237.203 119.996 236.943 119.736C236.683 119.476 236.553 119.155 236.553 118.774C236.553 118.393 236.683 118.081 236.943 117.838C237.203 117.578 237.515 117.448 237.879 117.448C238.243 117.448 238.555 117.578 238.815 117.838C239.075 118.081 239.205 118.393 239.205 118.774C239.205 119.155 239.075 119.476 238.815 119.736C238.555 119.996 238.243 120.126 237.879 120.126ZM238.789 122.804V137H236.969V122.804H238.789ZM242.078 129.876C242.078 128.42 242.373 127.146 242.962 126.054C243.551 124.945 244.357 124.095 245.38 123.506C246.42 122.899 247.59 122.596 248.89 122.596C250.138 122.596 251.265 122.899 252.27 123.506C253.275 124.113 254.012 124.901 254.48 125.872V117.76H256.3V137H254.48V133.828C254.047 134.816 253.336 135.631 252.348 136.272C251.36 136.896 250.199 137.208 248.864 137.208C247.564 137.208 246.394 136.905 245.354 136.298C244.331 135.691 243.525 134.833 242.936 133.724C242.364 132.615 242.078 131.332 242.078 129.876ZM254.48 129.902C254.48 128.758 254.246 127.753 253.778 126.886C253.31 126.019 252.669 125.352 251.854 124.884C251.057 124.416 250.173 124.182 249.202 124.182C248.197 124.182 247.295 124.407 246.498 124.858C245.701 125.309 245.068 125.967 244.6 126.834C244.149 127.683 243.924 128.697 243.924 129.876C243.924 131.037 244.149 132.06 244.6 132.944C245.068 133.811 245.701 134.478 246.498 134.946C247.295 135.397 248.197 135.622 249.202 135.622C250.173 135.622 251.057 135.388 251.854 134.92C252.669 134.452 253.31 133.785 253.778 132.918C254.246 132.051 254.48 131.046 254.48 129.902ZM273.299 129.174C273.299 129.798 273.282 130.275 273.247 130.604H261.469C261.521 131.679 261.781 132.597 262.249 133.36C262.717 134.123 263.332 134.703 264.095 135.102C264.858 135.483 265.69 135.674 266.591 135.674C267.77 135.674 268.758 135.388 269.555 134.816C270.37 134.244 270.907 133.473 271.167 132.502H273.091C272.744 133.889 271.999 135.024 270.855 135.908C269.728 136.775 268.307 137.208 266.591 137.208C265.256 137.208 264.06 136.913 263.003 136.324C261.946 135.717 261.114 134.868 260.507 133.776C259.918 132.667 259.623 131.375 259.623 129.902C259.623 128.429 259.918 127.137 260.507 126.028C261.096 124.919 261.92 124.069 262.977 123.48C264.034 122.891 265.239 122.596 266.591 122.596C267.943 122.596 269.122 122.891 270.127 123.48C271.15 124.069 271.93 124.867 272.467 125.872C273.022 126.86 273.299 127.961 273.299 129.174ZM271.453 129.122C271.47 128.065 271.254 127.163 270.803 126.418C270.37 125.673 269.772 125.109 269.009 124.728C268.246 124.347 267.414 124.156 266.513 124.156C265.161 124.156 264.008 124.589 263.055 125.456C262.102 126.323 261.573 127.545 261.469 129.122H271.453Z" fill="white"/>
</svg>
