<svg width="154" height="236" viewBox="0 0 154 236" fill="none" xmlns="http://www.w3.org/2000/svg">
<path d="M18.7498 17.7257C24.4896 9.01698 35.8471 6.3938 45.4443 4.77065C57.0589 2.80578 68.9355 2.54701 80.6399 3.79075C92.4017 5.03952 104.009 7.9416 114.999 12.3387C120.007 14.3437 125.043 16.5826 129.56 19.5701C133.37 22.0902 137.207 25.462 138.807 29.8918C142.55 40.2513 132.973 48.8395 124.706 53.0054C114.61 58.0934 103.1 59.4352 91.9449 59.4754C79.6213 59.5206 67.3701 57.8873 55.0565 57.6511C48.7075 57.528 42.3509 57.802 36.0718 58.7995C30.8488 59.6286 25.6806 60.9804 20.9644 63.4428C16.6751 65.6815 12.7003 69.0006 10.5007 73.4077C8.15637 78.1063 7.94426 83.4758 9.41479 88.481C12.4582 98.8304 21.1767 106.579 30.5317 111.225C51.9981 121.891 76.4081 117.921 98.7758 112.798C104.928 111.388 111.057 109.821 117.256 108.622C122.909 107.529 128.901 106.848 134.533 108.411C142.827 110.71 147.885 118.067 149.413 126.291C151.006 134.854 148.592 143.595 143.142 150.309C136.75 158.181 127.507 163.151 117.96 166.05C95.1555 172.978 70.4409 168.571 47.9134 176.953C38.2813 180.536 29.0137 186.375 23.3612 195.217C18.3004 203.134 16.1583 213.265 18.4128 222.479C19.5213 227.009 21.7783 230.755 24.9416 234.117C26.5819 235.858 29.1934 233.225 27.5555 231.486C21.2989 224.841 20.5949 214.509 23.0167 206.114C25.8229 196.388 32.9335 189.109 41.6369 184.352C62.956 172.701 88.2872 176.473 111.329 171.912C130.244 168.169 151.406 156.528 153.792 135.258C154.751 126.728 152.397 117.484 146.555 111.084C143.371 107.597 139.147 105.228 134.568 104.18C128.646 102.825 122.522 103.479 116.622 104.607C103.966 107.022 91.5954 110.735 78.8423 112.677C67.5848 114.391 55.9927 114.75 44.8476 112.097C34.8234 109.713 24.7868 104.833 18.2106 96.6194C15.0523 92.6746 12.6205 87.6794 12.4857 82.5411C12.3583 77.6918 14.4879 73.3952 18.0582 70.2092C21.6434 67.0106 26.2923 65.1187 30.8712 63.9026C36.8882 62.3071 43.1374 61.7015 49.3416 61.5457C62.0022 61.2291 74.5955 62.8825 87.2386 63.1714C98.6235 63.4327 110.38 62.6437 121.111 58.513C130.354 54.9551 141.029 48.1912 142.845 37.5176C144.657 26.8691 136.218 19.1453 127.752 14.5372C117.531 8.97428 106.123 5.20031 94.7761 2.82337C83.1316 0.386136 71.1626 -0.498285 59.2909 0.268063C53.4487 0.644955 47.6214 1.40877 41.8816 2.56708C36.8383 3.58469 31.9398 5.02452 27.3759 7.44668C23.2763 9.62261 19.6636 12.8311 17.3167 16.8739C16.77 17.8186 18.1631 18.6152 18.7498 17.7257Z" fill="#E90074"/>
<path d="M26.4405 234.781C28.7099 232.085 30.8595 229.424 33.7807 227.399C35.1988 226.416 36.6893 225.54 38.2647 224.833C39.875 224.112 41.7201 223.808 43.0733 222.627C43.8972 221.909 43.4777 220.348 42.4166 220.127C40.4492 219.715 38.5194 220.678 36.7692 221.499C34.9666 222.343 33.2588 223.389 31.6859 224.612C28.6525 226.972 25.8263 229.952 24.3483 233.555C23.8714 234.716 25.659 235.708 26.4405 234.781Z" fill="#E90074"/>
<path d="M25.413 234.37C24.5467 232.194 22.4968 230.27 20.8915 228.619C19.1088 226.785 17.2189 225.101 15.2091 223.523C13.2417 221.981 11.2143 220.528 9.09466 219.207C6.92256 217.852 4.56322 216.259 1.99913 215.847C0.618471 215.624 -0.767189 217.302 0.496128 218.445C2.28125 220.064 4.53323 221.033 6.59299 222.242C8.72515 223.493 10.8074 224.85 12.8147 226.295C14.7596 227.694 16.6546 229.189 18.4896 230.732C19.4134 231.511 20.3123 232.318 21.2261 233.109C22.1299 233.89 22.9961 234.858 24.0547 235.421C24.6939 235.762 25.7326 235.177 25.413 234.37Z" fill="#E90074"/>
</svg>
