<svg width="355" height="144" viewBox="0 0 355 144" fill="none" xmlns="http://www.w3.org/2000/svg">
<path d="M29.3482 3.308V10.094H36.2382V11.602H29.3482V18.492H37.0182V20H27.5282V1.8H37.0182V3.308H29.3482ZM45.6484 18.232L50.4324 5.804H52.3564L46.6624 20H44.6084L38.9144 5.804H40.8644L45.6484 18.232ZM67.6672 12.174C67.6672 12.798 67.6498 13.2747 67.6152 13.604H55.8372C55.8892 14.6787 56.1492 15.5973 56.6172 16.36C57.0852 17.1227 57.7005 17.7033 58.4632 18.102C59.2258 18.4833 60.0578 18.674 60.9592 18.674C62.1378 18.674 63.1258 18.388 63.9232 17.816C64.7378 17.244 65.2752 16.4727 65.5352 15.502H67.4592C67.1125 16.8887 66.3672 18.024 65.2232 18.908C64.0965 19.7747 62.6752 20.208 60.9592 20.208C59.6245 20.208 58.4285 19.9133 57.3712 19.324C56.3138 18.7173 55.4818 17.868 54.8752 16.776C54.2858 15.6667 53.9912 14.3753 53.9912 12.902C53.9912 11.4287 54.2858 10.1373 54.8752 9.028C55.4645 7.91867 56.2878 7.06933 57.3452 6.48C58.4025 5.89067 59.6072 5.596 60.9592 5.596C62.3112 5.596 63.4898 5.89067 64.4952 6.48C65.5178 7.06933 66.2978 7.86667 66.8352 8.872C67.3898 9.86 67.6672 10.9607 67.6672 12.174ZM65.8212 12.122C65.8385 11.0647 65.6218 10.1633 65.1712 9.418C64.7378 8.67267 64.1398 8.10933 63.3772 7.728C62.6145 7.34667 61.7825 7.156 60.8812 7.156C59.5292 7.156 58.3765 7.58933 57.4232 8.456C56.4698 9.32267 55.9412 10.5447 55.8372 12.122H65.8212ZM72.817 8.326C73.2157 7.442 73.8223 6.75733 74.637 6.272C75.469 5.78667 76.483 5.544 77.679 5.544V7.442H77.185C75.8677 7.442 74.8103 7.79733 74.013 8.508C73.2157 9.21867 72.817 10.406 72.817 12.07V20H70.997V5.804H72.817V8.326ZM92.1169 5.804L83.6929 26.682H81.7949L84.5509 19.922L78.7269 5.804H80.7289L85.5649 17.92L90.2449 5.804H92.1169ZM103.514 8.924C103.964 7.97067 104.675 7.182 105.646 6.558C106.634 5.91667 107.804 5.596 109.156 5.596C110.438 5.596 111.591 5.89933 112.614 6.506C113.654 7.09533 114.46 7.94467 115.032 9.054C115.621 10.146 115.916 11.42 115.916 12.876C115.916 14.332 115.621 15.6147 115.032 16.724C114.46 17.8333 113.654 18.6913 112.614 19.298C111.591 19.9047 110.438 20.208 109.156 20.208C107.821 20.208 106.66 19.896 105.672 19.272C104.684 18.6307 103.964 17.8333 103.514 16.88V26.708H101.72V5.804H103.514V8.924ZM114.07 12.876C114.07 11.6973 113.836 10.6833 113.368 9.834C112.917 8.96733 112.293 8.30867 111.496 7.858C110.698 7.40733 109.797 7.182 108.792 7.182C107.821 7.182 106.928 7.416 106.114 7.884C105.316 8.352 104.684 9.01933 104.216 9.886C103.748 10.7527 103.514 11.758 103.514 12.902C103.514 14.046 103.748 15.0513 104.216 15.918C104.684 16.7847 105.316 17.452 106.114 17.92C106.928 18.388 107.821 18.622 108.792 18.622C109.797 18.622 110.698 18.3967 111.496 17.946C112.293 17.478 112.917 16.8107 113.368 15.944C113.836 15.06 114.07 14.0373 114.07 12.876ZM120.175 3.126C119.811 3.126 119.499 2.996 119.239 2.736C118.979 2.476 118.849 2.15533 118.849 1.774C118.849 1.39267 118.979 1.08067 119.239 0.837999C119.499 0.577999 119.811 0.447999 120.175 0.447999C120.539 0.447999 120.851 0.577999 121.111 0.837999C121.371 1.08067 121.501 1.39267 121.501 1.774C121.501 2.15533 121.371 2.476 121.111 2.736C120.851 2.996 120.539 3.126 120.175 3.126ZM121.085 5.804V20H119.265V5.804H121.085ZM138.05 12.174C138.05 12.798 138.033 13.2747 137.998 13.604H126.22C126.272 14.6787 126.532 15.5973 127 16.36C127.468 17.1227 128.083 17.7033 128.846 18.102C129.609 18.4833 130.441 18.674 131.342 18.674C132.521 18.674 133.509 18.388 134.306 17.816C135.121 17.244 135.658 16.4727 135.918 15.502H137.842C137.495 16.8887 136.75 18.024 135.606 18.908C134.479 19.7747 133.058 20.208 131.342 20.208C130.007 20.208 128.811 19.9133 127.754 19.324C126.697 18.7173 125.865 17.868 125.258 16.776C124.669 15.6667 124.374 14.3753 124.374 12.902C124.374 11.4287 124.669 10.1373 125.258 9.028C125.847 7.91867 126.671 7.06933 127.728 6.48C128.785 5.89067 129.99 5.596 131.342 5.596C132.694 5.596 133.873 5.89067 134.878 6.48C135.901 7.06933 136.681 7.86667 137.218 8.872C137.773 9.86 138.05 10.9607 138.05 12.174ZM136.204 12.122C136.221 11.0647 136.005 10.1633 135.554 9.418C135.121 8.67267 134.523 8.10933 133.76 7.728C132.997 7.34667 132.165 7.156 131.264 7.156C129.912 7.156 128.759 7.58933 127.806 8.456C126.853 9.32267 126.324 10.5447 126.22 12.122H136.204ZM140.548 12.902C140.548 11.4287 140.842 10.146 141.432 9.054C142.021 7.94467 142.836 7.09533 143.876 6.506C144.916 5.89933 146.103 5.596 147.438 5.596C149.188 5.596 150.627 6.02933 151.754 6.896C152.898 7.76267 153.634 8.94133 153.964 10.432H152.014C151.771 9.40933 151.242 8.612 150.428 8.04C149.63 7.45067 148.634 7.156 147.438 7.156C146.484 7.156 145.626 7.37267 144.864 7.806C144.101 8.23933 143.494 8.88933 143.044 9.756C142.61 10.6053 142.394 11.654 142.394 12.902C142.394 14.15 142.61 15.2073 143.044 16.074C143.494 16.9407 144.101 17.5907 144.864 18.024C145.626 18.4573 146.484 18.674 147.438 18.674C148.634 18.674 149.63 18.388 150.428 17.816C151.242 17.2267 151.771 16.412 152.014 15.372H153.964C153.634 16.828 152.898 17.998 151.754 18.882C150.61 19.766 149.171 20.208 147.438 20.208C146.103 20.208 144.916 19.9133 143.876 19.324C142.836 18.7173 142.021 17.868 141.432 16.776C140.842 15.6667 140.548 14.3753 140.548 12.902ZM170.169 12.174C170.169 12.798 170.152 13.2747 170.117 13.604H158.339C158.391 14.6787 158.651 15.5973 159.119 16.36C159.587 17.1227 160.202 17.7033 160.965 18.102C161.728 18.4833 162.56 18.674 163.461 18.674C164.64 18.674 165.628 18.388 166.425 17.816C167.24 17.244 167.777 16.4727 168.037 15.502H169.961C169.614 16.8887 168.869 18.024 167.725 18.908C166.598 19.7747 165.177 20.208 163.461 20.208C162.126 20.208 160.93 19.9133 159.873 19.324C158.816 18.7173 157.984 17.868 157.377 16.776C156.788 15.6667 156.493 14.3753 156.493 12.902C156.493 11.4287 156.788 10.1373 157.377 9.028C157.966 7.91867 158.79 7.06933 159.847 6.48C160.904 5.89067 162.109 5.596 163.461 5.596C164.813 5.596 165.992 5.89067 166.997 6.48C168.02 7.06933 168.8 7.86667 169.337 8.872C169.892 9.86 170.169 10.9607 170.169 12.174ZM168.323 12.122C168.34 11.0647 168.124 10.1633 167.673 9.418C167.24 8.67267 166.642 8.10933 165.879 7.728C165.116 7.34667 164.284 7.156 163.383 7.156C162.031 7.156 160.878 7.58933 159.925 8.456C158.972 9.32267 158.443 10.5447 158.339 12.122H168.323ZM182.454 1.826V20H180.634V1.826H182.454ZM192.878 12.876C192.878 11.42 193.173 10.146 193.762 9.054C194.351 7.94467 195.157 7.09533 196.18 6.506C197.22 5.89933 198.39 5.596 199.69 5.596C200.938 5.596 202.065 5.89933 203.07 6.506C204.075 7.11267 204.812 7.90133 205.28 8.872V0.76H207.1V20H205.28V16.828C204.847 17.816 204.136 18.6307 203.148 19.272C202.16 19.896 200.999 20.208 199.664 20.208C198.364 20.208 197.194 19.9047 196.154 19.298C195.131 18.6913 194.325 17.8333 193.736 16.724C193.164 15.6147 192.878 14.332 192.878 12.876ZM205.28 12.902C205.28 11.758 205.046 10.7527 204.578 9.886C204.11 9.01933 203.469 8.352 202.654 7.884C201.857 7.416 200.973 7.182 200.002 7.182C198.997 7.182 198.095 7.40733 197.298 7.858C196.501 8.30867 195.868 8.96733 195.4 9.834C194.949 10.6833 194.724 11.6973 194.724 12.876C194.724 14.0373 194.949 15.06 195.4 15.944C195.868 16.8107 196.501 17.478 197.298 17.946C198.095 18.3967 198.997 18.622 200.002 18.622C200.973 18.622 201.857 18.388 202.654 17.92C203.469 17.452 204.11 16.7847 204.578 15.918C205.046 15.0513 205.28 14.046 205.28 12.902ZM224.099 12.174C224.099 12.798 224.081 13.2747 224.047 13.604H212.269C212.321 14.6787 212.581 15.5973 213.049 16.36C213.517 17.1227 214.132 17.7033 214.895 18.102C215.657 18.4833 216.489 18.674 217.391 18.674C218.569 18.674 219.557 18.388 220.355 17.816C221.169 17.244 221.707 16.4727 221.967 15.502H223.891C223.544 16.8887 222.799 18.024 221.655 18.908C220.528 19.7747 219.107 20.208 217.391 20.208C216.056 20.208 214.86 19.9133 213.803 19.324C212.745 18.7173 211.913 17.868 211.307 16.776C210.717 15.6667 210.423 14.3753 210.423 12.902C210.423 11.4287 210.717 10.1373 211.307 9.028C211.896 7.91867 212.719 7.06933 213.777 6.48C214.834 5.89067 216.039 5.596 217.391 5.596C218.743 5.596 219.921 5.89067 220.927 6.48C221.949 7.06933 222.729 7.86667 223.267 8.872C223.821 9.86 224.099 10.9607 224.099 12.174ZM222.253 12.122C222.27 11.0647 222.053 10.1633 221.603 9.418C221.169 8.67267 220.571 8.10933 219.809 7.728C219.046 7.34667 218.214 7.156 217.313 7.156C215.961 7.156 214.808 7.58933 213.855 8.456C212.901 9.32267 212.373 10.5447 212.269 12.122H222.253ZM232.317 20.208C230.687 20.208 229.353 19.8353 228.313 19.09C227.29 18.3273 226.718 17.296 226.597 15.996H228.469C228.555 16.7933 228.928 17.4433 229.587 17.946C230.263 18.4313 231.164 18.674 232.291 18.674C233.279 18.674 234.05 18.44 234.605 17.972C235.177 17.504 235.463 16.9233 235.463 16.23C235.463 15.7447 235.307 15.346 234.995 15.034C234.683 14.722 234.284 14.4793 233.799 14.306C233.331 14.1153 232.689 13.916 231.875 13.708C230.817 13.4307 229.959 13.1533 229.301 12.876C228.642 12.5987 228.079 12.1913 227.611 11.654C227.16 11.0993 226.935 10.3627 226.935 9.444C226.935 8.75067 227.143 8.10933 227.559 7.52C227.975 6.93067 228.564 6.46267 229.327 6.116C230.089 5.76933 230.956 5.596 231.927 5.596C233.452 5.596 234.683 5.986 235.619 6.766C236.555 7.52867 237.057 8.586 237.127 9.938H235.307C235.255 9.106 234.925 8.43867 234.319 7.936C233.729 7.416 232.915 7.156 231.875 7.156C230.956 7.156 230.211 7.37267 229.639 7.806C229.067 8.23933 228.781 8.77667 228.781 9.418C228.781 9.97267 228.945 10.432 229.275 10.796C229.621 11.1427 230.046 11.42 230.549 11.628C231.051 11.8187 231.727 12.0353 232.577 12.278C233.599 12.5553 234.414 12.824 235.021 13.084C235.627 13.344 236.147 13.7253 236.581 14.228C237.014 14.7307 237.239 15.398 237.257 16.23C237.257 16.9927 237.049 17.6773 236.633 18.284C236.217 18.8733 235.636 19.3413 234.891 19.688C234.145 20.0347 233.287 20.208 232.317 20.208ZM241.593 3.126C241.229 3.126 240.917 2.996 240.657 2.736C240.397 2.476 240.267 2.15533 240.267 1.774C240.267 1.39267 240.397 1.08067 240.657 0.837999C240.917 0.577999 241.229 0.447999 241.593 0.447999C241.957 0.447999 242.269 0.577999 242.529 0.837999C242.789 1.08067 242.919 1.39267 242.919 1.774C242.919 2.15533 242.789 2.476 242.529 2.736C242.269 2.996 241.957 3.126 241.593 3.126ZM242.503 5.804V20H240.683V5.804H242.503ZM252.578 5.596C253.913 5.596 255.074 5.908 256.062 6.532C257.05 7.156 257.761 7.94467 258.194 8.898V5.804H260.014V20.364C260.014 21.664 259.728 22.8167 259.156 23.822C258.601 24.8273 257.821 25.5987 256.816 26.136C255.811 26.6907 254.667 26.968 253.384 26.968C251.564 26.968 250.047 26.5347 248.834 25.668C247.638 24.8013 246.893 23.6227 246.598 22.132H248.392C248.704 23.12 249.293 23.9087 250.16 24.498C251.044 25.0873 252.119 25.382 253.384 25.382C254.303 25.382 255.126 25.1827 255.854 24.784C256.582 24.4027 257.154 23.8307 257.57 23.068C257.986 22.3053 258.194 21.404 258.194 20.364V16.854C257.743 17.8247 257.024 18.6307 256.036 19.272C255.065 19.896 253.913 20.208 252.578 20.208C251.278 20.208 250.108 19.9047 249.068 19.298C248.045 18.6913 247.239 17.8333 246.65 16.724C246.078 15.6147 245.792 14.332 245.792 12.876C245.792 11.42 246.078 10.146 246.65 9.054C247.239 7.94467 248.045 7.09533 249.068 6.506C250.108 5.89933 251.278 5.596 252.578 5.596ZM258.194 12.902C258.194 11.758 257.96 10.7527 257.492 9.886C257.024 9.01933 256.383 8.352 255.568 7.884C254.771 7.416 253.887 7.182 252.916 7.182C251.911 7.182 251.009 7.40733 250.212 7.858C249.415 8.30867 248.782 8.96733 248.314 9.834C247.863 10.6833 247.638 11.6973 247.638 12.876C247.638 14.0373 247.863 15.06 248.314 15.944C248.782 16.8107 249.415 17.478 250.212 17.946C251.009 18.3967 251.911 18.622 252.916 18.622C253.887 18.622 254.771 18.388 255.568 17.92C256.383 17.452 257.024 16.7847 257.492 15.918C257.96 15.0513 258.194 14.046 258.194 12.902ZM270.825 5.544C272.524 5.544 273.91 6.07267 274.985 7.13C276.06 8.17 276.597 9.68667 276.597 11.68V20H274.803V11.888C274.803 10.3453 274.413 9.16667 273.633 8.352C272.87 7.53733 271.822 7.13 270.487 7.13C269.118 7.13 268.026 7.56333 267.211 8.43C266.396 9.29667 265.989 10.5707 265.989 12.252V20H264.169V5.804H265.989V8.222C266.44 7.35533 267.09 6.69667 267.939 6.246C268.788 5.778 269.75 5.544 270.825 5.544ZM288.667 3.126C288.303 3.126 287.991 2.996 287.731 2.736C287.471 2.476 287.341 2.15533 287.341 1.774C287.341 1.39267 287.471 1.08067 287.731 0.837999C287.991 0.577999 288.303 0.447999 288.667 0.447999C289.031 0.447999 289.343 0.577999 289.603 0.837999C289.863 1.08067 289.993 1.39267 289.993 1.774C289.993 2.15533 289.863 2.476 289.603 2.736C289.343 2.996 289.031 3.126 288.667 3.126ZM289.577 5.804V20H287.757V5.804H289.577ZM298.586 20.208C296.957 20.208 295.622 19.8353 294.582 19.09C293.559 18.3273 292.987 17.296 292.866 15.996H294.738C294.825 16.7933 295.197 17.4433 295.856 17.946C296.532 18.4313 297.433 18.674 298.56 18.674C299.548 18.674 300.319 18.44 300.874 17.972C301.446 17.504 301.732 16.9233 301.732 16.23C301.732 15.7447 301.576 15.346 301.264 15.034C300.952 14.722 300.553 14.4793 300.068 14.306C299.6 14.1153 298.959 13.916 298.144 13.708C297.087 13.4307 296.229 13.1533 295.57 12.876C294.911 12.5987 294.348 12.1913 293.88 11.654C293.429 11.0993 293.204 10.3627 293.204 9.444C293.204 8.75067 293.412 8.10933 293.828 7.52C294.244 6.93067 294.833 6.46267 295.596 6.116C296.359 5.76933 297.225 5.596 298.196 5.596C299.721 5.596 300.952 5.986 301.888 6.766C302.824 7.52867 303.327 8.586 303.396 9.938H301.576C301.524 9.106 301.195 8.43867 300.588 7.936C299.999 7.416 299.184 7.156 298.144 7.156C297.225 7.156 296.48 7.37267 295.908 7.806C295.336 8.23933 295.05 8.77667 295.05 9.418C295.05 9.97267 295.215 10.432 295.544 10.796C295.891 11.1427 296.315 11.42 296.818 11.628C297.321 11.8187 297.997 12.0353 298.846 12.278C299.869 12.5553 300.683 12.824 301.29 13.084C301.897 13.344 302.417 13.7253 302.85 14.228C303.283 14.7307 303.509 15.398 303.526 16.23C303.526 16.9927 303.318 17.6773 302.902 18.284C302.486 18.8733 301.905 19.3413 301.16 19.688C300.415 20.0347 299.557 20.208 298.586 20.208ZM313.255 12.876C313.255 11.42 313.541 10.146 314.113 9.054C314.702 7.94467 315.508 7.09533 316.531 6.506C317.571 5.89933 318.741 5.596 320.041 5.596C321.393 5.596 322.554 5.908 323.525 6.532C324.513 7.156 325.224 7.95333 325.657 8.924V5.804H327.477V20H325.657V16.854C325.206 17.8247 324.487 18.6307 323.499 19.272C322.528 19.896 321.367 20.208 320.015 20.208C318.732 20.208 317.571 19.9047 316.531 19.298C315.508 18.6913 314.702 17.8333 314.113 16.724C313.541 15.6147 313.255 14.332 313.255 12.876ZM325.657 12.902C325.657 11.758 325.423 10.7527 324.955 9.886C324.487 9.01933 323.846 8.352 323.031 7.884C322.234 7.416 321.35 7.182 320.379 7.182C319.374 7.182 318.472 7.40733 317.675 7.858C316.878 8.30867 316.245 8.96733 315.777 9.834C315.326 10.6833 315.101 11.6973 315.101 12.876C315.101 14.0373 315.326 15.06 315.777 15.944C316.245 16.8107 316.878 17.478 317.675 17.946C318.472 18.3967 319.374 18.622 320.379 18.622C321.35 18.622 322.234 18.388 323.031 17.92C323.846 17.452 324.487 16.7847 324.955 15.918C325.423 15.0513 325.657 14.046 325.657 12.902ZM12.0712 51.902C12.0712 50.4287 12.3659 49.146 12.9552 48.054C13.5446 46.9447 14.3592 46.0953 15.3992 45.506C16.4392 44.8993 17.6266 44.596 18.9612 44.596C20.7119 44.596 22.1506 45.0293 23.2772 45.896C24.4212 46.7627 25.1579 47.9413 25.4872 49.432H23.5372C23.2946 48.4093 22.7659 47.612 21.9512 47.04C21.1539 46.4507 20.1572 46.156 18.9612 46.156C18.0079 46.156 17.1499 46.3727 16.3872 46.806C15.6246 47.2393 15.0179 47.8893 14.5672 48.756C14.1339 49.6053 13.9172 50.654 13.9172 51.902C13.9172 53.15 14.1339 54.2073 14.5672 55.074C15.0179 55.9407 15.6246 56.5907 16.3872 57.024C17.1499 57.4573 18.0079 57.674 18.9612 57.674C20.1572 57.674 21.1539 57.388 21.9512 56.816C22.7659 56.2267 23.2946 55.412 23.5372 54.372H25.4872C25.1579 55.828 24.4212 56.998 23.2772 57.882C22.1332 58.766 20.6946 59.208 18.9612 59.208C17.6266 59.208 16.4392 58.9133 15.3992 58.324C14.3592 57.7173 13.5446 56.868 12.9552 55.776C12.3659 54.6667 12.0712 53.3753 12.0712 51.902ZM28.0166 51.876C28.0166 50.42 28.3026 49.146 28.8746 48.054C29.4639 46.9447 30.2699 46.0953 31.2926 45.506C32.3326 44.8993 33.5026 44.596 34.8026 44.596C36.1546 44.596 37.3159 44.908 38.2866 45.532C39.2746 46.156 39.9852 46.9533 40.4186 47.924V44.804H42.2386V59H40.4186V55.854C39.9679 56.8247 39.2486 57.6307 38.2606 58.272C37.2899 58.896 36.1286 59.208 34.7766 59.208C33.4939 59.208 32.3326 58.9047 31.2926 58.298C30.2699 57.6913 29.4639 56.8333 28.8746 55.724C28.3026 54.6147 28.0166 53.332 28.0166 51.876ZM40.4186 51.902C40.4186 50.758 40.1846 49.7527 39.7166 48.886C39.2486 48.0193 38.6072 47.352 37.7926 46.884C36.9952 46.416 36.1112 46.182 35.1406 46.182C34.1352 46.182 33.2339 46.4073 32.4366 46.858C31.6392 47.3087 31.0066 47.9673 30.5386 48.834C30.0879 49.6833 29.8626 50.6973 29.8626 51.876C29.8626 53.0373 30.0879 54.06 30.5386 54.944C31.0066 55.8107 31.6392 56.478 32.4366 56.946C33.2339 57.3967 34.1352 57.622 35.1406 57.622C36.1112 57.622 36.9952 57.388 37.7926 56.92C38.6072 56.452 39.2486 55.7847 39.7166 54.918C40.1846 54.0513 40.4186 53.046 40.4186 51.902ZM53.0495 44.544C54.7481 44.544 56.1348 45.0727 57.2095 46.13C58.2841 47.17 58.8215 48.6867 58.8215 50.68V59H57.0275V50.888C57.0275 49.3453 56.6375 48.1667 55.8575 47.352C55.0948 46.5373 54.0461 46.13 52.7115 46.13C51.3421 46.13 50.2501 46.5633 49.4355 47.43C48.6208 48.2967 48.2135 49.5707 48.2135 51.252V59H46.3935V44.804H48.2135V47.222C48.6641 46.3553 49.3141 45.6967 50.1635 45.246C51.0128 44.778 51.9748 44.544 53.0495 44.544ZM67.8906 57.232L72.6746 44.804H74.5986L68.9046 59H66.8506L61.1566 44.804H63.1066L67.8906 57.232ZM76.2334 51.876C76.2334 50.42 76.5194 49.146 77.0914 48.054C77.6807 46.9447 78.4867 46.0953 79.5094 45.506C80.5494 44.8993 81.7194 44.596 83.0194 44.596C84.3714 44.596 85.5327 44.908 86.5034 45.532C87.4914 46.156 88.202 46.9533 88.6354 47.924V44.804H90.4554V59H88.6354V55.854C88.1847 56.8247 87.4654 57.6307 86.4774 58.272C85.5067 58.896 84.3454 59.208 82.9934 59.208C81.7107 59.208 80.5494 58.9047 79.5094 58.298C78.4867 57.6913 77.6807 56.8333 77.0914 55.724C76.5194 54.6147 76.2334 53.332 76.2334 51.876ZM88.6354 51.902C88.6354 50.758 88.4014 49.7527 87.9334 48.886C87.4654 48.0193 86.824 47.352 86.0094 46.884C85.212 46.416 84.328 46.182 83.3574 46.182C82.352 46.182 81.4507 46.4073 80.6534 46.858C79.856 47.3087 79.2234 47.9673 78.7554 48.834C78.3047 49.6833 78.0794 50.6973 78.0794 51.876C78.0794 53.0373 78.3047 54.06 78.7554 54.944C79.2234 55.8107 79.856 56.478 80.6534 56.946C81.4507 57.3967 82.352 57.622 83.3574 57.622C84.328 57.622 85.212 57.388 86.0094 56.92C86.824 56.452 87.4654 55.7847 87.9334 54.918C88.4014 54.0513 88.6354 53.046 88.6354 51.902ZM99.4983 59.208C97.8689 59.208 96.5343 58.8353 95.4943 58.09C94.4716 57.3273 93.8996 56.296 93.7783 54.996H95.6503C95.7369 55.7933 96.1096 56.4433 96.7683 56.946C97.4443 57.4313 98.3456 57.674 99.4723 57.674C100.46 57.674 101.232 57.44 101.786 56.972C102.358 56.504 102.644 55.9233 102.644 55.23C102.644 54.7447 102.488 54.346 102.176 54.034C101.864 53.722 101.466 53.4793 100.98 53.306C100.512 53.1153 99.8709 52.916 99.0563 52.708C97.9989 52.4307 97.1409 52.1533 96.4823 51.876C95.8236 51.5987 95.2603 51.1913 94.7923 50.654C94.3416 50.0993 94.1163 49.3627 94.1163 48.444C94.1163 47.7507 94.3243 47.1093 94.7403 46.52C95.1563 45.9307 95.7456 45.4627 96.5083 45.116C97.2709 44.7693 98.1376 44.596 99.1083 44.596C100.634 44.596 101.864 44.986 102.8 45.766C103.736 46.5287 104.239 47.586 104.308 48.938H102.488C102.436 48.106 102.107 47.4387 101.5 46.936C100.911 46.416 100.096 46.156 99.0563 46.156C98.1376 46.156 97.3923 46.3727 96.8203 46.806C96.2483 47.2393 95.9623 47.7767 95.9623 48.418C95.9623 48.9727 96.1269 49.432 96.4563 49.796C96.8029 50.1427 97.2276 50.42 97.7303 50.628C98.2329 50.8187 98.9089 51.0353 99.7583 51.278C100.781 51.5553 101.596 51.824 102.202 52.084C102.809 52.344 103.329 52.7253 103.762 53.228C104.196 53.7307 104.421 54.398 104.438 55.23C104.438 55.9927 104.23 56.6773 103.814 57.284C103.398 57.8733 102.818 58.3413 102.072 58.688C101.327 59.0347 100.469 59.208 99.4983 59.208ZM109.528 55.984L106.824 62.796H105.576L107.5 55.984H109.528ZM118.661 51.876C118.661 50.42 118.947 49.146 119.519 48.054C120.108 46.9447 120.914 46.0953 121.937 45.506C122.977 44.8993 124.147 44.596 125.447 44.596C126.799 44.596 127.96 44.908 128.931 45.532C129.919 46.156 130.63 46.9533 131.063 47.924V44.804H132.883V59H131.063V55.854C130.612 56.8247 129.893 57.6307 128.905 58.272C127.934 58.896 126.773 59.208 125.421 59.208C124.138 59.208 122.977 58.9047 121.937 58.298C120.914 57.6913 120.108 56.8333 119.519 55.724C118.947 54.6147 118.661 53.332 118.661 51.876ZM131.063 51.902C131.063 50.758 130.829 49.7527 130.361 48.886C129.893 48.0193 129.252 47.352 128.437 46.884C127.64 46.416 126.756 46.182 125.785 46.182C124.78 46.182 123.878 46.4073 123.081 46.858C122.284 47.3087 121.651 47.9673 121.183 48.834C120.732 49.6833 120.507 50.6973 120.507 51.876C120.507 53.0373 120.732 54.06 121.183 54.944C121.651 55.8107 122.284 56.478 123.081 56.946C123.878 57.3967 124.78 57.622 125.785 57.622C126.756 57.622 127.64 57.388 128.437 56.92C129.252 56.452 129.893 55.7847 130.361 54.918C130.829 54.0513 131.063 53.046 131.063 51.902ZM156.471 44.804V59H154.651V56.504C154.235 57.388 153.593 58.064 152.727 58.532C151.86 59 150.889 59.234 149.815 59.234C148.116 59.234 146.729 58.714 145.655 57.674C144.58 56.6167 144.043 55.0913 144.043 53.098V44.804H145.837V52.89C145.837 54.4327 146.218 55.6113 146.981 56.426C147.761 57.2407 148.818 57.648 150.153 57.648C151.522 57.648 152.614 57.2147 153.429 56.348C154.243 55.4813 154.651 54.2073 154.651 52.526V44.804H156.471ZM167.282 44.544C168.981 44.544 170.367 45.0727 171.442 46.13C172.517 47.17 173.054 48.6867 173.054 50.68V59H171.26V50.888C171.26 49.3453 170.87 48.1667 170.09 47.352C169.327 46.5373 168.279 46.13 166.944 46.13C165.575 46.13 164.483 46.5633 163.668 47.43C162.853 48.2967 162.446 49.5707 162.446 51.252V59H160.626V44.804H162.446V47.222C162.897 46.3553 163.547 45.6967 164.396 45.246C165.245 44.778 166.207 44.544 167.282 44.544ZM177.989 42.126C177.625 42.126 177.313 41.996 177.053 41.736C176.793 41.476 176.663 41.1553 176.663 40.774C176.663 40.3927 176.793 40.0807 177.053 39.838C177.313 39.578 177.625 39.448 177.989 39.448C178.353 39.448 178.665 39.578 178.925 39.838C179.185 40.0807 179.315 40.3927 179.315 40.774C179.315 41.1553 179.185 41.476 178.925 41.736C178.665 41.996 178.353 42.126 177.989 42.126ZM178.899 44.804V59H177.079V44.804H178.899ZM182.188 51.876C182.188 50.42 182.483 49.146 183.072 48.054C183.662 46.9447 184.468 46.0953 185.49 45.506C186.53 44.8993 187.7 44.596 189 44.596C190.335 44.596 191.496 44.9167 192.484 45.558C193.472 46.182 194.174 46.9707 194.59 47.924V44.804H196.41V65.708H194.59V55.88C194.174 56.8333 193.464 57.6307 192.458 58.272C191.47 58.896 190.3 59.208 188.948 59.208C187.666 59.208 186.504 58.9047 185.464 58.298C184.442 57.6913 183.636 56.8333 183.046 55.724C182.474 54.6147 182.188 53.332 182.188 51.876ZM194.59 51.902C194.59 50.758 194.356 49.7527 193.888 48.886C193.42 48.0193 192.779 47.352 191.964 46.884C191.167 46.416 190.283 46.182 189.312 46.182C188.307 46.182 187.406 46.4073 186.608 46.858C185.811 47.3087 185.178 47.9673 184.71 48.834C184.26 49.6833 184.034 50.6973 184.034 51.876C184.034 53.0373 184.26 54.06 184.71 54.944C185.178 55.8107 185.811 56.478 186.608 56.946C187.406 57.3967 188.307 57.622 189.312 57.622C190.283 57.622 191.167 57.388 191.964 56.92C192.779 56.452 193.42 55.7847 193.888 54.918C194.356 54.0513 194.59 53.046 194.59 51.902ZM212.863 44.804V59H211.043V56.504C210.627 57.388 209.986 58.064 209.119 58.532C208.253 59 207.282 59.234 206.207 59.234C204.509 59.234 203.122 58.714 202.047 57.674C200.973 56.6167 200.435 55.0913 200.435 53.098V44.804H202.229V52.89C202.229 54.4327 202.611 55.6113 203.373 56.426C204.153 57.2407 205.211 57.648 206.545 57.648C207.915 57.648 209.007 57.2147 209.821 56.348C210.636 55.4813 211.043 54.2073 211.043 52.526V44.804H212.863ZM229.862 51.174C229.862 51.798 229.845 52.2747 229.81 52.604H218.032C218.084 53.6787 218.344 54.5973 218.812 55.36C219.28 56.1227 219.896 56.7033 220.658 57.102C221.421 57.4833 222.253 57.674 223.154 57.674C224.333 57.674 225.321 57.388 226.118 56.816C226.933 56.244 227.47 55.4727 227.73 54.502H229.654C229.308 55.8887 228.562 57.024 227.418 57.908C226.292 58.7747 224.87 59.208 223.154 59.208C221.82 59.208 220.624 58.9133 219.566 58.324C218.509 57.7173 217.677 56.868 217.07 55.776C216.481 54.6667 216.186 53.3753 216.186 51.902C216.186 50.4287 216.481 49.1373 217.07 48.028C217.66 46.9187 218.483 46.0693 219.54 45.48C220.598 44.8907 221.802 44.596 223.154 44.596C224.506 44.596 225.685 44.8907 226.69 45.48C227.713 46.0693 228.493 46.8667 229.03 47.872C229.585 48.86 229.862 49.9607 229.862 51.174ZM228.016 51.122C228.034 50.0647 227.817 49.1633 227.366 48.418C226.933 47.6727 226.335 47.1093 225.572 46.728C224.81 46.3467 223.978 46.156 223.076 46.156C221.724 46.156 220.572 46.5893 219.618 47.456C218.665 48.3227 218.136 49.5447 218.032 51.122H228.016ZM242.121 47.95C242.589 46.962 243.308 46.156 244.279 45.532C245.267 44.908 246.428 44.596 247.763 44.596C249.063 44.596 250.224 44.8993 251.247 45.506C252.27 46.0953 253.067 46.9447 253.639 48.054C254.228 49.146 254.523 50.42 254.523 51.876C254.523 53.332 254.228 54.6147 253.639 55.724C253.067 56.8333 252.261 57.6913 251.221 58.298C250.198 58.9047 249.046 59.208 247.763 59.208C246.411 59.208 245.241 58.9047 244.253 58.298C243.282 57.674 242.572 56.868 242.121 55.88V59H240.327V39.76H242.121V47.95ZM252.677 51.876C252.677 50.6973 252.443 49.6833 251.975 48.834C251.524 47.9673 250.9 47.3087 250.103 46.858C249.306 46.4073 248.404 46.182 247.399 46.182C246.428 46.182 245.536 46.416 244.721 46.884C243.924 47.352 243.291 48.0193 242.823 48.886C242.355 49.7527 242.121 50.758 242.121 51.902C242.121 53.046 242.355 54.0513 242.823 54.918C243.291 55.7847 243.924 56.452 244.721 56.92C245.536 57.388 246.428 57.622 247.399 57.622C248.404 57.622 249.306 57.3967 250.103 56.946C250.9 56.478 251.524 55.8107 251.975 54.944C252.443 54.06 252.677 53.0373 252.677 51.876ZM259.692 39.76V59H257.872V39.76H259.692ZM276.657 51.174C276.657 51.798 276.64 52.2747 276.605 52.604H264.827C264.879 53.6787 265.139 54.5973 265.607 55.36C266.075 56.1227 266.691 56.7033 267.453 57.102C268.216 57.4833 269.048 57.674 269.949 57.674C271.128 57.674 272.116 57.388 272.913 56.816C273.728 56.244 274.265 55.4727 274.525 54.502H276.449C276.103 55.8887 275.357 57.024 274.213 57.908C273.087 58.7747 271.665 59.208 269.949 59.208C268.615 59.208 267.419 58.9133 266.361 58.324C265.304 57.7173 264.472 56.868 263.865 55.776C263.276 54.6667 262.981 53.3753 262.981 51.902C262.981 50.4287 263.276 49.1373 263.865 48.028C264.455 46.9187 265.278 46.0693 266.335 45.48C267.393 44.8907 268.597 44.596 269.949 44.596C271.301 44.596 272.48 44.8907 273.485 45.48C274.508 46.0693 275.288 46.8667 275.825 47.872C276.38 48.86 276.657 49.9607 276.657 51.174ZM274.811 51.122C274.829 50.0647 274.612 49.1633 274.161 48.418C273.728 47.6727 273.13 47.1093 272.367 46.728C271.605 46.3467 270.773 46.156 269.871 46.156C268.519 46.156 267.367 46.5893 266.413 47.456C265.46 48.3227 264.931 49.5447 264.827 51.122H274.811ZM286.643 44.544C288.342 44.544 289.729 45.0727 290.803 46.13C291.878 47.17 292.415 48.6867 292.415 50.68V59H290.621V50.888C290.621 49.3453 290.231 48.1667 289.451 47.352C288.689 46.5373 287.64 46.13 286.305 46.13C284.936 46.13 283.844 46.5633 283.029 47.43C282.215 48.2967 281.807 49.5707 281.807 51.252V59H279.987V44.804H281.807V47.222C282.258 46.3553 282.908 45.6967 283.757 45.246C284.607 44.778 285.569 44.544 286.643 44.544ZM295.608 51.876C295.608 50.42 295.903 49.146 296.492 48.054C297.082 46.9447 297.888 46.0953 298.91 45.506C299.95 44.8993 301.12 44.596 302.42 44.596C303.668 44.596 304.795 44.8993 305.8 45.506C306.806 46.1127 307.542 46.9013 308.01 47.872V39.76H309.83V59H308.01V55.828C307.577 56.816 306.866 57.6307 305.878 58.272C304.89 58.896 303.729 59.208 302.394 59.208C301.094 59.208 299.924 58.9047 298.884 58.298C297.862 57.6913 297.056 56.8333 296.466 55.724C295.894 54.6147 295.608 53.332 295.608 51.876ZM308.01 51.902C308.01 50.758 307.776 49.7527 307.308 48.886C306.84 48.0193 306.199 47.352 305.384 46.884C304.587 46.416 303.703 46.182 302.732 46.182C301.727 46.182 300.826 46.4073 300.028 46.858C299.231 47.3087 298.598 47.9673 298.13 48.834C297.68 49.6833 297.454 50.6973 297.454 51.876C297.454 53.0373 297.68 54.06 298.13 54.944C298.598 55.8107 299.231 56.478 300.028 56.946C300.826 57.3967 301.727 57.622 302.732 57.622C303.703 57.622 304.587 57.388 305.384 56.92C306.199 56.452 306.84 55.7847 307.308 54.918C307.776 54.0513 308.01 53.046 308.01 51.902ZM327.334 59.208C325.999 59.208 324.795 58.9133 323.72 58.324C322.663 57.7173 321.822 56.868 321.198 55.776C320.591 54.6667 320.288 53.3753 320.288 51.902C320.288 50.4287 320.6 49.146 321.224 48.054C321.848 46.9447 322.697 46.0953 323.772 45.506C324.847 44.8993 326.051 44.596 327.386 44.596C328.721 44.596 329.925 44.8993 331 45.506C332.092 46.0953 332.941 46.9447 333.548 48.054C334.172 49.146 334.484 50.4287 334.484 51.902C334.484 53.358 334.172 54.6407 333.548 55.75C332.924 56.8593 332.066 57.7173 330.974 58.324C329.882 58.9133 328.669 59.208 327.334 59.208ZM327.334 57.622C328.27 57.622 329.137 57.414 329.934 56.998C330.731 56.5647 331.373 55.9233 331.858 55.074C332.361 54.2073 332.612 53.15 332.612 51.902C332.612 50.654 332.369 49.6053 331.884 48.756C331.399 47.8893 330.757 47.248 329.96 46.832C329.163 46.3987 328.296 46.182 327.36 46.182C326.424 46.182 325.557 46.3987 324.76 46.832C323.963 47.248 323.321 47.8893 322.836 48.756C322.368 49.6053 322.134 50.654 322.134 51.902C322.134 53.15 322.368 54.2073 322.836 55.074C323.321 55.9233 323.954 56.5647 324.734 56.998C325.531 57.414 326.398 57.622 327.334 57.622ZM343.392 46.338H340.09V59H338.27V46.338H336.294V44.804H338.27V43.816C338.27 42.2733 338.66 41.138 339.44 40.41C340.237 39.682 341.52 39.318 343.288 39.318V40.878C342.109 40.878 341.277 41.1033 340.792 41.554C340.324 42.0047 340.09 42.7587 340.09 43.816V44.804H343.392V46.338ZM0.721633 90.902C0.721633 89.4287 1.0163 88.146 1.60563 87.054C2.19497 85.9447 3.00963 85.0953 4.04963 84.506C5.08963 83.8993 6.27697 83.596 7.61163 83.596C9.3623 83.596 10.801 84.0293 11.9276 84.896C13.0716 85.7627 13.8083 86.9413 14.1376 88.432H12.1876C11.945 87.4093 11.4163 86.612 10.6016 86.04C9.8043 85.4507 8.80763 85.156 7.61163 85.156C6.6583 85.156 5.8003 85.3727 5.03763 85.806C4.27497 86.2393 3.6683 86.8893 3.21763 87.756C2.7843 88.6053 2.56763 89.654 2.56763 90.902C2.56763 92.15 2.7843 93.2073 3.21763 94.074C3.6683 94.9407 4.27497 95.5907 5.03763 96.024C5.8003 96.4573 6.6583 96.674 7.61163 96.674C8.80763 96.674 9.8043 96.388 10.6016 95.816C11.4163 95.2267 11.945 94.412 12.1876 93.372H14.1376C13.8083 94.828 13.0716 95.998 11.9276 96.882C10.7836 97.766 9.34497 98.208 7.61163 98.208C6.27697 98.208 5.08963 97.9133 4.04963 97.324C3.00963 96.7173 2.19497 95.868 1.60563 94.776C1.0163 93.6667 0.721633 92.3753 0.721633 90.902ZM23.7129 98.208C22.3783 98.208 21.1736 97.9133 20.0989 97.324C19.0416 96.7173 18.2009 95.868 17.5769 94.776C16.9703 93.6667 16.6669 92.3753 16.6669 90.902C16.6669 89.4287 16.9789 88.146 17.6029 87.054C18.2269 85.9447 19.0763 85.0953 20.1509 84.506C21.2256 83.8993 22.4303 83.596 23.7649 83.596C25.0996 83.596 26.3043 83.8993 27.3789 84.506C28.4709 85.0953 29.3203 85.9447 29.9269 87.054C30.5509 88.146 30.8629 89.4287 30.8629 90.902C30.8629 92.358 30.5509 93.6407 29.9269 94.75C29.3029 95.8593 28.4449 96.7173 27.3529 97.324C26.2609 97.9133 25.0476 98.208 23.7129 98.208ZM23.7129 96.622C24.6489 96.622 25.5156 96.414 26.3129 95.998C27.1103 95.5647 27.7516 94.9233 28.2369 94.074C28.7396 93.2073 28.9909 92.15 28.9909 90.902C28.9909 89.654 28.7483 88.6053 28.2629 87.756C27.7776 86.8893 27.1363 86.248 26.3389 85.832C25.5416 85.3987 24.6749 85.182 23.7389 85.182C22.8029 85.182 21.9363 85.3987 21.1389 85.832C20.3416 86.248 19.7003 86.8893 19.2149 87.756C18.7469 88.6053 18.5129 89.654 18.5129 90.902C18.5129 92.15 18.7469 93.2073 19.2149 94.074C19.7003 94.9233 20.3329 95.5647 21.1129 95.998C21.9103 96.414 22.7769 96.622 23.7129 96.622ZM36.0006 78.76V98H34.1806V78.76H36.0006ZM46.336 98.208C45.0013 98.208 43.7967 97.9133 42.722 97.324C41.6647 96.7173 40.824 95.868 40.2 94.776C39.5933 93.6667 39.29 92.3753 39.29 90.902C39.29 89.4287 39.602 88.146 40.226 87.054C40.85 85.9447 41.6993 85.0953 42.774 84.506C43.8487 83.8993 45.0533 83.596 46.388 83.596C47.7227 83.596 48.9273 83.8993 50.002 84.506C51.094 85.0953 51.9433 85.9447 52.55 87.054C53.174 88.146 53.486 89.4287 53.486 90.902C53.486 92.358 53.174 93.6407 52.55 94.75C51.926 95.8593 51.068 96.7173 49.976 97.324C48.884 97.9133 47.6707 98.208 46.336 98.208ZM46.336 96.622C47.272 96.622 48.1387 96.414 48.936 95.998C49.7333 95.5647 50.3747 94.9233 50.86 94.074C51.3627 93.2073 51.614 92.15 51.614 90.902C51.614 89.654 51.3713 88.6053 50.886 87.756C50.4007 86.8893 49.7593 86.248 48.962 85.832C48.1647 85.3987 47.298 85.182 46.362 85.182C45.426 85.182 44.5593 85.3987 43.762 85.832C42.9647 86.248 42.3233 86.8893 41.838 87.756C41.37 88.6053 41.136 89.654 41.136 90.902C41.136 92.15 41.37 93.2073 41.838 94.074C42.3233 94.9233 42.956 95.5647 43.736 95.998C44.5333 96.414 45.4 96.622 46.336 96.622ZM58.6236 86.326C59.0223 85.442 59.629 84.7573 60.4436 84.272C61.2756 83.7867 62.2896 83.544 63.4856 83.544V85.442H62.9916C61.6743 85.442 60.617 85.7973 59.8196 86.508C59.0223 87.2187 58.6236 88.406 58.6236 90.07V98H56.8036V83.804H58.6236V86.326ZM71.1116 98.208C69.4822 98.208 68.1476 97.8353 67.1076 97.09C66.0849 96.3273 65.5129 95.296 65.3916 93.996H67.2636C67.3502 94.7933 67.7229 95.4433 68.3816 95.946C69.0576 96.4313 69.9589 96.674 71.0856 96.674C72.0736 96.674 72.8449 96.44 73.3996 95.972C73.9716 95.504 74.2576 94.9233 74.2576 94.23C74.2576 93.7447 74.1016 93.346 73.7896 93.034C73.4776 92.722 73.0789 92.4793 72.5936 92.306C72.1256 92.1153 71.4842 91.916 70.6696 91.708C69.6122 91.4307 68.7542 91.1533 68.0956 90.876C67.4369 90.5987 66.8736 90.1913 66.4056 89.654C65.9549 89.0993 65.7296 88.3627 65.7296 87.444C65.7296 86.7507 65.9376 86.1093 66.3536 85.52C66.7696 84.9307 67.3589 84.4627 68.1216 84.116C68.8842 83.7693 69.7509 83.596 70.7216 83.596C72.2469 83.596 73.4776 83.986 74.4136 84.766C75.3496 85.5287 75.8522 86.586 75.9216 87.938H74.1016C74.0496 87.106 73.7202 86.4387 73.1136 85.936C72.5242 85.416 71.7096 85.156 70.6696 85.156C69.7509 85.156 69.0056 85.3727 68.4336 85.806C67.8616 86.2393 67.5756 86.7767 67.5756 87.418C67.5756 87.9727 67.7402 88.432 68.0696 88.796C68.4162 89.1427 68.8409 89.42 69.3436 89.628C69.8462 89.8187 70.5222 90.0353 71.3716 90.278C72.3942 90.5553 73.2089 90.824 73.8156 91.084C74.4222 91.344 74.9422 91.7253 75.3756 92.228C75.8089 92.7307 76.0342 93.398 76.0516 94.23C76.0516 94.9927 75.8436 95.6773 75.4276 96.284C75.0116 96.8733 74.4309 97.3413 73.6856 97.688C72.9402 98.0347 72.0822 98.208 71.1116 98.208ZM81.1415 94.984L78.4375 101.796H77.1895L79.1135 94.984H81.1415ZM95.9944 98.208C94.365 98.208 93.0304 97.8353 91.9904 97.09C90.9677 96.3273 90.3957 95.296 90.2744 93.996H92.1464C92.233 94.7933 92.6057 95.4433 93.2644 95.946C93.9404 96.4313 94.8417 96.674 95.9684 96.674C96.9564 96.674 97.7277 96.44 98.2824 95.972C98.8544 95.504 99.1404 94.9233 99.1404 94.23C99.1404 93.7447 98.9844 93.346 98.6724 93.034C98.3604 92.722 97.9617 92.4793 97.4764 92.306C97.0084 92.1153 96.367 91.916 95.5524 91.708C94.495 91.4307 93.637 91.1533 92.9784 90.876C92.3197 90.5987 91.7564 90.1913 91.2884 89.654C90.8377 89.0993 90.6124 88.3627 90.6124 87.444C90.6124 86.7507 90.8204 86.1093 91.2364 85.52C91.6524 84.9307 92.2417 84.4627 93.0044 84.116C93.767 83.7693 94.6337 83.596 95.6044 83.596C97.1297 83.596 98.3604 83.986 99.2964 84.766C100.232 85.5287 100.735 86.586 100.804 87.938H98.9844C98.9324 87.106 98.603 86.4387 97.9964 85.936C97.407 85.416 96.5924 85.156 95.5524 85.156C94.6337 85.156 93.8884 85.3727 93.3164 85.806C92.7444 86.2393 92.4584 86.7767 92.4584 87.418C92.4584 87.9727 92.623 88.432 92.9524 88.796C93.299 89.1427 93.7237 89.42 94.2264 89.628C94.729 89.8187 95.405 90.0353 96.2544 90.278C97.277 90.5553 98.0917 90.824 98.6984 91.084C99.305 91.344 99.825 91.7253 100.258 92.228C100.692 92.7307 100.917 93.398 100.934 94.23C100.934 94.9927 100.726 95.6773 100.31 96.284C99.8944 96.8733 99.3137 97.3413 98.5684 97.688C97.823 98.0347 96.965 98.208 95.9944 98.208ZM111.12 83.544C112.195 83.544 113.157 83.7693 114.006 84.22C114.873 84.6707 115.549 85.364 116.034 86.3C116.537 87.2187 116.788 88.3453 116.788 89.68V98H114.994V89.888C114.994 88.3453 114.604 87.1667 113.824 86.352C113.062 85.5373 112.013 85.13 110.678 85.13C109.309 85.13 108.217 85.5633 107.402 86.43C106.588 87.2967 106.18 88.5707 106.18 90.252V98H104.36V78.76H106.18V86.222C106.631 85.3727 107.29 84.714 108.156 84.246C109.04 83.778 110.028 83.544 111.12 83.544ZM119.981 90.876C119.981 89.42 120.267 88.146 120.839 87.054C121.429 85.9447 122.235 85.0953 123.257 84.506C124.297 83.8993 125.467 83.596 126.767 83.596C128.119 83.596 129.281 83.908 130.251 84.532C131.239 85.156 131.95 85.9533 132.383 86.924V83.804H134.203V98H132.383V94.854C131.933 95.8247 131.213 96.6307 130.225 97.272C129.255 97.896 128.093 98.208 126.741 98.208C125.459 98.208 124.297 97.9047 123.257 97.298C122.235 96.6913 121.429 95.8333 120.839 94.724C120.267 93.6147 119.981 92.332 119.981 90.876ZM132.383 90.902C132.383 89.758 132.149 88.7527 131.681 87.886C131.213 87.0193 130.572 86.352 129.757 85.884C128.96 85.416 128.076 85.182 127.105 85.182C126.1 85.182 125.199 85.4073 124.401 85.858C123.604 86.3087 122.971 86.9673 122.503 87.834C122.053 88.6833 121.827 89.6973 121.827 90.876C121.827 92.0373 122.053 93.06 122.503 93.944C122.971 94.8107 123.604 95.478 124.401 95.946C125.199 96.3967 126.1 96.622 127.105 96.622C128.076 96.622 128.96 96.388 129.757 95.92C130.572 95.452 131.213 94.7847 131.681 93.918C132.149 93.0513 132.383 92.046 132.383 90.902ZM140.152 86.924C140.603 85.9707 141.314 85.182 142.284 84.558C143.272 83.9167 144.442 83.596 145.794 83.596C147.077 83.596 148.23 83.8993 149.252 84.506C150.292 85.0953 151.098 85.9447 151.67 87.054C152.26 88.146 152.554 89.42 152.554 90.876C152.554 92.332 152.26 93.6147 151.67 94.724C151.098 95.8333 150.292 96.6913 149.252 97.298C148.23 97.9047 147.077 98.208 145.794 98.208C144.46 98.208 143.298 97.896 142.31 97.272C141.322 96.6307 140.603 95.8333 140.152 94.88V104.708H138.358V83.804H140.152V86.924ZM150.708 90.876C150.708 89.6973 150.474 88.6833 150.006 87.834C149.556 86.9673 148.932 86.3087 148.134 85.858C147.337 85.4073 146.436 85.182 145.43 85.182C144.46 85.182 143.567 85.416 142.752 85.884C141.955 86.352 141.322 87.0193 140.854 87.886C140.386 88.7527 140.152 89.758 140.152 90.902C140.152 92.046 140.386 93.0513 140.854 93.918C141.322 94.7847 141.955 95.452 142.752 95.92C143.567 96.388 144.46 96.622 145.43 96.622C146.436 96.622 147.337 96.3967 148.134 95.946C148.932 95.478 149.556 94.8107 150.006 93.944C150.474 93.06 150.708 92.0373 150.708 90.876ZM168.747 90.174C168.747 90.798 168.73 91.2747 168.695 91.604H156.917C156.969 92.6787 157.229 93.5973 157.697 94.36C158.165 95.1227 158.781 95.7033 159.543 96.102C160.306 96.4833 161.138 96.674 162.039 96.674C163.218 96.674 164.206 96.388 165.003 95.816C165.818 95.244 166.355 94.4727 166.615 93.502H168.539C168.193 94.8887 167.447 96.024 166.303 96.908C165.177 97.7747 163.755 98.208 162.039 98.208C160.705 98.208 159.509 97.9133 158.451 97.324C157.394 96.7173 156.562 95.868 155.955 94.776C155.366 93.6667 155.071 92.3753 155.071 90.902C155.071 89.4287 155.366 88.1373 155.955 87.028C156.545 85.9187 157.368 85.0693 158.425 84.48C159.483 83.8907 160.687 83.596 162.039 83.596C163.391 83.596 164.57 83.8907 165.575 84.48C166.598 85.0693 167.378 85.8667 167.915 86.872C168.47 87.86 168.747 88.9607 168.747 90.174ZM166.901 90.122C166.919 89.0647 166.702 88.1633 166.251 87.418C165.818 86.6727 165.22 86.1093 164.457 85.728C163.695 85.3467 162.863 85.156 161.961 85.156C160.609 85.156 159.457 85.5893 158.503 86.456C157.55 87.3227 157.021 88.5447 156.917 90.122H166.901ZM176.965 98.208C175.336 98.208 174.001 97.8353 172.961 97.09C171.938 96.3273 171.366 95.296 171.245 93.996H173.117C173.204 94.7933 173.576 95.4433 174.235 95.946C174.911 96.4313 175.812 96.674 176.939 96.674C177.927 96.674 178.698 96.44 179.253 95.972C179.825 95.504 180.111 94.9233 180.111 94.23C180.111 93.7447 179.955 93.346 179.643 93.034C179.331 92.722 178.932 92.4793 178.447 92.306C177.979 92.1153 177.338 91.916 176.523 91.708C175.466 91.4307 174.608 91.1533 173.949 90.876C173.29 90.5987 172.727 90.1913 172.259 89.654C171.808 89.0993 171.583 88.3627 171.583 87.444C171.583 86.7507 171.791 86.1093 172.207 85.52C172.623 84.9307 173.212 84.4627 173.975 84.116C174.738 83.7693 175.604 83.596 176.575 83.596C178.1 83.596 179.331 83.986 180.267 84.766C181.203 85.5287 181.706 86.586 181.775 87.938H179.955C179.903 87.106 179.574 86.4387 178.967 85.936C178.378 85.416 177.563 85.156 176.523 85.156C175.604 85.156 174.859 85.3727 174.287 85.806C173.715 86.2393 173.429 86.7767 173.429 87.418C173.429 87.9727 173.594 88.432 173.923 88.796C174.27 89.1427 174.694 89.42 175.197 89.628C175.7 89.8187 176.376 90.0353 177.225 90.278C178.248 90.5553 179.062 90.824 179.669 91.084C180.276 91.344 180.796 91.7253 181.229 92.228C181.662 92.7307 181.888 93.398 181.905 94.23C181.905 94.9927 181.697 95.6773 181.281 96.284C180.865 96.8733 180.284 97.3413 179.539 97.688C178.794 98.0347 177.936 98.208 176.965 98.208ZM186.995 94.984L184.291 101.796H183.043L184.967 94.984H186.995ZM196.128 90.876C196.128 89.42 196.414 88.146 196.986 87.054C197.575 85.9447 198.381 85.0953 199.404 84.506C200.444 83.8993 201.614 83.596 202.914 83.596C204.266 83.596 205.427 83.908 206.398 84.532C207.386 85.156 208.097 85.9533 208.53 86.924V83.804H210.35V98H208.53V94.854C208.079 95.8247 207.36 96.6307 206.372 97.272C205.401 97.896 204.24 98.208 202.888 98.208C201.605 98.208 200.444 97.9047 199.404 97.298C198.381 96.6913 197.575 95.8333 196.986 94.724C196.414 93.6147 196.128 92.332 196.128 90.876ZM208.53 90.902C208.53 89.758 208.296 88.7527 207.828 87.886C207.36 87.0193 206.719 86.352 205.904 85.884C205.107 85.416 204.223 85.182 203.252 85.182C202.247 85.182 201.345 85.4073 200.548 85.858C199.751 86.3087 199.118 86.9673 198.65 87.834C198.199 88.6833 197.974 89.6973 197.974 90.876C197.974 92.0373 198.199 93.06 198.65 93.944C199.118 94.8107 199.751 95.478 200.548 95.946C201.345 96.3967 202.247 96.622 203.252 96.622C204.223 96.622 205.107 96.388 205.904 95.92C206.719 95.452 207.36 94.7847 207.828 93.918C208.296 93.0513 208.53 92.046 208.53 90.902ZM221.161 83.544C222.859 83.544 224.246 84.0727 225.321 85.13C226.395 86.17 226.933 87.6867 226.933 89.68V98H225.139V89.888C225.139 88.3453 224.749 87.1667 223.969 86.352C223.206 85.5373 222.157 85.13 220.823 85.13C219.453 85.13 218.361 85.5633 217.547 86.43C216.732 87.2967 216.325 88.5707 216.325 90.252V98H214.505V83.804H216.325V86.222C216.775 85.3553 217.425 84.6967 218.275 84.246C219.124 83.778 220.086 83.544 221.161 83.544ZM230.126 90.876C230.126 89.42 230.421 88.146 231.01 87.054C231.599 85.9447 232.405 85.0953 233.428 84.506C234.468 83.8993 235.638 83.596 236.938 83.596C238.186 83.596 239.313 83.8993 240.318 84.506C241.323 85.1127 242.06 85.9013 242.528 86.872V78.76H244.348V98H242.528V94.828C242.095 95.816 241.384 96.6307 240.396 97.272C239.408 97.896 238.247 98.208 236.912 98.208C235.612 98.208 234.442 97.9047 233.402 97.298C232.379 96.6913 231.573 95.8333 230.984 94.724C230.412 93.6147 230.126 92.332 230.126 90.876ZM242.528 90.902C242.528 89.758 242.294 88.7527 241.826 87.886C241.358 87.0193 240.717 86.352 239.902 85.884C239.105 85.416 238.221 85.182 237.25 85.182C236.245 85.182 235.343 85.4073 234.546 85.858C233.749 86.3087 233.116 86.9673 232.648 87.834C232.197 88.6833 231.972 89.6973 231.972 90.876C231.972 92.0373 232.197 93.06 232.648 93.944C233.116 94.8107 233.749 95.478 234.546 95.946C235.343 96.3967 236.245 96.622 237.25 96.622C238.221 96.622 239.105 96.388 239.902 95.92C240.717 95.452 241.358 94.7847 241.826 93.918C242.294 93.0513 242.528 92.046 242.528 90.902ZM258.004 85.338V94.152C258.004 95.0187 258.168 95.6167 258.498 95.946C258.827 96.2753 259.408 96.44 260.24 96.44H261.904V98H259.954C258.671 98 257.718 97.7053 257.094 97.116C256.47 96.5093 256.158 95.5213 256.158 94.152V85.338H254.182V83.804H256.158V80.242H258.004V83.804H261.904V85.338H258.004ZM277.749 90.174C277.749 90.798 277.732 91.2747 277.697 91.604H265.919C265.971 92.6787 266.231 93.5973 266.699 94.36C267.167 95.1227 267.783 95.7033 268.545 96.102C269.308 96.4833 270.14 96.674 271.041 96.674C272.22 96.674 273.208 96.388 274.005 95.816C274.82 95.244 275.357 94.4727 275.617 93.502H277.541C277.195 94.8887 276.449 96.024 275.305 96.908C274.179 97.7747 272.757 98.208 271.041 98.208C269.707 98.208 268.511 97.9133 267.453 97.324C266.396 96.7173 265.564 95.868 264.957 94.776C264.368 93.6667 264.073 92.3753 264.073 90.902C264.073 89.4287 264.368 88.1373 264.957 87.028C265.547 85.9187 266.37 85.0693 267.427 84.48C268.485 83.8907 269.689 83.596 271.041 83.596C272.393 83.596 273.572 83.8907 274.577 84.48C275.6 85.0693 276.38 85.8667 276.917 86.872C277.472 87.86 277.749 88.9607 277.749 90.174ZM275.903 90.122C275.921 89.0647 275.704 88.1633 275.253 87.418C274.82 86.6727 274.222 86.1093 273.459 85.728C272.697 85.3467 271.865 85.156 270.963 85.156C269.611 85.156 268.459 85.5893 267.505 86.456C266.552 87.3227 266.023 88.5447 265.919 90.122H275.903ZM288.515 98L284.849 92.28L281.313 98H279.389L283.965 90.902L279.441 83.804H281.495L285.109 89.446L288.619 83.804H290.517L285.993 90.824L290.569 98H288.515ZM295.404 85.338V94.152C295.404 95.0187 295.569 95.6167 295.898 95.946C296.227 96.2753 296.808 96.44 297.64 96.44H299.304V98H297.354C296.071 98 295.118 97.7053 294.494 97.116C293.87 96.5093 293.558 95.5213 293.558 94.152V85.338H291.582V83.804H293.558V80.242H295.404V83.804H299.304V85.338H295.404ZM314.604 83.804V98H312.784V95.504C312.368 96.388 311.726 97.064 310.86 97.532C309.993 98 309.022 98.234 307.948 98.234C306.249 98.234 304.862 97.714 303.788 96.674C302.713 95.6167 302.176 94.0913 302.176 92.098V83.804H303.97V91.89C303.97 93.4327 304.351 94.6113 305.114 95.426C305.894 96.2407 306.951 96.648 308.286 96.648C309.655 96.648 310.747 96.2147 311.562 95.348C312.376 94.4813 312.784 93.2073 312.784 91.526V83.804H314.604ZM320.579 86.326C320.977 85.442 321.584 84.7573 322.399 84.272C323.231 83.7867 324.245 83.544 325.441 83.544V85.442H324.947C323.629 85.442 322.572 85.7973 321.775 86.508C320.977 87.2187 320.579 88.406 320.579 90.07V98H318.759V83.804H320.579V86.326ZM341.023 90.174C341.023 90.798 341.005 91.2747 340.971 91.604H329.193C329.245 92.6787 329.505 93.5973 329.973 94.36C330.441 95.1227 331.056 95.7033 331.819 96.102C332.581 96.4833 333.413 96.674 334.315 96.674C335.493 96.674 336.481 96.388 337.279 95.816C338.093 95.244 338.631 94.4727 338.891 93.502H340.815C340.468 94.8887 339.723 96.024 338.579 96.908C337.452 97.7747 336.031 98.208 334.315 98.208C332.98 98.208 331.784 97.9133 330.727 97.324C329.669 96.7173 328.837 95.868 328.231 94.776C327.641 93.6667 327.347 92.3753 327.347 90.902C327.347 89.4287 327.641 88.1373 328.231 87.028C328.82 85.9187 329.643 85.0693 330.701 84.48C331.758 83.8907 332.963 83.596 334.315 83.596C335.667 83.596 336.845 83.8907 337.851 84.48C338.873 85.0693 339.653 85.8667 340.191 86.872C340.745 87.86 341.023 88.9607 341.023 90.174ZM339.177 90.122C339.194 89.0647 338.977 88.1633 338.527 87.418C338.093 86.6727 337.495 86.1093 336.733 85.728C335.97 85.3467 335.138 85.156 334.237 85.156C332.885 85.156 331.732 85.5893 330.779 86.456C329.825 87.3227 329.297 88.5447 329.193 90.122H339.177ZM349.24 98.208C347.611 98.208 346.276 97.8353 345.236 97.09C344.214 96.3273 343.642 95.296 343.52 93.996H345.392C345.479 94.7933 345.852 95.4433 346.51 95.946C347.186 96.4313 348.088 96.674 349.214 96.674C350.202 96.674 350.974 96.44 351.528 95.972C352.1 95.504 352.386 94.9233 352.386 94.23C352.386 93.7447 352.23 93.346 351.918 93.034C351.606 92.722 351.208 92.4793 350.722 92.306C350.254 92.1153 349.613 91.916 348.798 91.708C347.741 91.4307 346.883 91.1533 346.224 90.876C345.566 90.5987 345.002 90.1913 344.534 89.654C344.084 89.0993 343.858 88.3627 343.858 87.444C343.858 86.7507 344.066 86.1093 344.482 85.52C344.898 84.9307 345.488 84.4627 346.25 84.116C347.013 83.7693 347.88 83.596 348.85 83.596C350.376 83.596 351.606 83.986 352.542 84.766C353.478 85.5287 353.981 86.586 354.05 87.938H352.23C352.178 87.106 351.849 86.4387 351.242 85.936C350.653 85.416 349.838 85.156 348.798 85.156C347.88 85.156 347.134 85.3727 346.562 85.806C345.99 86.2393 345.704 86.7767 345.704 87.418C345.704 87.9727 345.869 88.432 346.198 88.796C346.545 89.1427 346.97 89.42 347.472 89.628C347.975 89.8187 348.651 90.0353 349.5 90.278C350.523 90.5553 351.338 90.824 351.944 91.084C352.551 91.344 353.071 91.7253 353.504 92.228C353.938 92.7307 354.163 93.398 354.18 94.23C354.18 94.9927 353.972 95.6773 353.556 96.284C353.14 96.8733 352.56 97.3413 351.814 97.688C351.069 98.0347 350.211 98.208 349.24 98.208ZM83.7858 124.338V133.152C83.7858 134.019 83.9505 134.617 84.2798 134.946C84.6092 135.275 85.1898 135.44 86.0218 135.44H87.6858V137H85.7358C84.4532 137 83.4998 136.705 82.8758 136.116C82.2518 135.509 81.9398 134.521 81.9398 133.152V124.338H79.9638V122.804H81.9398V119.242H83.7858V122.804H87.6858V124.338H83.7858ZM97.4474 122.544C98.5221 122.544 99.4841 122.769 100.333 123.22C101.2 123.671 101.876 124.364 102.361 125.3C102.864 126.219 103.115 127.345 103.115 128.68V137H101.321V128.888C101.321 127.345 100.931 126.167 100.151 125.352C99.3888 124.537 98.3401 124.13 97.0054 124.13C95.6361 124.13 94.5441 124.563 93.7294 125.43C92.9148 126.297 92.5074 127.571 92.5074 129.252V137H90.6874V117.76H92.5074V125.222C92.9581 124.373 93.6168 123.714 94.4834 123.246C95.3674 122.778 96.3554 122.544 97.4474 122.544ZM106.309 129.876C106.309 128.42 106.595 127.146 107.167 126.054C107.756 124.945 108.562 124.095 109.585 123.506C110.625 122.899 111.795 122.596 113.095 122.596C114.447 122.596 115.608 122.908 116.579 123.532C117.567 124.156 118.277 124.953 118.711 125.924V122.804H120.531V137H118.711V133.854C118.26 134.825 117.541 135.631 116.553 136.272C115.582 136.896 114.421 137.208 113.069 137.208C111.786 137.208 110.625 136.905 109.585 136.298C108.562 135.691 107.756 134.833 107.167 133.724C106.595 132.615 106.309 131.332 106.309 129.876ZM118.711 129.902C118.711 128.758 118.477 127.753 118.009 126.886C117.541 126.019 116.899 125.352 116.085 124.884C115.287 124.416 114.403 124.182 113.433 124.182C112.427 124.182 111.526 124.407 110.729 124.858C109.931 125.309 109.299 125.967 108.831 126.834C108.38 127.683 108.155 128.697 108.155 129.876C108.155 131.037 108.38 132.06 108.831 132.944C109.299 133.811 109.931 134.478 110.729 134.946C111.526 135.397 112.427 135.622 113.433 135.622C114.403 135.622 115.287 135.388 116.085 134.92C116.899 134.452 117.541 133.785 118.009 132.918C118.477 132.051 118.711 131.046 118.711 129.902ZM127.051 124.338V133.152C127.051 134.019 127.216 134.617 127.545 134.946C127.875 135.275 128.455 135.44 129.287 135.44H130.951V137H129.001C127.719 137 126.765 136.705 126.141 136.116C125.517 135.509 125.205 134.521 125.205 133.152V124.338H123.229V122.804H125.205V119.242H127.051V122.804H130.951V124.338H127.051ZM143.454 124.338V133.152C143.454 134.019 143.618 134.617 143.948 134.946C144.277 135.275 144.858 135.44 145.69 135.44H147.354V137H145.404C144.121 137 143.168 136.705 142.544 136.116C141.92 135.509 141.608 134.521 141.608 133.152V124.338H139.632V122.804H141.608V119.242H143.454V122.804H147.354V124.338H143.454ZM163.199 129.174C163.199 129.798 163.182 130.275 163.147 130.604H151.369C151.421 131.679 151.681 132.597 152.149 133.36C152.617 134.123 153.233 134.703 153.995 135.102C154.758 135.483 155.59 135.674 156.491 135.674C157.67 135.674 158.658 135.388 159.455 134.816C160.27 134.244 160.807 133.473 161.067 132.502H162.991C162.645 133.889 161.899 135.024 160.755 135.908C159.629 136.775 158.207 137.208 156.491 137.208C155.157 137.208 153.961 136.913 152.903 136.324C151.846 135.717 151.014 134.868 150.407 133.776C149.818 132.667 149.523 131.375 149.523 129.902C149.523 128.429 149.818 127.137 150.407 126.028C150.997 124.919 151.82 124.069 152.877 123.48C153.935 122.891 155.139 122.596 156.491 122.596C157.843 122.596 159.022 122.891 160.027 123.48C161.05 124.069 161.83 124.867 162.367 125.872C162.922 126.86 163.199 127.961 163.199 129.174ZM161.353 129.122C161.371 128.065 161.154 127.163 160.703 126.418C160.27 125.673 159.672 125.109 158.909 124.728C158.147 124.347 157.315 124.156 156.413 124.156C155.061 124.156 153.909 124.589 152.955 125.456C152.002 126.323 151.473 127.545 151.369 129.122H161.353ZM168.349 117.76V137H166.529V117.76H168.349ZM174.291 117.76V137H172.471V117.76H174.291ZM184.715 129.876C184.715 128.42 185.001 127.146 185.573 126.054C186.162 124.945 186.968 124.095 187.991 123.506C189.031 122.899 190.201 122.596 191.501 122.596C192.853 122.596 194.014 122.908 194.985 123.532C195.973 124.156 196.683 124.953 197.117 125.924V122.804H198.937V137H197.117V133.854C196.666 134.825 195.947 135.631 194.959 136.272C193.988 136.896 192.827 137.208 191.475 137.208C190.192 137.208 189.031 136.905 187.991 136.298C186.968 135.691 186.162 134.833 185.573 133.724C185.001 132.615 184.715 131.332 184.715 129.876ZM197.117 129.902C197.117 128.758 196.883 127.753 196.415 126.886C195.947 126.019 195.305 125.352 194.491 124.884C193.693 124.416 192.809 124.182 191.839 124.182C190.833 124.182 189.932 124.407 189.135 124.858C188.337 125.309 187.705 125.967 187.237 126.834C186.786 127.683 186.561 128.697 186.561 129.876C186.561 131.037 186.786 132.06 187.237 132.944C187.705 133.811 188.337 134.478 189.135 134.946C189.932 135.397 190.833 135.622 191.839 135.622C192.809 135.622 193.693 135.388 194.491 134.92C195.305 134.452 195.947 133.785 196.415 132.918C196.883 132.051 197.117 131.046 197.117 129.902ZM215.114 137.208C213.485 137.208 212.15 136.835 211.11 136.09C210.088 135.327 209.516 134.296 209.394 132.996H211.266C211.353 133.793 211.726 134.443 212.384 134.946C213.06 135.431 213.962 135.674 215.088 135.674C216.076 135.674 216.848 135.44 217.402 134.972C217.974 134.504 218.26 133.923 218.26 133.23C218.26 132.745 218.104 132.346 217.792 132.034C217.48 131.722 217.082 131.479 216.596 131.306C216.128 131.115 215.487 130.916 214.672 130.708C213.615 130.431 212.757 130.153 212.098 129.876C211.44 129.599 210.876 129.191 210.408 128.654C209.958 128.099 209.732 127.363 209.732 126.444C209.732 125.751 209.94 125.109 210.356 124.52C210.772 123.931 211.362 123.463 212.124 123.116C212.887 122.769 213.754 122.596 214.724 122.596C216.25 122.596 217.48 122.986 218.416 123.766C219.352 124.529 219.855 125.586 219.924 126.938H218.104C218.052 126.106 217.723 125.439 217.116 124.936C216.527 124.416 215.712 124.156 214.672 124.156C213.754 124.156 213.008 124.373 212.436 124.806C211.864 125.239 211.578 125.777 211.578 126.418C211.578 126.973 211.743 127.432 212.072 127.796C212.419 128.143 212.844 128.42 213.346 128.628C213.849 128.819 214.525 129.035 215.374 129.278C216.397 129.555 217.212 129.824 217.818 130.084C218.425 130.344 218.945 130.725 219.378 131.228C219.812 131.731 220.037 132.398 220.054 133.23C220.054 133.993 219.846 134.677 219.43 135.284C219.014 135.873 218.434 136.341 217.688 136.688C216.943 137.035 216.085 137.208 215.114 137.208ZM225.846 124.338V133.152C225.846 134.019 226.011 134.617 226.34 134.946C226.67 135.275 227.25 135.44 228.082 135.44H229.746V137H227.796C226.514 137 225.56 136.705 224.936 136.116C224.312 135.509 224 134.521 224 133.152V124.338H222.024V122.804H224V119.242H225.846V122.804H229.746V124.338H225.846ZM238.962 137.208C237.627 137.208 236.423 136.913 235.348 136.324C234.291 135.717 233.45 134.868 232.826 133.776C232.219 132.667 231.916 131.375 231.916 129.902C231.916 128.429 232.228 127.146 232.852 126.054C233.476 124.945 234.325 124.095 235.4 123.506C236.475 122.899 237.679 122.596 239.014 122.596C240.349 122.596 241.553 122.899 242.628 123.506C243.72 124.095 244.569 124.945 245.176 126.054C245.8 127.146 246.112 128.429 246.112 129.902C246.112 131.358 245.8 132.641 245.176 133.75C244.552 134.859 243.694 135.717 242.602 136.324C241.51 136.913 240.297 137.208 238.962 137.208ZM238.962 135.622C239.898 135.622 240.765 135.414 241.562 134.998C242.359 134.565 243.001 133.923 243.486 133.074C243.989 132.207 244.24 131.15 244.24 129.902C244.24 128.654 243.997 127.605 243.512 126.756C243.027 125.889 242.385 125.248 241.588 124.832C240.791 124.399 239.924 124.182 238.988 124.182C238.052 124.182 237.185 124.399 236.388 124.832C235.591 125.248 234.949 125.889 234.464 126.756C233.996 127.605 233.762 128.654 233.762 129.902C233.762 131.15 233.996 132.207 234.464 133.074C234.949 133.923 235.582 134.565 236.362 134.998C237.159 135.414 238.026 135.622 238.962 135.622ZM251.25 125.326C251.648 124.442 252.255 123.757 253.07 123.272C253.902 122.787 254.916 122.544 256.112 122.544V124.442H255.618C254.3 124.442 253.243 124.797 252.446 125.508C251.648 126.219 251.25 127.406 251.25 129.07V137H249.43V122.804H251.25V125.326ZM270.55 122.804L262.126 143.682H260.228L262.984 136.922L257.16 122.804H259.162L263.998 134.92L268.678 122.804H270.55ZM273.33 137.13C272.948 137.13 272.628 137 272.368 136.74C272.125 136.48 272.004 136.159 272.004 135.778C272.004 135.397 272.125 135.085 272.368 134.842C272.628 134.582 272.948 134.452 273.33 134.452C273.694 134.452 273.997 134.582 274.24 134.842C274.5 135.085 274.63 135.397 274.63 135.778C274.63 136.159 274.5 136.48 274.24 136.74C273.997 137 273.694 137.13 273.33 137.13Z" fill="white"/>
</svg>
