<svg width="159" height="37" viewBox="0 0 159 37" fill="none" xmlns="http://www.w3.org/2000/svg">
<path d="M158.956 36.0596C159.066 36.1958 158.956 36.3321 158.792 36.3321H153.752C153.643 36.3321 153.478 36.2413 153.424 36.1504C152.712 35.2421 152.712 33.6526 152.712 32.7897L152.821 19.0743H151.726V36.105C151.726 36.2413 151.616 36.3321 151.452 36.3321H146.522C146.358 36.3321 146.248 36.2413 146.248 36.105V0.227075C146.248 0.0908288 146.358 0 146.522 0H153.917C158.299 0 158.299 2.27075 158.299 7.26642V13.7608C158.299 16.2132 156.601 16.9398 155.724 17.0307V17.4848C156.546 17.5756 158.299 18.3023 158.299 20.7547V32.7897C158.299 33.5618 158.299 35.1513 158.956 36.0596ZM151.726 15.4411H152.821V4.08736H151.726V15.4411Z" fill="#E90074"/>
<path d="M139.937 0H144.867C145.031 0 145.141 0.0908288 145.141 0.227075V29.0657C145.141 34.0613 145.141 36.3321 140.758 36.3321H137.472C133.09 36.3321 133.09 34.0613 133.09 29.0657V0.227075C133.09 0.0908288 133.199 0 133.364 0H138.294C138.458 0 138.567 0.0908288 138.567 0.227075V32.2447H139.663V0.227075C139.663 0.0908288 139.773 0 139.937 0Z" fill="#E90074"/>
<path d="M131.482 0.227075L132.248 36.105C132.248 36.2867 132.139 36.3321 131.975 36.3321H127.045C126.88 36.3321 126.771 36.2867 126.771 36.105L126.661 26.1137H125.511L125.401 36.105C125.401 36.2867 125.292 36.3321 125.128 36.3321H120.198C120.033 36.3321 119.924 36.2867 119.924 36.105L120.691 0.227075C120.691 0.0454143 120.8 0 120.965 0H131.208C131.372 0 131.482 0.0454143 131.482 0.227075ZM125.675 4.08736L125.511 22.4805H126.661L126.497 4.08736H125.675Z" fill="#E90074"/>
<path d="M110.745 36.3321H105.815C105.651 36.3321 105.541 36.2413 105.541 36.105V0.227075C105.541 0.0908288 105.651 0 105.815 0H110.745C110.909 0 111.019 0.0908288 111.019 0.227075V16.1224H111.84L113.429 0.227075C113.429 0.0908288 113.593 0 113.757 0H118.906C119.071 0 119.125 0.0908288 119.125 0.227075L117.099 18.166L119.125 36.105C119.125 36.2867 119.071 36.3321 118.906 36.3321H113.757C113.593 36.3321 113.429 36.2413 113.429 36.105L111.84 20.2097H111.019V36.105C111.019 36.2413 110.909 36.3321 110.745 36.3321Z" fill="#E90074"/>
<path d="M100.542 36.0596C100.652 36.1958 100.542 36.3321 100.378 36.3321H95.3383C95.2288 36.3321 95.0644 36.2413 95.0097 36.1504C94.2976 35.2421 94.2976 33.6526 94.2976 32.7897L94.4071 19.0743H93.3116V36.105C93.3116 36.2413 93.202 36.3321 93.0377 36.3321H88.1079C87.9435 36.3321 87.834 36.2413 87.834 36.105V0.227075C87.834 0.0908288 87.9435 0 88.1079 0H95.5026C99.8847 0 99.8847 2.27075 99.8847 7.26642V13.7608C99.8847 16.2132 98.1867 16.9398 97.3102 17.0307V17.4848C98.1319 17.5756 99.8847 18.3023 99.8847 20.7547V32.7897C99.8847 33.5618 99.8847 35.1513 100.542 36.0596ZM93.3116 15.4411H94.4071V4.08736H93.3116V15.4411Z" fill="#E90074"/>
<path d="M85.9347 19.9826H83.4698V32.6989H86.4825C86.6468 32.6989 86.7564 32.7897 86.7564 32.926V36.105C86.7564 36.2413 86.6468 36.3321 86.4825 36.3321H78.2661C78.1017 36.3321 77.9922 36.2413 77.9922 36.105V0.227075C77.9922 0.0908288 78.1017 0 78.2661 0H86.4825C86.6468 0 86.7564 0.0908288 86.7564 0.227075V3.40613C86.7564 3.54238 86.6468 3.63321 86.4825 3.63321H83.4698V16.3494H85.9347C86.099 16.3494 86.2086 16.4403 86.2086 16.5765V19.7556C86.2086 19.8918 86.099 19.9826 85.9347 19.9826Z" fill="#E90074"/>
<path d="M72.5007 0C76.8828 0 76.8828 2.27075 76.8828 7.26642V29.0657C76.8828 34.0613 76.8828 36.3321 72.5007 36.3321H65.1059C64.9416 36.3321 64.832 36.2413 64.832 36.105V0.227075C64.832 0.0908288 64.9416 0 65.1059 0H72.5007ZM71.4052 32.2447V4.08736H70.3096V32.2447H71.4052Z" fill="#E90074"/>
<path d="M55.2721 36.3321H50.3422C50.1779 36.3321 50.0684 36.2413 50.0684 36.105V0.227075C50.0684 0.0908288 50.1779 0 50.3422 0H54.6696C54.8339 0 54.9982 0.0908288 54.9982 0.227075L57.4631 17.7119H57.737V0.227075C57.737 0.0908288 57.8466 0 58.0109 0H63.4885C63.6528 0 63.7624 0.0908288 63.7624 0.227075V36.105C63.7624 36.2413 63.6528 36.3321 63.4885 36.3321H59.1612C58.9969 36.3321 58.8325 36.2413 58.8325 36.105L55.8198 16.8036H55.546V36.105C55.546 36.2413 55.4364 36.3321 55.2721 36.3321Z" fill="#E90074"/>
<path d="M48.694 36.3321H43.7641C43.5998 36.3321 43.4902 36.2413 43.4902 36.105V0.227075C43.4902 0.0908288 43.5998 0 43.7641 0H48.694C48.8583 0 48.9678 0.0908288 48.9678 0.227075V36.105C48.9678 36.2413 48.8583 36.3321 48.694 36.3321Z" fill="#E90074"/>
<path d="M37.1771 0H42.1069C42.2713 0 42.3808 0.0908288 42.3808 0.227075V36.105C42.3808 36.2413 42.2713 36.3321 42.1069 36.3321H37.1771C37.0128 36.3321 36.9032 36.2413 36.9032 36.105V19.9826H35.8077V36.105C35.8077 36.2413 35.6981 36.3321 35.5338 36.3321H30.604C30.4396 36.3321 30.3301 36.2413 30.3301 36.105V0.227075C30.3301 0.0908288 30.4396 0 30.604 0H35.5338C35.6981 0 35.8077 0.0908288 35.8077 0.227075V16.3494H36.9032V0.227075C36.9032 0.0908288 37.0128 0 37.1771 0Z" fill="#E90074"/>
<path d="M28.7218 0.227075L29.4887 36.105C29.4887 36.2867 29.3791 36.3321 29.2148 36.3321H24.285C24.1206 36.3321 24.0111 36.2867 24.0111 36.105L23.9015 26.1137H22.7512L22.6417 36.105C22.6417 36.2867 22.5321 36.3321 22.3678 36.3321H17.4379C17.2736 36.3321 17.1641 36.2867 17.1641 36.105L17.9309 0.227075C17.9309 0.0454143 18.0405 0 18.2048 0H28.4479C28.6123 0 28.7218 0.0454143 28.7218 0.227075ZM22.9156 4.08736L22.7512 22.4805H23.9015L23.7372 4.08736H22.9156Z" fill="#E90074"/>
<path d="M5.20373 36.3321H0.27388C0.109552 36.3321 0 36.2413 0 36.105V0.227075C0 0.0908288 0.109552 0 0.27388 0H6.29925C6.46358 0 6.57313 0.0454143 6.57313 0.227075L8.05208 17.7119H8.32596L9.75014 0.227075C9.75014 0.0454143 9.85969 0 10.024 0H16.0494C16.2137 0 16.3233 0.0908288 16.3233 0.227075V36.105C16.3233 36.2413 16.2137 36.3321 16.0494 36.3321H11.1195C10.9552 36.3321 10.8457 36.2413 10.8457 36.105V16.3494H10.5718L9.25716 36.105C9.25716 36.2867 9.1476 36.3321 8.98328 36.3321H7.33999C7.17567 36.3321 7.06611 36.2867 7.06611 36.105L5.75149 16.3494H5.47761V36.105C5.47761 36.2413 5.36805 36.3321 5.20373 36.3321Z" fill="#E90074"/>
</svg>
