<svg width="153" height="54" viewBox="0 0 153 54" fill="none" xmlns="http://www.w3.org/2000/svg">
<path d="M144.379 20.9741V6.06967H142.654V19.895C142.654 20.6369 142.654 21.3787 144.379 22.5927L148.689 25.9647C152.569 28.9995 153 29.067 153 34.5297V43.1621C153 50.5806 153 53.9526 146.103 53.9526H140.93C134.033 53.9526 134.033 50.5806 134.033 43.1621V32.3041C134.033 32.1018 134.206 31.9669 134.464 31.9669H142.223C142.482 31.9669 142.654 32.1018 142.654 32.3041V47.883H144.379V33.3832C144.379 32.6413 144.465 31.6972 142.654 30.6856L139.206 28.3251C134.637 25.1554 134.033 23.874 134.033 18.4113V10.7905C134.033 3.37204 134.033 0 140.93 0H146.103C153 0 153 3.37204 153 10.7905V20.9741C153 21.1764 152.827 21.3113 152.569 21.3113H144.81C144.551 21.3113 144.379 21.1764 144.379 20.9741Z" fill="white"/>
<path d="M117.204 0H132.723C132.981 0 133.154 0.13488 133.154 0.337204V5.05806C133.154 5.26038 132.981 5.39526 132.723 5.39526H129.274V53.6154C129.274 53.8177 129.102 53.9526 128.843 53.9526H121.084C120.825 53.9526 120.653 53.8177 120.653 53.6154V5.39526H117.204C116.946 5.39526 116.773 5.26038 116.773 5.05806V0.337204C116.773 0.13488 116.946 0 117.204 0Z" fill="white"/>
<path d="M107.25 24.481V6.06967H105.526V47.883H107.25V26.5042C107.25 26.3019 107.422 26.167 107.681 26.167H115.44C115.699 26.167 115.871 26.3019 115.871 26.5042V43.1621C115.871 50.5806 115.871 53.9526 108.974 53.9526H103.801C96.9043 53.9526 96.9043 50.5806 96.9043 43.1621V10.7905C96.9043 3.37204 96.9043 0 103.801 0H108.974C115.871 0 115.871 3.37204 115.871 10.7905V24.481C115.871 24.6833 115.699 24.8182 115.44 24.8182H107.681C107.422 24.8182 107.25 24.6833 107.25 24.481Z" fill="white"/>
<path d="M94.7566 29.6739H90.8771V48.5574H95.6188C95.8774 48.5574 96.0498 48.6923 96.0498 48.8946V53.6154C96.0498 53.8177 95.8774 53.9526 95.6188 53.9526H82.6869C82.4283 53.9526 82.2559 53.8177 82.2559 53.6154V0.337204C82.2559 0.13488 82.4283 0 82.6869 0H95.6188C95.8774 0 96.0498 0.13488 96.0498 0.337204V5.05806C96.0498 5.26038 95.8774 5.39526 95.6188 5.39526H90.8771V24.2787H94.7566C95.0153 24.2787 95.1877 24.4136 95.1877 24.6159V29.3367C95.1877 29.5391 95.0153 29.6739 94.7566 29.6739Z" fill="white"/>
<path d="M72.3215 0H80.0806C80.3392 0 80.5116 0.13488 80.5116 0.337204V43.1621C80.5116 50.5806 80.5116 53.9526 73.6147 53.9526H68.4419C61.5449 53.9526 61.5449 50.5806 61.5449 43.1621V36.0808C61.5449 35.8785 61.7173 35.7436 61.976 35.7436H69.7351C69.9937 35.7436 70.1662 35.8785 70.1662 36.0808V47.883H71.8904V0.337204C71.8904 0.13488 72.0628 0 72.3215 0Z" fill="white"/>
<path d="M53.3236 0C60.2206 0 60.2206 3.37204 60.2206 10.7905V43.1621C60.2206 50.5806 60.2206 53.9526 53.3236 53.9526H48.1509C41.2539 53.9526 41.2539 50.5806 41.2539 43.1621V10.7905C41.2539 3.37204 41.2539 0 48.1509 0H53.3236ZM51.5994 47.883V6.06967H49.8751V47.883H51.5994Z" fill="white"/>
<path d="M40.7122 53.548C40.8846 53.7503 40.7122 53.9526 40.4536 53.9526H32.522C32.3496 53.9526 32.091 53.8178 32.0048 53.6829C30.884 52.3341 30.884 49.9736 30.884 48.6923L31.0564 28.3251H29.3322V53.6154C29.3322 53.8177 29.1597 53.9526 28.9011 53.9526H21.142C20.8834 53.9526 20.7109 53.8177 20.7109 53.6154V0.337204C20.7109 0.13488 20.8834 0 21.142 0H32.7807C39.6777 0 39.6777 3.37204 39.6777 10.7905V20.4346C39.6777 24.0764 37.0051 25.1554 35.6257 25.2903V25.9647C36.9189 26.0996 39.6777 27.1786 39.6777 30.8204V48.6923C39.6777 49.8387 39.6777 52.1992 40.7122 53.548ZM29.3322 22.9299H31.0564V6.06967H29.3322V22.9299Z" fill="white"/>
<path d="M12.0697 0C18.9667 0 18.9667 3.37204 18.9667 10.7905V20.9741C18.9667 28.3926 18.9667 31.7646 12.0697 31.7646H8.62124V53.6154C8.62124 53.8177 8.44881 53.9526 8.19017 53.9526H0.431062C0.172425 53.9526 0 53.8177 0 53.6154V0.337204C0 0.13488 0.172425 0 0.431062 0H12.0697ZM10.3455 25.6949V6.06967H8.62124V25.6949H10.3455Z" fill="white"/>
</svg>
