<svg width="222" height="51" viewBox="0 0 222 51" fill="none" xmlns="http://www.w3.org/2000/svg">
<path d="M212.885 50.6344H207.593C207.416 50.6344 207.299 50.5078 207.299 50.3179V0.316465C207.299 0.126584 207.416 0 207.593 0H212.238C212.415 0 212.591 0.126584 212.591 0.316465L215.237 24.6842H215.531V0.316465C215.531 0.126584 215.649 0 215.825 0H221.705C221.882 0 221.999 0.126584 221.999 0.316465V50.3179C221.999 50.5078 221.882 50.6344 221.705 50.6344H217.06C216.884 50.6344 216.707 50.5078 216.707 50.3179L213.473 23.4184H213.179V50.3179C213.179 50.5078 213.061 50.6344 212.885 50.6344Z" fill="white"/>
<path d="M200.23 18.9879V5.69636H199.054V42.7227H200.23V26.2666H199.936C199.76 26.2666 199.642 26.14 199.642 25.9501V20.8867C199.642 20.6968 199.76 20.5702 199.936 20.5702H205.816C205.993 20.5702 206.11 20.6968 206.11 20.8867V50.3179C206.11 50.5078 205.993 50.6344 205.816 50.6344H200.524C200.348 50.6344 200.23 50.5078 200.23 50.3179V44.6215H199.936C199.701 46.457 199.466 50.9508 196.584 50.9508C193.174 50.9508 193.174 44.6848 193.174 40.5075V10.1269C193.174 3.16464 193.174 0 197.878 0H201.406C206.11 0 206.11 3.16464 206.11 10.1269V18.9879C206.11 19.1778 205.993 19.3043 205.816 19.3043H200.524C200.348 19.3043 200.23 19.1778 200.23 18.9879Z" fill="white"/>
<path d="M191.696 50.6344H186.403C186.227 50.6344 186.109 50.5078 186.109 50.3179V0.316465C186.109 0.126584 186.227 0 186.403 0H191.696C191.872 0 191.99 0.126584 191.99 0.316465V50.3179C191.99 50.5078 191.872 50.6344 191.696 50.6344Z" fill="white"/>
<path d="M179.041 19.6841V5.69636H177.865V18.6714C177.865 19.3676 177.865 20.0639 179.041 21.2031L181.981 24.3678C184.627 27.216 184.921 27.2793 184.921 32.406V40.5075C184.921 47.4697 184.921 50.6344 180.217 50.6344H176.689C171.984 50.6344 171.984 47.4697 171.984 40.5075V30.3173C171.984 30.1274 172.102 30.0009 172.278 30.0009H177.571C177.747 30.0009 177.865 30.1274 177.865 30.3173V44.938H179.041V31.33C179.041 30.6338 179.099 29.7477 177.865 28.7983L175.512 26.583C172.396 23.6083 171.984 22.4057 171.984 17.279V10.1269C171.984 3.16464 171.984 0 176.689 0H180.217C184.921 0 184.921 3.16464 184.921 10.1269V19.6841C184.921 19.874 184.803 20.0006 184.627 20.0006H179.335C179.158 20.0006 179.041 19.874 179.041 19.6841Z" fill="white"/>
<path d="M170.518 27.8489H167.872V45.5709H171.106C171.283 45.5709 171.4 45.6975 171.4 45.8874V50.3179C171.4 50.5078 171.283 50.6344 171.106 50.6344H162.286C162.11 50.6344 161.992 50.5078 161.992 50.3179V0.316465C161.992 0.126584 162.11 0 162.286 0H171.106C171.283 0 171.4 0.126584 171.4 0.316465V4.74697C171.4 4.93685 171.283 5.06343 171.106 5.06343H167.872V22.7855H170.518C170.695 22.7855 170.812 22.912 170.812 23.1019V27.5324C170.812 27.7223 170.695 27.8489 170.518 27.8489Z" fill="white"/>
<path d="M156.097 0C160.802 0 160.802 3.16464 160.802 10.1269V40.5075C160.802 47.4697 160.802 50.6344 156.097 50.6344H148.159C147.983 50.6344 147.865 50.5078 147.865 50.3179V0.316465C147.865 0.126584 147.983 0 148.159 0H156.097ZM154.921 44.938V5.69636H153.745V44.938H154.921Z" fill="white"/>
<path d="M133.469 50.6344H128.177C128 50.6344 127.883 50.5078 127.883 50.3179V0.316465C127.883 0.126584 128 0 128.177 0H132.822C132.999 0 133.175 0.126584 133.175 0.316465L135.821 24.6842H136.115V0.316465C136.115 0.126584 136.233 0 136.409 0H142.289C142.466 0 142.583 0.126584 142.583 0.316465V50.3179C142.583 50.5078 142.466 50.6344 142.289 50.6344H137.644C137.468 50.6344 137.291 50.5078 137.291 50.3179L134.057 23.4184H133.763V50.3179C133.763 50.5078 133.645 50.6344 133.469 50.6344Z" fill="white"/>
<path d="M121.988 0C126.692 0 126.692 3.16464 126.692 10.1269V40.5075C126.692 47.4697 126.692 50.6344 121.988 50.6344H118.46C113.756 50.6344 113.756 47.4697 113.756 40.5075V10.1269C113.756 3.16464 113.756 0 118.46 0H121.988ZM120.812 44.938V5.69636H119.636V44.938H120.812Z" fill="white"/>
<path d="M112.28 50.6344H106.987C106.811 50.6344 106.693 50.5078 106.693 50.3179V0.316465C106.693 0.126584 106.811 0 106.987 0H112.28C112.456 0 112.574 0.126584 112.574 0.316465V50.3179C112.574 50.5078 112.456 50.6344 112.28 50.6344Z" fill="white"/>
<path d="M94.6417 0H105.226C105.402 0 105.52 0.126584 105.52 0.316465V4.74697C105.52 4.93685 105.402 5.06343 105.226 5.06343H102.874V50.3179C102.874 50.5078 102.756 50.6344 102.58 50.6344H97.2877C97.1113 50.6344 96.9937 50.5078 96.9937 50.3179V5.06343H94.6417C94.4653 5.06343 94.3477 4.93685 94.3477 4.74697V0.316465C94.3477 0.126584 94.4653 0 94.6417 0Z" fill="white"/>
<path d="M93.4834 0.316465L94.3066 50.3179C94.3066 50.5711 94.189 50.6344 94.0126 50.6344H88.7204C88.544 50.6344 88.4264 50.5711 88.4264 50.3179L88.3088 36.3934H87.074L86.9564 50.3179C86.9564 50.5711 86.8388 50.6344 86.6624 50.6344H81.3702C81.1938 50.6344 81.0762 50.5711 81.0762 50.3179L81.8994 0.316465C81.8994 0.0632923 82.017 0 82.1934 0H93.1894C93.3658 0 93.4834 0.0632923 93.4834 0.316465ZM87.2504 5.69636L87.074 31.33H88.3088L88.1324 5.69636H87.2504Z" fill="white"/>
<path d="M80.1381 50.2546C80.2557 50.4445 80.1381 50.6344 79.9617 50.6344H74.5519C74.4343 50.6344 74.2579 50.5078 74.1991 50.3812C73.4347 49.1153 73.4347 46.9001 73.4347 45.6975L73.5523 26.583H72.3763V50.3179C72.3763 50.5078 72.2587 50.6344 72.0823 50.6344H66.7901C66.6137 50.6344 66.4961 50.5078 66.4961 50.3179V0.316465C66.4961 0.126584 66.6137 0 66.7901 0H74.7284C79.4325 0 79.4325 3.16464 79.4325 10.1269V19.1778C79.4325 22.5956 77.6096 23.6083 76.6688 23.7349V24.3678C77.5508 24.4944 79.4325 25.5071 79.4325 28.9249V45.6975C79.4325 46.7735 79.4325 48.9887 80.1381 50.2546ZM72.3763 21.5196H73.5523V5.69636H72.3763V21.5196Z" fill="white"/>
<path d="M54.4444 0H65.0287C65.2051 0 65.3227 0.126584 65.3227 0.316465V4.74697C65.3227 4.93685 65.2051 5.06343 65.0287 5.06343H62.6767V50.3179C62.6767 50.5078 62.5591 50.6344 62.3827 50.6344H57.0905C56.9141 50.6344 56.7965 50.5078 56.7965 50.3179V5.06343H54.4444C54.268 5.06343 54.1504 4.93685 54.1504 4.74697V0.316465C54.1504 0.126584 54.268 0 54.4444 0Z" fill="white"/>
<path d="M47.6539 19.6841V5.69636H46.4778V18.6714C46.4778 19.3676 46.4778 20.0639 47.6539 21.2031L50.594 24.3678C53.2401 27.216 53.5341 27.2793 53.5341 32.406V40.5075C53.5341 47.4697 53.5341 50.6344 48.8299 50.6344H45.3018C40.5977 50.6344 40.5977 47.4697 40.5977 40.5075V30.3173C40.5977 30.1274 40.7153 30.0009 40.8917 30.0009H46.1838C46.3602 30.0009 46.4778 30.1274 46.4778 30.3173V44.938H47.6539V31.33C47.6539 30.6338 47.7127 29.7477 46.4778 28.7983L44.1258 26.583C41.0093 23.6083 40.5977 22.4057 40.5977 17.279V10.1269C40.5977 3.16464 40.5977 0 45.3018 0H48.8299C53.5341 0 53.5341 3.16464 53.5341 10.1269V19.6841C53.5341 19.874 53.4165 20.0006 53.2401 20.0006H47.9479C47.7715 20.0006 47.6539 19.874 47.6539 19.6841Z" fill="white"/>
<path d="M33.8229 0H39.1151C39.2915 0 39.4091 0.126584 39.4091 0.316465V40.5075C39.4091 47.4697 39.4091 50.6344 34.7049 50.6344H31.1768C26.4727 50.6344 26.4727 47.4697 26.4727 40.5075V0.316465C26.4727 0.126584 26.5903 0 26.7667 0H32.0588C32.2352 0 32.3528 0.126584 32.3528 0.316465V44.938H33.5289V0.316465C33.5289 0.126584 33.6465 0 33.8229 0Z" fill="white"/>
<path d="M22.9349 0.316465V45.5709H25.581C25.7574 45.5709 25.875 45.6975 25.875 45.8874V50.3179C25.875 50.5078 25.7574 50.6344 25.581 50.6344H17.3487C17.1723 50.6344 17.0547 50.5078 17.0547 50.3179V0.316465C17.0547 0.126584 17.1723 0 17.3487 0H22.6409C22.8173 0 22.9349 0.126584 22.9349 0.316465Z" fill="white"/>
<path d="M12.9427 0.316465V45.5709H15.5888C15.7652 45.5709 15.8828 45.6975 15.8828 45.8874V50.3179C15.8828 50.5078 15.7652 50.6344 15.5888 50.6344H7.35651C7.1801 50.6344 7.0625 50.5078 7.0625 50.3179V0.316465C7.0625 0.126584 7.1801 0 7.35651 0H12.6487C12.8251 0 12.9427 0.126584 12.9427 0.316465Z" fill="white"/>
<path d="M5.58617 50.6344H0.294007C0.117602 50.6344 0 50.5078 0 50.3179V0.316465C0 0.126584 0.117602 0 0.294007 0H5.58617C5.76258 0 5.88019 0.126584 5.88019 0.316465V50.3179C5.88019 50.5078 5.76258 50.6344 5.58617 50.6344Z" fill="white"/>
</svg>
