<svg width="222" height="50" viewBox="0 0 222 50" fill="none" xmlns="http://www.w3.org/2000/svg">
<path d="M214.375 19.4375V5.625H212.85V18.4375C212.85 19.125 212.85 19.8125 214.375 20.9375L218.187 24.0625C221.619 26.875 222 26.9375 222 32V40C222 46.875 222 50 215.9 50H211.325C205.225 50 205.225 46.875 205.225 40V29.9375C205.225 29.75 205.377 29.625 205.606 29.625H212.469C212.697 29.625 212.85 29.75 212.85 29.9375V44.375H214.375V30.9375C214.375 30.25 214.451 29.375 212.85 28.4375L209.8 26.25C205.758 23.3125 205.225 22.125 205.225 17.0625V10C205.225 3.125 205.225 0 211.325 0H215.9C222 0 222 3.125 222 10V19.4375C222 19.625 221.848 19.75 221.619 19.75H214.756C214.527 19.75 214.375 19.625 214.375 19.4375Z" fill="white"/>
<path d="M204.745 49.625C204.898 49.8125 204.745 50 204.516 50H197.501C197.349 50 197.12 49.875 197.044 49.75C196.052 48.5 196.052 46.3125 196.052 45.125L196.205 26.25H194.68V49.6875C194.68 49.875 194.527 50 194.299 50H187.436C187.207 50 187.055 49.875 187.055 49.6875V0.3125C187.055 0.124999 187.207 0 187.436 0H197.73C203.83 0 203.83 3.125 203.83 10V18.9375C203.83 22.3125 201.466 23.3125 200.246 23.4375V24.0625C201.39 24.1875 203.83 25.1875 203.83 28.5625V45.125C203.83 46.1875 203.83 48.375 204.745 49.625ZM194.68 21.25H196.205V5.625H194.68V21.25Z" fill="white"/>
<path d="M184.41 27.5H180.979V45H185.173C185.401 45 185.554 45.125 185.554 45.3125V49.6875C185.554 49.875 185.401 50 185.173 50H173.735C173.506 50 173.354 49.875 173.354 49.6875V0.3125C173.354 0.124999 173.506 0 173.735 0H185.173C185.401 0 185.554 0.124999 185.554 0.3125V4.6875C185.554 4.875 185.401 5 185.173 5H180.979V22.5H184.41C184.639 22.5 184.791 22.625 184.791 22.8125V27.1875C184.791 27.375 184.639 27.5 184.41 27.5Z" fill="white"/>
<path d="M165.71 0C171.811 0 171.811 3.125 171.811 10V40C171.811 46.875 171.811 50 165.71 50H155.416C155.188 50 155.035 49.875 155.035 49.6875V0.3125C155.035 0.124999 155.188 0 155.416 0H165.71ZM164.185 44.375V5.625H162.66V44.375H164.185Z" fill="white"/>
<path d="M153.44 49.625C153.593 49.8125 153.44 50 153.212 50H146.197C146.044 50 145.815 49.875 145.739 49.75C144.748 48.5 144.748 46.3125 144.748 45.125L144.9 26.25H143.375V49.6875C143.375 49.875 143.223 50 142.994 50H136.131C135.903 50 135.75 49.875 135.75 49.6875V0.3125C135.75 0.124999 135.903 0 136.131 0H146.425C152.525 0 152.525 3.125 152.525 10V18.9375C152.525 22.3125 150.162 23.3125 148.942 23.4375V24.0625C150.085 24.1875 152.525 25.1875 152.525 28.5625V45.125C152.525 46.1875 152.525 48.375 153.44 49.625ZM143.375 21.25H144.9V5.625H143.375V21.25Z" fill="white"/>
<path d="M128.107 0C134.207 0 134.207 3.125 134.207 10V40C134.207 46.875 134.207 50 128.107 50H123.532C117.432 50 117.432 46.875 117.432 40V10C117.432 3.125 117.432 0 123.532 0H128.107ZM126.582 44.375V5.625H125.057V44.375H126.582Z" fill="white"/>
<path d="M95.0369 50H88.1742C87.9455 50 87.793 49.875 87.793 49.6875V0.3125C87.793 0.124999 87.9455 0 88.1742 0H96.5619C96.7907 0 96.9432 0.0624994 96.9432 0.3125L99.002 24.375H99.3833L101.366 0.3125C101.366 0.0624994 101.518 0 101.747 0H110.135C110.364 0 110.516 0.124999 110.516 0.3125V49.6875C110.516 49.875 110.364 50 110.135 50H103.272C103.043 50 102.891 49.875 102.891 49.6875V22.5H102.51L100.68 49.6875C100.68 49.9375 100.527 50 100.298 50H98.0107C97.782 50 97.6295 49.9375 97.6295 49.6875L95.7994 22.5H95.4181V49.6875C95.4181 49.875 95.2656 50 95.0369 50Z" fill="white"/>
<path d="M80.1499 0C86.25 0 86.25 3.125 86.25 10V40C86.25 46.875 86.25 50 80.1499 50H75.5748C69.4746 50 69.4746 46.875 69.4746 40V10C69.4746 3.125 69.4746 0 75.5748 0H80.1499ZM78.6248 44.375V5.625H77.0998V44.375H78.6248Z" fill="white"/>
<path d="M54.5922 0H68.3175C68.5463 0 68.6988 0.124999 68.6988 0.3125V4.6875C68.6988 4.875 68.5463 5 68.3175 5H65.2674V49.6875C65.2674 49.875 65.1149 50 64.8862 50H58.0235C57.7948 50 57.6423 49.875 57.6423 49.6875V5H54.5922C54.3634 5 54.2109 4.875 54.2109 4.6875V0.3125C54.2109 0.124999 54.3634 0 54.5922 0Z" fill="white"/>
<path d="M45.7869 19.4375V5.625H44.2619V18.4375C44.2619 19.125 44.2619 19.8125 45.7869 20.9375L49.5995 24.0625C53.0309 26.875 53.4121 26.9375 53.4121 32V40C53.4121 46.875 53.4121 50 47.312 50H42.7369C36.6367 50 36.6367 46.875 36.6367 40V29.9375C36.6367 29.75 36.7892 29.625 37.018 29.625H43.8806C44.1094 29.625 44.2619 29.75 44.2619 29.9375V44.375H45.7869V30.9375C45.7869 30.25 45.8632 29.375 44.2619 28.4375L41.2118 26.25C37.1705 23.3125 36.6367 22.125 36.6367 17.0625V10C36.6367 3.125 36.6367 0 42.7369 0H47.312C53.4121 0 53.4121 3.125 53.4121 10V19.4375C53.4121 19.625 53.2596 19.75 53.0309 19.75H46.1682C45.9394 19.75 45.7869 19.625 45.7869 19.4375Z" fill="white"/>
<path d="M27.8498 0H34.7125C34.9413 0 35.0938 0.124999 35.0938 0.3125V40C35.0938 46.875 35.0938 50 28.9936 50H24.4185C18.3184 50 18.3184 46.875 18.3184 40V0.3125C18.3184 0.124999 18.4709 0 18.6996 0H25.5623C25.791 0 25.9435 0.124999 25.9435 0.3125V44.375H27.4686V0.3125C27.4686 0.124999 27.6211 0 27.8498 0Z" fill="white"/>
<path d="M9.15022 22.6875V5.625H7.62518V44.375H9.15022V24.5625C9.15022 24.375 9.30272 24.25 9.53148 24.25H16.3941C16.6229 24.25 16.7754 24.375 16.7754 24.5625V40C16.7754 46.875 16.7754 50 10.6753 50H6.10014C-1.21199e-06 50 0 46.875 0 40V10C0 3.125 -1.21199e-06 0 6.10014 0H10.6753C16.7754 0 16.7754 3.125 16.7754 10V22.6875C16.7754 22.875 16.6229 23 16.3941 23H9.53148C9.30272 23 9.15022 22.875 9.15022 22.6875Z" fill="white"/>
</svg>
