<svg width="692" height="105" viewBox="0 0 692 105" fill="none" xmlns="http://www.w3.org/2000/svg">
<path d="M681.061 0C692 0 692 6.52173 692 20.8696V38.8696C692 44.2174 692 45.913 688.171 50.2174L679.42 62.2174C678.19 63.7826 677.506 65.4783 677.506 70.1739V86.087C677.506 86.4783 677.232 86.7391 676.822 86.7391H667.251C666.841 86.7391 666.567 86.4783 666.567 86.087V63C666.567 56.7391 670.396 53.8696 675.181 47.6087C676.822 45.3913 678.053 44.7391 678.19 39.7826L678.326 34.5652V11.7391H675.592V39.2609C675.592 39.6522 675.318 39.913 674.908 39.913H662.602C662.191 39.913 661.918 39.6522 661.918 39.2609V20.8696C661.918 6.52173 661.918 0 672.857 0H681.061ZM666.43 89.3478H678.053C678.463 89.3478 678.737 89.6087 678.737 90V103.696C678.737 104.087 678.463 104.348 678.053 104.348H666.43C666.02 104.348 665.747 104.087 665.747 103.696V90C665.747 89.6087 666.02 89.3478 666.43 89.3478Z" fill="white"/>
<path d="M645.477 39.1304V11.7391H642.742V88.0435H645.477V54.1304H644.793C644.383 54.1304 644.109 53.8696 644.109 53.4783V43.0435C644.109 42.6522 644.383 42.3913 644.793 42.3913H658.467C658.877 42.3913 659.15 42.6522 659.15 43.0435V103.696C659.15 104.087 658.877 104.348 658.467 104.348H646.16C645.75 104.348 645.477 104.087 645.477 103.696V91.9565H644.793C644.246 95.7391 643.699 105 636.999 105C629.068 105 629.068 92.087 629.068 83.4783V20.8696C629.068 6.52173 629.068 0 640.007 0H648.212C659.15 0 659.15 6.52173 659.15 20.8696V39.1304C659.15 39.5217 658.877 39.7826 658.467 39.7826H646.16C645.75 39.7826 645.477 39.5217 645.477 39.1304Z" fill="white"/>
<path d="M605.205 104.348H592.899C592.488 104.348 592.215 104.087 592.215 103.696V0.652173C592.215 0.260866 592.488 0 592.899 0H603.701C604.111 0 604.521 0.260866 604.521 0.652173L610.674 50.8696H611.358V0.652173C611.358 0.260866 611.631 0 612.042 0H625.715C626.126 0 626.399 0.260866 626.399 0.652173V103.696C626.399 104.087 626.126 104.348 625.715 104.348H614.913C614.503 104.348 614.093 104.087 614.093 103.696L606.572 48.2609H605.889V103.696C605.889 104.087 605.615 104.348 605.205 104.348Z" fill="white"/>
<path d="M588.779 104.348H576.473C576.063 104.348 575.789 104.087 575.789 103.696V0.652173C575.789 0.260866 576.063 0 576.473 0H588.779C589.189 0 589.463 0.260866 589.463 0.652173V103.696C589.463 104.087 589.189 104.348 588.779 104.348Z" fill="white"/>
<path d="M560.033 0H572.34C572.75 0 573.023 0.260866 573.023 0.652173V103.696C573.023 104.087 572.75 104.348 572.34 104.348H560.033C559.623 104.348 559.35 104.087 559.35 103.696V57.3913H556.615V103.696C556.615 104.087 556.342 104.348 555.931 104.348H543.625C543.215 104.348 542.941 104.087 542.941 103.696V0.652173C542.941 0.260866 543.215 0 543.625 0H555.931C556.342 0 556.615 0.260866 556.615 0.652173V46.9565H559.35V0.652173C559.35 0.260866 559.623 0 560.033 0Z" fill="white"/>
<path d="M514.914 0H539.527C539.937 0 540.21 0.260866 540.21 0.652173V9.78261C540.21 10.1739 539.937 10.4348 539.527 10.4348H534.057V103.696C534.057 104.087 533.784 104.348 533.374 104.348H521.067C520.657 104.348 520.384 104.087 520.384 103.696V10.4348H514.914C514.504 10.4348 514.23 10.1739 514.23 9.78261V0.652173C514.23 0.260866 514.504 0 514.914 0Z" fill="white"/>
<path d="M509.489 57.3913H503.336V93.913H510.856C511.267 93.913 511.54 94.1739 511.54 94.5652V103.696C511.54 104.087 511.267 104.348 510.856 104.348H490.346C489.936 104.348 489.662 104.087 489.662 103.696V0.652173C489.662 0.260866 489.936 0 490.346 0H510.856C511.267 0 511.54 0.260866 511.54 0.652173V9.78261C511.54 10.1739 511.267 10.4348 510.856 10.4348H503.336V46.9565H509.489C509.899 46.9565 510.173 47.2174 510.173 47.6087V56.7391C510.173 57.1304 509.899 57.3913 509.489 57.3913Z" fill="white"/>
<path d="M459.121 104.348H446.815C446.404 104.348 446.131 104.087 446.131 103.696V0.652173C446.131 0.260866 446.404 0 446.815 0H461.856C462.266 0 462.539 0.130433 462.539 0.652173L466.231 50.8696H466.915L470.47 0.652173C470.47 0.130433 470.743 0 471.154 0H486.195C486.605 0 486.878 0.260866 486.878 0.652173V103.696C486.878 104.087 486.605 104.348 486.195 104.348H473.888C473.478 104.348 473.205 104.087 473.205 103.696V46.9565H472.521L469.239 103.696C469.239 104.217 468.966 104.348 468.556 104.348H464.454C464.043 104.348 463.77 104.217 463.77 103.696L460.488 46.9565H459.805V103.696C459.805 104.087 459.531 104.348 459.121 104.348Z" fill="white"/>
<path d="M432.424 0C443.363 0 443.363 6.52173 443.363 20.8696V83.4783C443.363 97.8261 443.363 104.348 432.424 104.348H424.22C413.281 104.348 413.281 97.8261 413.281 83.4783V20.8696C413.281 6.52173 413.281 0 424.22 0H432.424ZM429.69 92.6087V11.7391H426.955V92.6087H429.69Z" fill="white"/>
<path d="M396.84 40.5652V11.7391H394.105V38.4783C394.105 39.913 394.105 41.3478 396.84 43.6956L403.677 50.2174C409.83 56.087 410.514 56.2174 410.514 66.7826V83.4783C410.514 97.8261 410.514 104.348 399.575 104.348H391.371C380.432 104.348 380.432 97.8261 380.432 83.4783V62.4783C380.432 62.087 380.705 61.8261 381.115 61.8261H393.422C393.832 61.8261 394.105 62.087 394.105 62.4783V92.6087H396.84V64.5652C396.84 63.1304 396.977 61.3043 394.105 59.3478L388.636 54.7826C381.389 48.6522 380.432 46.1739 380.432 35.6087V20.8696C380.432 6.52173 380.432 0 391.371 0H399.575C410.514 0 410.514 6.52173 410.514 20.8696V40.5652C410.514 40.9565 410.24 41.2174 409.83 41.2174H397.524C397.114 41.2174 396.84 40.9565 396.84 40.5652Z" fill="white"/>
<path d="M366.075 57.3913H359.922V93.913H367.442C367.852 93.913 368.126 94.1739 368.126 94.5652V103.696C368.126 104.087 367.852 104.348 367.442 104.348H346.932C346.522 104.348 346.248 104.087 346.248 103.696V0.652173C346.248 0.260866 346.522 0 346.932 0H367.442C367.852 0 368.126 0.260866 368.126 0.652173V9.78261C368.126 10.1739 367.852 10.4348 367.442 10.4348H359.922V46.9565H366.075C366.485 46.9565 366.759 47.2174 366.759 47.6087V56.7391C366.759 57.1304 366.485 57.3913 366.075 57.3913Z" fill="#E90074"/>
<path d="M318.223 0H342.835C343.246 0 343.519 0.260866 343.519 0.652173V9.78261C343.519 10.1739 343.246 10.4348 342.835 10.4348H337.366V103.696C337.366 104.087 337.092 104.348 336.682 104.348H324.376C323.966 104.348 323.692 104.087 323.692 103.696V10.4348H318.223C317.813 10.4348 317.539 10.1739 317.539 9.78261V0.652173C317.539 0.260866 317.813 0 318.223 0Z" fill="#E90074"/>
<path d="M315.527 0.652173L317.442 103.696C317.442 104.217 317.168 104.348 316.758 104.348H304.452C304.041 104.348 303.768 104.217 303.768 103.696L303.494 75H300.623L300.349 103.696C300.349 104.217 300.076 104.348 299.666 104.348H287.359C286.949 104.348 286.676 104.217 286.676 103.696L288.59 0.652173C288.59 0.130433 288.864 0 289.274 0H314.844C315.254 0 315.527 0.130433 315.527 0.652173ZM301.033 11.7391L300.623 64.5652H303.494L303.084 11.7391H301.033Z" fill="#E90074"/>
<path d="M282.618 57.3913H276.465V93.913H283.985C284.395 93.913 284.669 94.1739 284.669 94.5652V103.696C284.669 104.087 284.395 104.348 283.985 104.348H263.475C263.064 104.348 262.791 104.087 262.791 103.696V0.652173C262.791 0.260866 263.064 0 263.475 0H283.985C284.395 0 284.669 0.260866 284.669 0.652173V9.78261C284.669 10.1739 284.395 10.4348 283.985 10.4348H276.465V46.9565H282.618C283.028 46.9565 283.302 47.2174 283.302 47.6087V56.7391C283.302 57.1304 283.028 57.3913 282.618 57.3913Z" fill="#E90074"/>
<path d="M259.93 103.565C260.203 103.957 259.93 104.348 259.52 104.348H246.94C246.666 104.348 246.256 104.087 246.12 103.826C244.342 101.217 244.342 96.6522 244.342 94.1739L244.615 54.7826H241.881V103.696C241.881 104.087 241.607 104.348 241.197 104.348H228.891C228.48 104.348 228.207 104.087 228.207 103.696V0.652173C228.207 0.260866 228.48 0 228.891 0H247.35C258.289 0 258.289 6.52173 258.289 20.8696V39.5217C258.289 46.5652 254.05 48.6522 251.862 48.913V50.2174C253.914 50.4783 258.289 52.5652 258.289 59.6087V94.1739C258.289 96.3913 258.289 100.957 259.93 103.565ZM241.881 44.3478H244.615V11.7391H241.881V44.3478Z" fill="#E90074"/>
<path d="M211.766 47.3478V11.7391H209.031V92.6087H211.766V51.2609C211.766 50.8696 212.039 50.6087 212.45 50.6087H224.756C225.166 50.6087 225.439 50.8696 225.439 51.2609V83.4783C225.439 97.8261 225.439 104.348 214.501 104.348H206.296C195.357 104.348 195.357 97.8261 195.357 83.4783V20.8696C195.357 6.52173 195.357 0 206.296 0H214.501C225.439 0 225.439 6.52173 225.439 20.8696V47.3478C225.439 47.7391 225.166 48 224.756 48H212.45C212.039 48 211.766 47.7391 211.766 47.3478Z" fill="#E90074"/>
<path d="M181.728 0.652173L183.643 103.696C183.643 104.217 183.369 104.348 182.959 104.348H170.653C170.243 104.348 169.969 104.217 169.969 103.696L169.696 75H166.824L166.551 103.696C166.551 104.217 166.277 104.348 165.867 104.348H153.561C153.15 104.348 152.877 104.217 152.877 103.696L154.791 0.652173C154.791 0.130433 155.065 0 155.475 0H181.045C181.455 0 181.728 0.130433 181.728 0.652173ZM167.234 11.7391L166.824 64.5652H169.696L169.285 11.7391H167.234Z" fill="white"/>
<path d="M129.697 104.348H117.391C116.98 104.348 116.707 104.087 116.707 103.696V0.652173C116.707 0.260866 116.98 0 117.391 0H128.193C128.603 0 129.013 0.260866 129.013 0.652173L135.166 50.8696H135.85V0.652173C135.85 0.260866 136.124 0 136.534 0H150.208C150.618 0 150.891 0.260866 150.891 0.652173V103.696C150.891 104.087 150.618 104.348 150.208 104.348H139.405C138.995 104.348 138.585 104.087 138.585 103.696L131.064 48.2609H130.381V103.696C130.381 104.087 130.107 104.348 129.697 104.348Z" fill="white"/>
<path d="M92.8416 104.348H80.5352C80.125 104.348 79.8516 104.087 79.8516 103.696V0.652173C79.8516 0.260866 80.125 0 80.5352 0H91.3374C91.7477 0 92.1579 0.260866 92.1579 0.652173L98.311 50.8696H98.9947V0.652173C98.9947 0.260866 99.2682 0 99.6784 0H113.352C113.762 0 114.036 0.260866 114.036 0.652173V103.696C114.036 104.087 113.762 104.348 113.352 104.348H102.55C102.14 104.348 101.729 104.087 101.729 103.696L94.2089 48.2609H93.5252V103.696C93.5252 104.087 93.2518 104.348 92.8416 104.348Z" fill="white"/>
<path d="M75.8378 0.652173L77.7521 103.696C77.7521 104.217 77.4786 104.348 77.0684 104.348H64.7621C64.3519 104.348 64.0784 104.217 64.0784 103.696L63.8049 75H60.9335L60.66 103.696C60.66 104.217 60.3865 104.348 59.9763 104.348H47.67C47.2598 104.348 46.9863 104.217 46.9863 103.696L48.9006 0.652173C48.9006 0.130433 49.1741 0 49.5843 0H75.1541C75.5643 0 75.8378 0.130433 75.8378 0.652173ZM61.3437 11.7391L60.9335 64.5652H63.8049L63.3947 11.7391H61.3437Z" fill="white"/>
<path d="M0.683684 0H12.99C13.4002 0 13.6737 0.260866 13.6737 0.652173L16.4084 57.3913H17.0921L18.3227 0.652173C18.3227 0.130433 18.5962 0 19.0064 0H27.2106C27.6208 0 27.8943 0.130433 27.8943 0.652173L29.1249 57.3913H29.8086L32.5433 0.652173C32.5433 0.260866 32.8168 0 33.227 0H45.5333C45.9435 0 46.217 0.260866 46.217 0.652173L43.4823 103.696C43.4823 104.087 43.2088 104.348 42.7986 104.348H27.7576C27.3473 104.348 27.0739 104.217 27.0739 103.696L23.5187 53.4783H22.835L19.1431 103.696C19.1431 104.217 18.8697 104.348 18.4595 104.348H3.41842C3.00821 104.348 2.73473 104.087 2.73473 103.696L0 0.652173C0 0.260866 0.273473 0 0.683684 0Z" fill="white"/>
</svg>
